<?xml version="1.0" standalone="no"?>
<!DOCTYPE svg PUBLIC "-//W3C//DTD SVG 20010904//EN"
 "http://www.w3.org/TR/2001/REC-SVG-20010904/DTD/svg10.dtd">
<svg version="1.0" xmlns="http://www.w3.org/2000/svg"
 width="720.000000pt" height="404.000000pt" viewBox="0 0 720.000000 404.000000"
 preserveAspectRatio="xMidYMid meet">

<g transform="translate(0.000000,404.000000) scale(0.100000,-0.100000)"
fill="#000000" stroke="none">
<path d="M0 4015 c0 -21 5 -25 31 -25 24 0 30 3 25 16 -3 9 -6 20 -6 25 0 5
-11 9 -25 9 -20 0 -25 -5 -25 -25z"/>
<path d="M232 4018 c4 -25 27 -33 128 -42 92 -8 280 -9 312 -1 14 4 35 20 47
36 l22 29 -256 0 -256 0 3 -22z"/>
<path d="M1160 4030 c0 -5 11 -12 25 -15 14 -3 37 -7 51 -10 14 -3 38 -19 53
-36 23 -25 39 -31 92 -38 l64 -8 -67 -2 c-37 0 -69 -5 -72 -10 -3 -4 -8 -33
-12 -64 -7 -62 3 -75 67 -79 19 -1 40 -6 47 -11 17 -13 15 -37 -4 -37 -8 0
-12 -5 -9 -10 4 -6 3 -10 -2 -9 -24 4 -40 -4 -58 -31 -17 -26 -56 -44 -92 -42
-14 1 -24 -28 -18 -49 6 -17 -5 -32 -52 -75 l-58 -54 -19 22 -19 23 6 -36 c3
-24 0 -44 -9 -58 -8 -12 -13 -21 -10 -21 3 0 -1 -21 -9 -47 -14 -46 -11 -113
4 -113 9 0 9 1 15 -110 7 -109 14 -190 20 -221 2 -13 14 -73 25 -134 33 -173
33 -165 12 -165 -45 0 -70 -72 -47 -135 9 -25 15 -32 16 -20 0 11 12 -9 27
-45 14 -36 41 -85 59 -109 41 -54 34 -76 -8 -24 -39 50 -43 53 -28 23 19 -37
62 -85 72 -82 5 1 7 -2 4 -7 -11 -17 23 -33 66 -29 l43 3 22 -125 c26 -150 27
-189 8 -254 -21 -69 -19 -107 13 -226 34 -122 73 -218 112 -275 43 -61 111
-121 150 -133 59 -18 140 -25 140 -13 0 6 -8 11 -17 12 -52 2 -111 28 -148 64
-13 14 -30 25 -37 25 -8 0 -20 8 -28 18 -19 22 -43 75 -31 68 5 -4 11 0 14 6
3 9 9 8 19 -5 14 -19 103 -43 92 -26 -3 5 -16 9 -30 9 -13 0 -24 5 -24 10 0 6
-7 10 -15 10 -8 0 -15 5 -15 10 0 6 12 10 26 10 19 0 25 -4 21 -14 -8 -21 24
-8 41 16 7 10 22 18 33 18 10 0 19 4 19 9 0 17 -26 29 -57 26 -18 -1 -30 1
-27 6 3 5 16 9 30 9 13 0 24 5 24 10 0 6 5 10 11 10 5 0 7 -5 4 -10 -5 -9 15
-15 38 -11 4 0 7 -5 7 -11 0 -10 3 -9 9 1 6 9 11 10 15 2 5 -8 13 -8 27 -1 24
14 26 -5 2 -19 -10 -6 -14 -11 -10 -11 5 0 20 9 34 20 14 11 31 20 37 20 6 0
4 -5 -4 -10 -11 -7 -2 -9 30 -6 54 5 80 14 80 28 0 6 7 8 15 4 19 -7 47 3 39
15 -3 5 4 9 15 9 12 0 21 5 21 10 0 6 5 10 11 10 5 0 7 -5 3 -11 -3 -6 8 -3
26 6 40 21 51 12 19 -16 -20 -19 -21 -21 -4 -15 23 9 24 9 50 7 16 -1 17 -3 5
-11 -12 -8 -12 -10 3 -15 16 -7 52 19 52 36 0 4 3 11 7 14 4 4 5 -5 3 -21 l-5
-29 24 28 c22 28 23 28 29 8 3 -12 2 -21 -1 -21 -4 0 -13 -13 -20 -28 -6 -16
-20 -37 -30 -48 -9 -10 -32 -39 -51 -64 -19 -25 -43 -53 -53 -62 -11 -10 -21
-24 -22 -32 -1 -8 -18 -29 -37 -45 -18 -17 -29 -31 -24 -31 6 0 16 5 23 12 9
9 12 9 12 -1 0 -8 -8 -20 -17 -27 -15 -10 -16 -15 -5 -25 10 -10 12 -10 12 0
0 7 4 10 9 6 11 -6 49 44 74 100 10 22 56 103 102 180 87 145 129 255 142 372
5 49 4 53 -30 82 l-35 31 15 60 c17 67 17 67 132 61 64 -4 81 -17 81 -65 0
-51 -19 -86 -47 -86 -29 0 -30 -16 -2 -30 11 -7 19 -14 16 -16 -2 -2 -24 7
-48 21 -60 34 -69 31 -30 -8 23 -25 31 -40 27 -58 -18 -90 -26 -132 -26 -136
0 -2 10 -1 21 2 12 4 29 8 38 10 9 1 17 12 17 23 2 28 0 27 -31 -4 -14 -14
-29 -23 -33 -19 -4 4 -1 10 6 12 6 3 10 9 6 14 -3 5 0 9 7 9 6 0 9 8 6 20 -3
10 -1 20 4 22 5 2 10 15 11 31 1 15 3 27 4 27 8 0 34 -34 34 -43 0 -9 -2 -9
-8 0 -5 8 -11 3 -19 -13 -9 -20 -8 -24 4 -24 8 0 11 5 8 10 -3 6 -2 10 2 10
15 0 33 -58 19 -64 -8 -3 -7 -5 1 -5 7 -1 17 8 23 19 9 16 8 20 -5 20 -8 0
-15 5 -15 10 0 19 27 10 39 -12 8 -17 21 -23 44 -23 18 1 35 -4 39 -10 4 -6
13 -2 22 10 9 11 16 15 16 8 0 -6 8 -10 18 -8 9 2 19 4 22 4 3 1 -2 6 -10 11
-8 5 -31 7 -50 5 -27 -4 -30 -3 -15 4 22 10 20 11 -47 15 -13 0 -23 7 -23 16
0 10 9 14 30 13 61 -4 96 -14 89 -25 -4 -7 -3 -8 4 -4 14 8 162 -35 162 -47 0
-5 -6 -7 -14 -4 -8 3 -19 0 -25 -7 -7 -8 -22 -11 -38 -8 -18 3 -24 1 -19 -7 4
-6 12 -8 18 -5 7 4 8 2 4 -4 -4 -7 -1 -12 9 -12 8 0 18 7 22 15 3 9 13 15 22
14 30 -3 42 1 36 11 -3 5 -1 10 4 10 6 0 11 -5 11 -11 0 -5 4 -8 9 -5 7 5 68
-11 80 -20 8 -7 -55 -53 -66 -49 -7 2 -13 0 -13 -5 0 -6 -5 -10 -12 -10 -19 0
32 49 56 53 20 3 20 4 -4 14 -19 8 -26 7 -28 -3 -2 -8 -10 -14 -18 -14 -8 0
-14 -6 -15 -12 0 -7 -4 -4 -9 7 -8 18 -9 17 -9 -7 -1 -15 -6 -30 -13 -34 -7
-5 -8 -2 -3 7 6 11 5 12 -5 2 -12 -11 -11 -15 6 -28 19 -15 19 -15 -1 -9 -16
5 -17 4 -5 -4 16 -12 33 -6 25 9 -4 5 9 8 27 8 18 -1 25 -3 16 -6 -16 -4 -16
-6 -4 -19 8 -8 19 -14 25 -14 6 0 11 -4 11 -10 0 -5 -4 -10 -9 -10 -6 0 -13 5
-16 10 -9 15 -28 12 -22 -4 4 -10 0 -12 -15 -8 -15 4 -19 2 -14 -7 9 -14 112
-9 127 6 11 11 -14 43 -46 61 -11 6 -14 12 -7 12 6 0 12 7 12 16 0 8 5 12 10
9 6 -4 8 -11 5 -16 -4 -5 1 -12 9 -15 9 -3 13 -11 9 -18 -4 -6 1 -5 10 3 10 8
20 11 24 7 3 -3 0 -6 -8 -6 -8 0 -4 -7 10 -16 19 -14 25 -14 31 -3 7 11 12 10
27 -3 10 -8 25 -18 33 -22 8 -3 2 -4 -13 -1 -22 4 -27 3 -21 -7 6 -10 3 -9 -9
1 -9 7 -17 10 -17 6 0 -5 -9 0 -20 10 -11 10 -23 15 -28 10 -4 -4 -1 -10 6
-12 7 -3 22 -15 33 -26 15 -17 23 -19 36 -11 13 8 25 5 50 -10 17 -12 32 -25
33 -29 0 -5 -4 -6 -9 -3 -4 3 -17 -1 -27 -9 -18 -13 -18 -14 6 -9 20 5 22 3
10 -5 -13 -9 -12 -11 5 -11 28 0 50 37 34 56 -10 12 -8 13 12 6 18 -7 32 -4
54 9 27 17 28 19 8 19 -12 0 -24 4 -27 9 -4 5 5 6 21 2 16 -4 27 -10 26 -14
-2 -4 -3 -11 -3 -17 0 -5 -9 -10 -19 -10 -11 0 -23 -5 -26 -10 -4 -6 -11 -7
-17 -4 -7 5 -8 2 -4 -5 5 -7 0 -18 -10 -26 -11 -8 -16 -15 -13 -15 3 0 20 11
39 25 18 14 35 23 37 21 2 -2 -2 -16 -8 -32 -6 -16 -13 -42 -16 -59 -3 -16
-11 -48 -18 -69 -8 -22 -11 -44 -8 -49 4 -6 1 -7 -6 -3 -8 5 -12 3 -10 -5 4
-30 -1 -70 -8 -66 -5 3 -9 -5 -10 -16 -4 -67 -11 -116 -17 -126 -4 -6 -2 -9 6
-6 8 3 15 18 16 32 1 15 9 31 18 36 11 6 12 12 5 21 -12 15 24 145 43 158 8 5
7 8 -2 8 -10 0 -10 5 -2 20 6 11 13 33 15 49 2 15 13 60 25 99 11 40 19 76 16
80 -7 12 -143 64 -171 66 -13 0 -22 3 -20 6 3 6 -38 24 -138 61 -32 11 -56 23
-53 26 5 5 69 -16 131 -42 17 -7 46 -20 66 -28 46 -19 121 -33 100 -18 -11 7
-15 34 -16 100 -1 76 -4 94 -22 113 -11 13 -23 36 -27 51 -10 43 -72 65 -192
67 -55 2 -106 0 -114 -3 -59 -21 -64 -17 -171 118 -42 53 -60 112 -39 125 7 4
10 12 6 18 -11 18 5 41 35 47 30 7 37 19 18 30 -6 4 -9 38 -6 90 2 46 1 87 -4
92 -4 4 -4 28 1 53 10 56 -15 121 -65 170 -32 31 -36 32 -125 34 -102 1 -93
-7 -105 94 -6 59 -58 238 -99 347 -24 63 -31 97 -38 190 -2 17 -7 33 -11 36
-5 4 -4 16 2 28 10 17 9 22 -4 27 -8 3 -15 11 -15 16 0 5 -10 18 -22 28 -17
14 -22 29 -23 64 0 41 -3 48 -27 58 -24 11 -25 13 -10 25 15 11 13 13 -15 23
-18 7 -35 20 -38 29 -6 18 -28 32 -80 47 -16 5 -30 16 -31 24 0 8 -4 28 -8 43
-7 22 -13 26 -28 21 -66 -21 -138 -6 -138 28 0 12 2 19 5 17 2 -3 26 15 53 40
l49 46 -34 11 c-19 7 -38 15 -41 19 -12 12 31 35 52 29 25 -8 174 -7 236 2 25
4 68 21 95 39 28 18 59 37 70 43 15 9 -131 11 -557 12 -372 0 -578 -4 -578
-10z m393 -107 c-13 -2 -35 -2 -50 0 -16 2 -5 4 22 4 28 0 40 -2 28 -4z m-96
-179 c3 -8 1 -25 -5 -37 -9 -21 -10 -21 -10 -2 0 11 -3 28 -7 38 -4 10 -3 17
4 17 7 0 14 -7 18 -16z m417 -646 c-5 -7 -2 -9 8 -5 10 3 30 -8 54 -29 21 -20
45 -33 54 -31 11 3 16 -2 16 -17 -1 -14 5 -21 17 -20 20 2 23 -12 5 -19 -7 -3
-2 -6 11 -6 24 -1 24 -1 5 -17 -10 -8 -14 -13 -7 -9 7 3 17 -4 23 -15 6 -11
17 -20 25 -20 7 0 17 -5 21 -12 4 -6 3 -8 -3 -5 -6 4 -13 1 -16 -6 -3 -8 5
-14 23 -15 15 -1 41 -9 57 -17 15 -8 34 -15 41 -15 6 0 12 -8 12 -17 0 -20
-28 -53 -47 -53 -7 0 -13 -4 -13 -8 0 -5 -10 -14 -23 -21 -33 -18 -56 -92 -52
-174 1 -37 8 -74 15 -82 6 -8 9 -18 6 -23 -6 -11 48 -165 69 -195 29 -42 12
-107 -29 -107 -8 0 -31 9 -51 20 -19 11 -36 19 -38 18 -1 -1 -28 4 -59 11 -44
11 -58 19 -58 32 0 11 10 21 25 25 14 3 25 13 25 21 0 10 -6 13 -16 9 -8 -3
-12 -2 -9 4 3 6 0 10 -8 10 -13 0 -36 -21 -51 -47 -8 -15 72 -106 85 -97 5 3
9 1 9 -3 0 -14 -38 -34 -45 -23 -4 6 -11 5 -19 -3 -8 -6 -12 -15 -9 -19 2 -4
-4 -5 -13 -1 -11 4 -22 -1 -32 -13 -12 -16 -14 -16 -9 -1 7 19 -1 21 -37 7
-21 -8 -26 -7 -26 6 0 14 -3 14 -15 4 -26 -22 -30 -1 -5 25 19 20 20 25 8 25
-9 0 -18 -6 -21 -12 -2 -7 -8 -10 -12 -6 -9 8 23 49 35 45 9 -3 93 73 87 79
-3 3 -23 -12 -46 -34 -23 -21 -41 -36 -41 -33 0 3 -5 0 -12 -7 -15 -15 -31
-16 -22 0 4 6 -3 4 -16 -5 -22 -15 -25 -15 -51 3 -15 11 -32 20 -38 20 -10 0
-35 37 -36 53 0 5 -8 15 -18 22 -13 9 -17 20 -12 35 4 12 4 32 1 46 -5 19 -13
24 -36 24 -33 0 -46 17 -53 70 -5 45 20 92 48 88 23 -4 65 -62 65 -92 0 -18 6
-22 38 -23 20 -1 58 -3 83 -4 53 -3 144 36 144 61 0 8 11 20 24 25 22 10 23
12 9 25 -8 8 -13 23 -10 33 4 17 6 17 23 1 11 -9 19 -23 19 -30 0 -11 5 -11
25 -2 23 10 23 12 7 24 -13 11 -14 15 -4 22 9 6 11 18 6 35 -3 15 -2 27 3 27
4 0 14 9 21 20 10 17 8 21 -18 35 -17 9 -30 12 -30 9 0 -4 -8 0 -17 9 -19 16
-124 25 -155 12 -9 -3 -23 -8 -31 -9 -8 -1 -22 -8 -30 -14 -13 -11 -16 -10
-22 7 -3 12 -11 21 -17 21 -5 0 -8 -7 -4 -15 3 -8 1 -15 -4 -15 -16 0 -11 30
6 37 13 5 13 7 2 14 -9 6 -7 9 10 9 12 0 22 4 22 8 0 5 -13 7 -29 4 -26 -3
-28 -1 -24 20 4 22 1 24 -24 23 -40 -3 -84 -23 -82 -37 1 -7 0 -24 -1 -38 l-2
-25 -8 25 c-4 14 -8 19 -9 13 -1 -7 -8 -13 -16 -13 -12 0 -11 7 7 34 13 19 25
34 28 33 6 -2 10 8 10 26 0 19 -32 17 -47 -2 -6 -9 -9 -26 -6 -39 7 -28 -16
-60 -28 -40 -6 9 -9 5 -9 -12 -1 -25 -1 -25 -10 -2 -5 12 -14 22 -20 22 -17 0
-11 38 8 49 16 10 16 10 0 11 -10 0 -18 7 -18 16 0 9 5 12 13 8 8 -5 8 -2 -2
9 -12 15 -11 17 7 17 11 0 23 6 26 13 4 6 4 2 2 -10 -2 -14 2 -23 15 -26 11
-3 19 0 19 8 0 7 7 18 15 25 16 13 21 35 6 26 -11 -7 -8 21 4 31 4 4 5 2 1 -4
-9 -17 5 -16 38 1 28 14 66 11 66 -5 0 -5 -3 -8 -7 -8 -27 4 -34 -2 -18 -17
21 -21 29 -12 29 31 0 34 19 54 32 33 5 -7 2 -8 -6 -3 -9 5 -11 4 -6 -4 4 -6
12 -9 17 -5 5 3 7 9 4 14 -7 11 30 32 39 23 4 -4 9 3 13 15 3 12 10 22 15 22
5 0 6 5 3 10 -3 6 -1 10 4 10 6 0 11 -8 12 -17 0 -16 1 -16 8 1 7 17 23 25 58
28 7 1 14 7 17 15 3 7 8 13 11 13 4 0 3 -5 -1 -12z m-140 -66 c2 -4 -5 -9 -17
-9 -17 -2 -19 0 -7 7 18 12 18 12 24 2z m-194 -213 c0 -6 -4 -7 -10 -4 -5 3
-10 11 -10 16 0 6 5 7 10 4 6 -3 10 -11 10 -16z m60 -13 c0 -3 -4 -8 -10 -11
-5 -3 -10 -1 -10 4 0 6 5 11 10 11 6 0 10 -2 10 -4z m-160 -46 c0 -5 -5 -10
-11 -10 -5 0 -7 5 -4 10 3 6 8 10 11 10 2 0 4 -4 4 -10z m858 -48 c2 -7 -6
-12 -21 -12 -14 0 -34 -3 -44 -7 -16 -6 -16 -5 -3 8 28 29 60 34 68 11z m-506
-43 c41 -2 61 -7 72 -21 9 -10 11 -19 6 -19 -6 -1 -14 -3 -20 -4 -5 -1 -25 -4
-42 -5 -25 -2 -28 -4 -10 -7 36 -7 26 -19 -37 -42 -69 -25 -68 -25 -68 -6 0 8
18 21 41 29 23 8 34 15 25 15 -9 1 -36 -6 -59 -14 -24 -8 -45 -13 -48 -10 -3
3 1 5 8 5 9 0 7 5 -5 14 -16 12 -21 11 -34 -3 -9 -9 -13 -12 -8 -5 4 6 4 20 0
29 -5 13 -3 16 7 10 8 -5 11 -3 8 6 -8 24 24 40 67 34 22 -2 66 -5 97 -6z
m493 1 c3 -6 -2 -13 -12 -15 -10 -3 -39 -17 -65 -30 -54 -28 -62 -17 -19 26
30 29 83 40 96 19z m-122 -30 c-5 -21 -33 -49 -33 -33 0 9 29 53 35 53 2 0 1
-9 -2 -20z m112 -40 c1 -12 -6 -22 -19 -26 -19 -6 -19 -7 -1 -21 19 -13 18
-13 -5 -9 -14 2 -41 5 -59 5 -36 1 -33 15 4 24 11 2 8 3 -7 2 -16 -1 -28 3
-29 9 0 6 -3 5 -6 -1 -2 -7 -9 -13 -15 -13 -6 0 -6 6 2 15 7 8 17 12 22 9 5
-3 17 1 26 9 25 23 65 36 76 26 5 -5 10 -18 11 -29z m-455 -45 c0 -8 -5 -15
-11 -15 -8 0 -8 -5 1 -15 7 -8 10 -22 6 -30 -3 -10 1 -15 12 -16 13 0 13 -2
-4 -9 -30 -12 -83 -14 -127 -5 -36 7 -37 8 -20 25 10 9 25 15 33 13 11 -3 10
0 -2 9 -16 11 -14 15 25 35 50 26 87 30 87 8z m-581 -47 c19 -31 -20 -21 -62
16 l-38 34 44 -16 c25 -9 50 -24 56 -34z m636 32 c3 -5 1 -10 -4 -10 -6 0 -11
5 -11 10 0 6 2 10 4 10 3 0 8 -4 11 -10z m387 -28 c26 -5 54 -14 62 -22 19
-15 21 -57 3 -73 -20 -19 -35 -18 -30 3 4 15 1 18 -16 13 -13 -3 -21 -1 -21 8
0 7 -3 10 -6 6 -8 -8 -94 61 -94 75 0 6 12 8 28 5 15 -4 48 -10 74 -15z
m-1168 -27 c5 -22 4 -26 -4 -15 -5 8 -10 24 -10 34 0 26 6 18 14 -19z m104 -3
c2 -7 -3 -12 -10 -12 -8 0 -15 7 -15 15 0 18 19 15 25 -3z m-68 -25 c0 -18 -2
-19 -10 -7 -13 20 -13 43 0 35 6 -3 10 -16 10 -28z m85 3 c-3 -5 -12 -10 -18
-10 -7 0 -6 4 3 10 19 12 23 12 15 0z m-21 -77 c-3 -18 -1 -23 4 -15 5 7 21
20 35 27 27 14 27 14 27 -24 0 -20 5 -42 12 -49 9 -9 7 -12 -10 -12 -13 0 -25
7 -28 15 -4 8 -11 15 -16 15 -6 0 -7 -7 -4 -16 10 -27 -5 -37 -21 -14 -17 25
-34 86 -25 94 16 16 30 4 26 -21z m106 -60 c0 -1 -7 0 -15 3 -10 4 -15 19 -15
43 l1 36 14 -40 c8 -22 15 -41 15 -42z m967 41 c-5 -6 0 -14 29 -48 9 -10 7
-15 -8 -25 -11 -7 -17 -8 -14 -3 3 6 -5 19 -19 30 -23 18 -24 22 -9 36 8 9 18
16 21 16 4 0 4 -3 0 -6z m43 -38 c0 -6 -7 -2 -15 8 -8 11 -15 25 -15 30 0 6 7
2 15 -8 8 -11 15 -25 15 -30z m-1020 -73 c0 -7 -3 -13 -8 -13 -15 0 -52 31
-47 40 7 11 55 -12 55 -27z m760 -99 c0 -2 -9 -4 -20 -4 -11 0 -20 4 -20 9 0
5 9 7 20 4 11 -3 20 -7 20 -9z m45 -64 c6 -2 17 0 27 4 9 4 29 6 45 4 l28 -3
-40 -21 c-29 -14 -59 -19 -105 -19 -126 1 -170 5 -170 15 0 5 6 7 13 4 7 -2
27 1 44 8 27 12 131 17 158 8z m86 -59 c-25 -19 -116 -35 -135 -24 -6 4 -34 6
-63 5 -29 -1 -55 3 -58 8 -3 6 0 11 7 11 15 2 210 15 248 17 l25 2 -24 -19z
m-363 -26 c-3 -3 -9 2 -12 12 -6 14 -5 15 5 6 7 -7 10 -15 7 -18z m47 5 c3 -5
11 -10 16 -10 6 0 7 5 3 11 -5 8 -1 8 14 0 37 -20 204 -28 267 -14 38 9 40 8
40 -14 0 -13 -6 -23 -13 -23 -7 0 -17 -11 -22 -25 -12 -31 -41 -38 -129 -33
-55 3 -75 9 -104 31 -20 15 -45 27 -56 27 -18 0 -16 -5 17 -38 52 -53 112 -87
123 -70 6 9 9 6 9 -11 0 -20 4 -23 28 -18 15 2 41 11 58 18 28 11 34 10 49 -4
10 -10 12 -17 5 -17 -7 0 -10 -7 -7 -14 4 -10 1 -13 -8 -10 -10 4 -12 0 -8
-16 4 -16 0 -23 -16 -27 -11 -3 -18 -10 -14 -16 4 -6 1 -7 -7 -2 -7 4 -16 2
-21 -6 -7 -11 -9 -11 -9 2 0 12 -7 15 -25 11 -21 -4 -38 -24 -17 -21 4 1 14 1
22 0 12 -1 11 -5 -4 -16 -23 -17 -40 -20 -31 -5 3 6 4 10 1 10 -2 0 -12 3 -22
7 -12 4 -15 3 -10 -5 4 -7 1 -12 -8 -12 -9 0 -15 6 -13 13 1 6 -8 12 -20 12
-35 1 -86 43 -80 67 4 14 2 18 -9 14 -9 -3 -14 1 -14 14 0 11 -4 20 -10 20 -5
0 -7 7 -4 15 4 9 0 15 -9 15 -13 0 -22 17 -25 44 0 5 -6 12 -12 16 -15 9 -21
61 -6 58 17 -3 56 12 56 23 0 12 17 12 25 -1z m610 -230 c3 -6 -1 -7 -9 -4
-18 7 -21 14 -7 14 6 0 13 -4 16 -10z m120 -33 c34 1 36 -1 17 -8 -27 -10 -99
-1 -109 14 -4 6 4 7 23 1 16 -4 47 -8 69 -7z m55 -17 c-13 -8 -12 -10 4 -10
11 0 17 -3 13 -6 -3 -3 -15 -3 -28 1 -17 6 -19 9 -8 16 8 5 19 9 24 9 6 0 3
-5 -5 -10z m-88 -8 c10 -4 14 -12 10 -18 -5 -8 -13 -5 -26 7 -20 19 -14 23 16
11z m158 -17 c0 -3 -8 -5 -18 -5 -10 0 -19 7 -19 14 0 11 5 13 19 5 10 -5 18
-12 18 -14z m30 -5 c0 -5 -5 -10 -11 -10 -5 0 -7 5 -4 10 3 6 8 10 11 10 2 0
4 -4 4 -10z m53 -16 c9 -4 17 -10 17 -14 0 -5 -13 -3 -30 3 -16 6 -30 15 -30
20 0 5 6 6 13 3 6 -3 20 -9 30 -12z m57 -24 c0 -5 -7 -7 -15 -4 -8 4 -15 8
-15 10 0 2 7 4 15 4 8 0 15 -4 15 -10z m45 -18 c-3 -3 -11 0 -18 7 -9 10 -8
11 6 5 10 -3 15 -9 12 -12z m105 -98 c0 -8 -4 -12 -10 -9 -5 3 -10 10 -10 16
0 5 5 9 10 9 6 0 10 -7 10 -16z m-1339 -23 c17 -1 45 -51 28 -51 -5 0 -12 7
-15 15 -4 8 -10 13 -14 10 -4 -3 -11 2 -14 11 -3 8 -10 13 -15 9 -5 -3 -12 -1
-15 4 -4 5 2 8 11 6 10 -2 25 -4 34 -4z m1430 -5 c5 3 9 0 9 -6 0 -7 -7 -9
-16 -6 -9 3 -21 6 -27 6 -7 0 -6 4 3 10 10 6 16 6 18 0 2 -6 8 -8 13 -4z m80
0 c5 3 9 0 9 -6 0 -15 -23 -7 -26 8 -1 7 0 8 3 2 2 -5 9 -8 14 -4z m-1558 -29
c-3 -4 1 -7 8 -6 8 1 27 -3 42 -9 16 -7 36 -12 45 -12 11 0 13 -3 6 -10 -19
-19 -134 34 -134 62 0 4 9 3 19 -4 11 -7 17 -16 14 -21z m1524 19 c0 -8 -6
-12 -14 -9 -7 3 -10 9 -7 14 8 14 21 11 21 -5z m73 -15 c0 -5 -7 -12 -16 -15
-14 -5 -15 -4 -4 9 14 17 20 19 20 6z m-40 -45 c0 -2 -9 -2 -20 1 -11 3 -20 9
-20 15 0 5 9 4 20 -2 11 -6 20 -12 20 -14z m45 -6 c3 -6 -1 -7 -9 -4 -18 7
-21 14 -7 14 6 0 13 -4 16 -10z m-1538 -54 c4 -5 -2 -6 -15 -3 -12 3 -20 1
-17 -3 3 -5 1 -11 -5 -15 -5 -3 -10 2 -10 11 0 14 -3 15 -12 6 -15 -15 -28
-15 -28 -1 0 5 4 8 9 4 5 -3 13 -1 16 5 7 12 50 9 62 -4z m-178 -24 c7 -13 6
-19 -2 -19 -7 0 -13 9 -13 19 0 10 1 18 3 18 1 0 7 -8 12 -18z"/>
<path d="M1873 3065 c0 -8 4 -12 9 -9 5 3 6 10 3 15 -9 13 -12 11 -12 -6z"/>
<path d="M1901 3051 c-9 -6 -10 -11 -2 -15 6 -4 11 -2 11 4 0 6 5 8 10 5 6 -3
10 -1 10 4 0 13 -10 14 -29 2z"/>
<path d="M1600 2880 c-14 -10 -21 -22 -17 -26 4 -4 7 -2 7 4 0 7 5 12 10 12 7
0 6 -8 -1 -22 -11 -21 -11 -22 5 -9 9 8 15 20 12 27 -3 8 3 18 12 23 9 6 13
10 7 10 -5 1 -21 -8 -35 -19z"/>
<path d="M1635 2860 c-3 -5 -1 -10 4 -10 6 0 11 5 11 10 0 6 -2 10 -4 10 -3 0
-8 -4 -11 -10z"/>
<path d="M1696 2821 c-11 -4 -15 -10 -10 -13 5 -4 18 0 29 8 20 15 12 17 -19
5z"/>
<path d="M1555 2539 c-4 -6 -4 -13 -1 -16 3 -4 6 -1 6 6 0 7 5 9 12 5 7 -4 8
-3 4 4 -9 15 -13 15 -21 1z"/>
<path d="M1960 2516 c0 -9 5 -16 10 -16 6 0 10 4 10 9 0 6 -4 13 -10 16 -5 3
-10 -1 -10 -9z"/>
<path d="M1940 2490 c0 -5 7 -10 16 -10 8 0 12 5 9 10 -3 6 -10 10 -16 10 -5
0 -9 -4 -9 -10z"/>
<path d="M1991 2474 c0 -11 3 -14 6 -6 3 7 2 16 -1 19 -3 4 -6 -2 -5 -13z"/>
<path d="M1966 2455 c-3 -8 -1 -15 4 -15 6 0 10 7 10 15 0 8 -2 15 -4 15 -2 0
-6 -7 -10 -15z"/>
<path d="M2030 2293 c0 -18 2 -33 4 -33 9 0 13 39 5 51 -6 10 -9 4 -9 -18z"/>
<path d="M1640 2650 c0 -5 7 -7 15 -4 8 4 15 8 15 10 0 2 -7 4 -15 4 -8 0 -15
-4 -15 -10z"/>
<path d="M1768 2493 c6 -2 18 -2 25 0 6 3 1 5 -13 5 -14 0 -19 -2 -12 -5z"/>
<path d="M1853 1985 c0 -8 7 -15 15 -15 12 0 12 3 2 15 -7 8 -13 15 -15 15 -1
0 -2 -7 -2 -15z"/>
<path d="M1925 1740 c3 -5 8 -10 11 -10 2 0 4 5 4 10 0 6 -5 10 -11 10 -5 0
-7 -4 -4 -10z"/>
<path d="M4240 3913 c0 -27 5 -55 10 -63 7 -11 10 3 10 48 0 35 -4 62 -10 62
-5 0 -10 -21 -10 -47z"/>
<path d="M310 3920 c0 -5 15 -12 33 -15 179 -30 248 -32 267 -10 10 12 8 16
-15 25 -34 13 -285 13 -285 0z"/>
<path d="M1040 3885 c-121 -43 -127 -46 -110 -55 18 -10 191 -30 202 -24 13 8
9 79 -4 92 -15 15 -9 15 -88 -13z"/>
<path d="M1940 3890 c0 -5 5 -10 10 -10 6 0 10 5 10 10 0 6 -4 10 -10 10 -5 0
-10 -4 -10 -10z"/>
<path d="M5122 3769 c-104 -13 -173 -40 -307 -120 -77 -46 -132 -96 -187 -170
-23 -31 -44 -96 -63 -194 -5 -28 18 -298 31 -356 6 -25 3 -27 -48 -39 -29 -7
-59 -17 -65 -23 -20 -15 -15 -52 8 -73 12 -10 30 -37 39 -60 12 -27 28 -45 48
-53 27 -11 30 -17 36 -74 9 -95 21 -142 66 -267 24 -63 45 -127 47 -142 3 -16
9 -28 13 -28 4 0 13 -13 20 -30 7 -16 16 -30 21 -30 5 0 20 -22 33 -48 l25
-49 -60 -78 c-32 -43 -59 -82 -59 -86 0 -7 -105 -74 -150 -96 -14 -7 -62 -22
-107 -34 -45 -11 -105 -35 -133 -52 -28 -18 -109 -69 -180 -115 -71 -46 -133
-84 -137 -85 -4 -1 -18 -12 -32 -24 -13 -13 -31 -23 -39 -23 -9 0 -24 -8 -35
-17 -15 -13 -19 -14 -13 -3 4 8 1 7 -7 -3 -10 -12 -17 -14 -22 -8 -10 18 -23
12 -18 -8 5 -18 -20 -36 -37 -26 -4 2 -15 -4 -25 -15 -20 -23 -45 -16 -40 11
2 11 0 17 -5 14 -4 -3 -11 1 -13 7 -3 7 -4 0 -4 -17 2 -26 -2 -30 -23 -30 -35
-1 -54 -14 -41 -29 8 -9 7 -13 -3 -13 -7 0 -13 10 -12 21 1 16 -5 21 -24 20
-14 0 -24 -5 -22 -12 2 -10 -3 -10 -19 -1 -12 6 -19 7 -15 1 7 -12 -18 -34
-29 -24 -5 4 -5 1 -1 -5 9 -16 11 -16 30 3 9 8 16 11 16 5 0 -6 7 -11 16 -11
8 0 13 -4 10 -9 -4 -5 -3 -11 1 -14 5 -2 3 -3 -4 -1 -24 6 -22 -10 5 -34 15
-13 21 -21 15 -18 -7 4 -13 1 -14 -6 -3 -58 -14 -67 -29 -24 -6 20 -16 33 -22
30 -6 -4 -6 -10 1 -17 13 -13 15 -40 2 -32 -5 3 -13 -5 -17 -17 -8 -27 -5 -34
13 -30 17 4 16 -6 -1 -24 -13 -12 -16 -12 -24 2 -8 14 -10 14 -15 -5 -3 -11
-2 -20 2 -19 24 3 51 -4 51 -13 0 -6 -6 -9 -14 -6 -7 3 -20 -3 -29 -14 -14
-16 -14 -19 -2 -19 9 0 12 -6 9 -15 -4 -8 -9 -13 -13 -11 -7 5 -11 -17 -13
-71 0 -18 -7 -34 -14 -37 -8 -3 -14 -1 -14 4 0 6 -5 10 -10 10 -6 0 -3 -11 6
-25 11 -17 12 -25 5 -25 -7 0 -10 -4 -6 -9 3 -5 1 -12 -5 -16 -6 -4 -8 -11 -5
-16 4 -5 -2 -9 -12 -10 -10 0 -13 -3 -5 -6 6 -2 12 -9 12 -14 0 -6 -5 -7 -12
-3 -7 4 -8 3 -4 -4 4 -7 2 -12 -5 -12 -7 0 -10 -3 -6 -6 3 -4 1 -12 -6 -19 -7
-8 -21 -25 -32 -40 -11 -14 -32 -40 -48 -57 -15 -17 -25 -34 -21 -37 3 -3 11
2 18 12 14 18 32 24 21 7 -10 -16 11 -12 25 5 11 13 10 14 -4 9 -25 -10 -20 2
29 62 25 30 45 58 45 62 0 4 17 8 38 9 l37 2 -33 -14 c-43 -19 -58 -35 -56
-63 1 -17 -3 -22 -15 -17 -12 5 -13 3 -4 -5 15 -16 38 -1 38 24 0 13 10 22 28
27 23 6 26 5 17 -6 -6 -8 -18 -11 -26 -8 -8 3 -14 -1 -14 -11 0 -9 4 -16 10
-16 5 0 7 -7 4 -15 -4 -9 0 -15 10 -15 9 0 16 5 16 11 0 5 5 7 11 3 8 -5 8 -8
0 -14 -7 -4 -11 -13 -9 -21 2 -8 -3 -13 -10 -11 -8 1 -11 -2 -8 -7 4 -5 0 -12
-6 -15 -7 -4 -2 -4 12 -2 24 5 24 4 6 -9 -11 -8 -14 -15 -7 -15 7 0 9 -5 5
-12 -4 -7 -3 -8 4 -4 7 4 12 2 12 -4 0 -6 5 -8 10 -5 6 3 10 2 10 -4 0 -6 -9
-15 -21 -21 -11 -7 -18 -14 -15 -17 3 -4 -3 -13 -15 -21 -20 -14 -20 -15 -2
-34 18 -20 17 -20 -3 -14 -13 4 -26 1 -33 -8 -10 -12 -7 -14 18 -10 25 4 30 2
28 -15 -1 -12 -8 -21 -17 -22 -10 0 -9 -3 5 -9 11 -5 14 -9 7 -9 -8 -1 -10 -6
-6 -13 5 -8 0 -7 -11 2 -11 9 -16 10 -11 3 5 -9 0 -13 -13 -13 -12 0 -21 -5
-21 -11 0 -5 -5 -7 -10 -4 -5 3 -10 2 -10 -4 0 -6 -6 -8 -13 -5 -8 3 -19 -2
-26 -10 -11 -13 -14 -22 -20 -56 -1 -3 -6 2 -11 10 -6 10 -10 11 -10 3 0 -7
-6 -12 -12 -10 -7 1 -12 -5 -10 -14 3 -18 -73 -64 -90 -53 -8 5 -9 0 -6 -14 5
-19 3 -20 -12 -12 -24 13 -30 13 -30 0 0 -5 8 -10 18 -10 14 0 15 -2 2 -10
-13 -8 -13 -10 -1 -10 8 0 26 10 39 23 14 12 22 16 18 10 -12 -21 8 -15 24 7
8 11 20 20 26 20 10 0 28 28 24 39 -1 4 33 25 68 40 12 6 22 17 22 26 0 9 9
15 23 15 13 0 28 5 34 11 8 8 17 8 29 1 16 -9 12 -12 -29 -23 -32 -8 -44 -15
-36 -20 8 -4 16 -3 20 3 4 6 14 8 23 5 9 -4 16 -3 16 2 0 4 7 8 15 8 20 0 19
-14 -2 -27 -17 -9 -17 -11 1 -21 15 -9 16 -13 5 -20 -8 -5 -24 -9 -35 -9 -12
0 -28 -8 -35 -17 -11 -15 -11 -16 1 -6 17 16 40 17 40 3 0 -6 -9 -20 -20 -32
-11 -12 -20 -25 -20 -30 0 -11 18 -10 25 2 4 6 11 8 16 5 5 -3 6 0 3 8 -7 20
23 44 38 29 9 -9 9 -12 1 -12 -7 0 -14 -8 -18 -19 -3 -10 -20 -23 -38 -29
l-32 -10 40 -3 c22 -1 46 -2 53 -2 6 1 12 -6 12 -14 0 -12 -7 -14 -30 -9 -21
4 -30 2 -30 -7 0 -7 10 -13 23 -13 12 1 22 -3 22 -9 0 -5 -6 -9 -12 -9 -7 1
-13 -2 -13 -7 0 -5 7 -9 15 -9 8 0 15 -4 15 -10 0 -6 101 -10 282 -10 l283 0
-28 25 c-27 26 -38 47 -14 27 23 -18 79 -25 89 -11 8 11 9 10 4 -3 -3 -11 0
-18 7 -18 8 0 7 -3 -2 -9 -9 -6 223 -10 593 -11 l607 -1 -16 30 c-23 46 -18
50 10 8 33 -48 54 -48 23 1 -86 139 -178 335 -164 349 2 2 7 -6 11 -19 11 -37
78 -179 82 -174 3 2 -3 18 -11 35 -29 55 -16 47 15 -9 16 -30 28 -45 25 -33
-2 13 -1 25 3 27 4 3 8 -16 10 -41 2 -43 59 -178 61 -143 0 8 -9 32 -20 52
-13 24 -17 47 -14 70 4 24 -2 50 -20 90 -15 33 -25 72 -24 89 1 18 -2 34 -8
36 -6 2 -8 18 -6 35 3 21 1 29 -7 24 -6 -4 -9 -2 -5 7 3 8 -2 20 -10 27 -9 7
-13 16 -10 21 3 5 0 9 -5 9 -6 0 -11 11 -11 25 0 14 4 25 8 25 5 0 -1 38 -14
85 -12 47 -19 85 -16 85 4 0 2 4 -4 8 -15 9 -28 68 -17 75 10 6 -1 162 -16
229 -12 55 -60 153 -107 219 -19 25 -31 49 -27 53 3 3 2 6 -4 6 -5 0 -15 12
-21 26 -7 14 -8 23 -3 19 6 -3 9 3 8 13 -1 14 -7 18 -22 15 -16 -4 -17 -3 -5
6 10 7 11 11 3 11 -12 0 -11 5 3 48 4 12 13 -3 30 -48 14 -36 43 -101 65 -144
47 -93 99 -214 97 -224 -1 -4 6 -34 15 -67 28 -97 34 -124 63 -252 15 -68 31
-123 36 -123 5 0 6 -4 3 -10 -5 -8 15 -13 41 -9 4 0 10 -5 15 -12 4 -8 11 -10
15 -6 4 4 2 13 -4 19 -20 20 -14 26 29 30 35 3 38 2 23 -9 -10 -7 -13 -13 -8
-13 6 0 11 -7 11 -15 0 -8 -7 -15 -14 -15 -8 0 -11 5 -8 10 3 6 2 10 -2 10 -5
0 -14 -9 -20 -19 -12 -18 -10 -20 17 -16 16 2 33 -1 36 -7 4 -7 2 -8 -4 -4 -7
4 -12 1 -12 -8 0 -10 7 -13 25 -10 16 3 25 0 25 -8 0 -9 3 -9 9 2 12 17 4 33
-11 24 -7 -5 -8 -2 -3 5 5 9 10 10 18 2 14 -14 47 -14 47 -1 0 6 9 10 21 10
11 0 17 -5 14 -10 -4 -6 -11 -8 -16 -5 -5 4 -9 1 -9 -6 0 -6 8 -9 20 -6 13 3
18 1 13 -6 -4 -7 0 -8 12 -3 15 5 16 4 6 -8 -8 -10 -9 -15 -1 -18 7 -2 8 -11
4 -22 -7 -18 -8 -18 -21 0 -12 17 -13 16 -13 -5 0 -20 -2 -21 -15 -11 -15 12
-20 4 -16 -22 0 -5 -6 -8 -15 -8 -12 0 -14 3 -6 13 6 7 7 18 2 26 -6 11 -12 7
-25 -15 -9 -16 -14 -21 -11 -11 3 9 1 17 -4 17 -6 0 -10 7 -10 16 0 14 3 14
15 4 12 -10 15 -10 15 4 0 9 -7 16 -15 16 -24 0 -30 -4 -28 -20 1 -9 -5 -6
-14 8 -16 23 -43 30 -43 11 0 -6 7 -9 15 -5 8 3 15 1 15 -4 0 -5 6 -15 14 -23
13 -13 9 -15 -31 -21 -26 -3 -49 -4 -51 -1 -3 3 4 5 16 5 12 0 22 5 22 11 0 5
-4 8 -9 5 -5 -4 -11 0 -14 6 -3 10 -8 10 -16 2 -18 -16 -3 -84 18 -85 10 0 11
-2 4 -6 -18 -7 -16 -34 4 -62 9 -14 11 -21 5 -17 -8 4 -8 -3 -1 -26 6 -18 12
-46 15 -63 3 -16 12 -65 21 -108 l16 -77 485 2 486 3 -1 113 c0 61 4 112 9
112 4 0 8 -19 7 -42 -1 -24 5 -67 14 -95 9 -29 14 -53 11 -53 -3 0 0 -9 6 -20
10 -19 20 -21 115 -19 l103 1 -23 52 c-21 48 -49 106 -148 316 -20 41 -37 82
-39 90 -2 8 -13 26 -26 40 -12 13 -27 41 -34 60 -6 19 -20 48 -31 65 -10 16
-16 21 -12 10 4 -11 14 -40 23 -65 8 -25 26 -58 39 -73 25 -31 23 -49 -5 -41
-15 5 -15 4 1 -6 9 -6 15 -16 11 -21 -7 -11 13 -39 29 -39 5 0 2 10 -9 21 -14
16 -15 21 -4 17 20 -6 99 -158 92 -177 -3 -8 -1 -12 5 -8 13 8 26 -20 16 -35
-3 -7 -1 -8 5 -4 7 4 13 0 14 -11 0 -10 2 -22 3 -28 2 -5 3 -19 4 -30 1 -14 4
-16 9 -7 6 8 14 1 26 -24 9 -20 15 -38 13 -41 -2 -2 -10 10 -17 26 -6 16 -17
28 -24 25 -7 -3 -27 31 -51 83 -21 49 -47 102 -57 118 l-18 30 6 -35 c6 -33 5
-34 -9 -15 -8 11 -18 30 -22 43 -5 16 -12 22 -23 17 -9 -3 -13 -3 -10 1 4 4 2
16 -4 28 -7 11 -12 31 -12 43 -1 12 -4 25 -8 29 -4 4 -2 14 5 22 8 10 8 13 1
9 -7 -4 -15 0 -18 9 -4 10 -2 13 7 8 8 -6 8 -3 -1 9 -8 9 -11 21 -7 27 3 5 1
10 -4 10 -6 0 -11 8 -11 18 -1 9 -7 31 -16 47 l-14 30 5 -35 c3 -19 8 -71 10
-115 l4 -80 -12 58 c-7 33 -15 56 -18 53 -3 -3 -5 4 -4 16 1 12 -4 34 -12 48
-7 14 -14 34 -14 45 -1 11 -5 -2 -9 -30 -4 -28 -3 -55 2 -62 10 -13 2 -53 -11
-53 -21 0 -34 36 -39 103 -2 39 -9 78 -14 85 -8 9 -5 12 8 13 11 0 14 3 7 6
-7 2 -13 9 -13 14 0 6 5 7 10 4 6 -3 10 1 10 10 0 9 -6 15 -12 14 -26 -3 -39
1 -33 11 3 6 2 10 -4 10 -16 0 -41 44 -45 78 -3 17 -11 45 -19 64 -8 18 -30
71 -47 118 -57 152 -136 317 -143 298 -2 -7 -9 5 -16 28 -6 22 -20 49 -31 59
-20 18 -27 45 -11 45 5 0 14 -7 21 -15 7 -8 16 -12 21 -9 11 6 12 35 2 32 -5
-1 -20 5 -34 15 -21 14 -25 24 -24 52 2 19 -1 35 -6 35 -5 0 -15 12 -21 28 -6
15 -48 101 -92 192 -44 91 -83 174 -87 185 -5 14 -7 7 -8 -22 -1 -56 23 -181
48 -240 32 -78 33 -117 6 -157 -13 -20 -21 -35 -17 -34 4 1 17 -3 30 -10 12
-7 27 -10 32 -7 21 13 14 -43 -8 -69 -17 -19 -16 -19 8 -3 31 22 37 21 50 -2
11 -21 3 -54 -11 -45 -5 3 -9 1 -9 -5 0 -5 5 -11 11 -13 5 -2 7 -11 3 -21 -4
-11 -13 -16 -22 -12 -12 4 -13 3 -2 -10 10 -12 16 -13 27 -4 19 17 29 3 12
-17 -12 -15 -12 -16 7 -10 16 5 20 2 19 -12 -1 -25 -15 -43 -26 -37 -5 3 -19
-3 -31 -14 -12 -12 -17 -21 -10 -21 6 0 13 4 17 10 3 5 12 7 21 3 11 -4 12 -9
3 -19 -6 -8 -8 -14 -3 -14 4 0 0 -6 -11 -13 -11 -9 -14 -16 -7 -21 6 -3 13 -2
17 4 10 16 22 12 28 -11 5 -18 9 -19 27 -9 12 6 24 9 27 6 7 -7 -7 -27 -16
-22 -4 3 -13 1 -21 -4 -9 -5 -20 -4 -28 3 -11 9 -17 8 -26 -4 -11 -16 -72 -37
-63 -21 3 4 -3 9 -14 9 -17 2 -18 0 -4 -14 9 -8 13 -18 10 -21 -3 -4 -9 -1
-13 5 -14 23 -82 15 -82 -10 0 -8 -4 -7 -12 1 -10 10 -10 15 -1 20 14 9 4 26
-17 30 -12 3 -12 1 -3 -9 6 -6 9 -18 6 -25 -6 -16 -33 -19 -33 -4 0 6 5 10 11
10 5 0 7 5 4 10 -4 6 -11 8 -16 5 -5 -4 -9 -2 -9 3 0 11 27 25 50 27 8 0 14 6
13 13 -2 6 9 15 24 18 24 7 25 8 8 14 -11 4 -20 16 -20 26 0 10 -6 19 -12 19
-7 0 -13 3 -13 8 0 4 0 9 0 12 0 2 11 0 25 -5 14 -5 24 -6 22 -2 -2 8 7 12 30
12 15 0 14 -2 -3 -14 -34 -25 -10 -25 26 0 l34 24 -37 0 c-26 0 -37 4 -37 15
0 8 -12 20 -26 28 l-26 13 44 14 c24 8 46 13 51 12 11 -3 9 16 -3 23 -5 3 -10
1 -10 -4 0 -6 -3 -10 -7 -9 -30 8 -99 -38 -84 -56 6 -7 2 -11 -15 -11 -13 0
-24 5 -24 10 0 6 -4 4 -9 -3 -4 -8 -11 -13 -15 -12 -19 5 -94 -14 -111 -29
-18 -15 -19 -15 -6 1 7 9 9 23 5 29 -4 8 -3 9 4 5 7 -4 12 -3 12 3 0 5 8 9 18
9 20 -2 150 40 156 51 3 4 -6 7 -19 7 -13 0 -21 -4 -18 -9 3 -4 -1 -7 -8 -6
-8 2 -25 -3 -37 -10 -13 -7 -26 -10 -29 -7 -3 3 -13 1 -23 -4 -23 -12 -66 31
-56 57 6 14 5 16 -5 6 -18 -18 -34 -16 -20 1 17 20 6 24 -79 25 -82 1 -140 9
-138 20 1 3 -6 23 -15 43 -22 50 -22 72 1 64 14 -5 14 -4 -2 9 -16 12 -16 15
-4 15 8 0 23 -9 33 -20 10 -11 22 -17 26 -14 5 3 9 1 9 -4 0 -10 41 -24 48
-17 3 2 -3 16 -12 29 -20 32 -21 65 -1 72 8 4 15 17 15 31 0 14 4 21 10 18 10
-6 27 50 21 70 -1 6 -3 33 -2 60 0 39 -5 57 -22 75 -30 33 -64 52 -72 40 -11
-18 -23 -11 -18 10 3 11 8 20 12 20 4 0 7 9 7 19 0 11 -5 17 -10 14 -5 -4 -7
1 -3 11 4 11 3 15 -4 10 -6 -3 -8 -17 -4 -32 5 -22 4 -24 -9 -13 -9 8 -16 21
-17 30 0 12 -2 11 -9 -4 -8 -18 -9 -17 -9 7 -1 20 3 26 14 22 9 -4 30 10 55
36 38 40 42 41 47 21 3 -11 9 -21 15 -21 5 0 3 10 -4 21 -33 55 -38 66 -38 94
-1 26 -2 28 -13 14 -7 -9 -20 -15 -30 -13 -10 1 -21 -5 -24 -13 -5 -14 -8 -13
-20 3 -7 10 -13 12 -13 6 0 -7 -9 -12 -20 -12 -17 0 -19 4 -14 27 7 25 5 26
-23 20 -29 -6 -30 -5 -30 31 -1 29 1 32 6 13 l7 -24 18 29 c39 58 106 109 114
85 2 -6 14 -8 27 -5 12 3 26 1 30 -5 3 -6 11 -9 16 -6 5 4 4 -5 -2 -19 -11
-23 -9 -29 20 -58 l33 -33 -22 38 c-22 36 -17 49 9 25 11 -10 13 -10 7 0 -4 7
-1 12 7 12 20 0 39 108 27 150 -9 30 -160 241 -160 224 0 -5 -4 -4 -8 3 -5 8
-15 8 -40 -2 -42 -18 -49 -38 -23 -71 13 -17 19 -34 15 -46 -5 -17 -3 -18 14
-9 31 17 40 14 58 -20 8 -17 11 -28 5 -25 -10 6 -15 -6 -12 -26 0 -4 -6 -5
-15 -1 -13 5 -13 7 -2 14 19 13 0 11 -24 -2 -25 -13 -86 -24 -75 -13 4 4 0 16
-9 26 -16 16 -15 18 7 26 l23 9 -27 7 c-28 7 -89 -13 -101 -33 -10 -15 -46
-14 -50 2 -2 6 -9 30 -16 52 -12 35 -13 73 -6 125 1 8 8 29 15 45 7 17 11 48
8 70 -3 28 1 45 11 55 17 15 12 20 71 -66 27 -39 33 -42 93 -49 78 -10 108 -8
178 11 75 21 91 35 97 86 3 29 13 50 30 64 19 16 23 26 17 48 -7 30 -37 46
-90 48 -27 1 -32 4 -23 15 9 10 8 13 0 13 -7 0 -10 4 -7 8 6 10 6 10 -110 15
-69 3 -98 9 -118 23 -29 22 -31 29 -12 63 8 14 12 31 9 38 -3 7 2 13 10 13 11
0 13 6 9 22 -3 13 -1 19 5 15 6 -4 14 0 17 9 3 8 2 12 -4 9 -6 -3 -10 3 -10
14 0 12 -4 21 -8 21 -5 0 -9 7 -9 15 0 8 4 12 8 9 4 -2 7 8 7 23 -1 52 2 63
17 63 8 0 22 11 31 25 13 20 25 25 55 25 53 0 50 18 -3 23 -30 2 -22 4 26 5
63 2 68 3 50 16 -13 10 -23 11 -32 4 -10 -8 -11 -6 -6 8 6 16 5 17 -7 7 -15
-15 -43 -18 -34 -4 10 17 67 24 76 10 7 -11 9 -11 9 -1 0 8 5 10 12 6 7 -4 2
7 -11 24 -20 29 -41 46 -26 22 9 -15 -8 -12 -31 5 -10 8 -28 15 -39 15 -12 1
-15 4 -7 7 10 4 10 8 0 21 -11 14 -9 14 8 0 11 -10 28 -18 38 -18 9 0 15 -4
12 -9 -4 -5 3 -7 14 -4 22 6 18 23 -6 23 -8 0 -14 5 -14 11 0 5 4 8 9 4 5 -3
49 -14 98 -24 48 -10 103 -23 120 -29 24 -8 35 -7 39 1 4 7 4 9 -1 5 -4 -4
-14 -1 -22 7 -8 8 -23 15 -34 15 -10 0 -19 4 -19 9 0 4 -11 6 -25 3 -14 -2
-46 -1 -72 3 -39 6 -44 9 -29 17 13 7 30 7 57 -2 22 -7 42 -10 46 -7 3 4 -1 7
-10 7 -10 0 -25 4 -35 9 -9 6 -30 13 -46 16 -21 4 -26 9 -17 14 11 7 11 9 0
13 -7 2 -9 10 -5 16 10 17 66 15 85 -2 11 -10 21 -12 31 -6 13 8 12 10 -2 10
-10 0 -18 5 -18 11 0 5 -4 8 -8 5 -10 -6 -94 33 -104 48 -12 18 -1 18 24 2 24
-16 38 -13 38 8 0 7 -3 7 -8 -1 -5 -8 -14 -6 -31 8 -13 10 -18 19 -13 19 6 0
14 -5 17 -11 4 -6 14 -8 22 -5 16 6 100 -33 153 -73 27 -19 31 -21 17 -5 -9
11 -15 24 -12 27 3 4 2 5 -1 2 -4 -2 -18 4 -32 15 -13 11 -29 17 -35 13 -5 -3
-7 -2 -4 4 8 13 -40 37 -81 39 -18 0 -40 9 -50 18 -20 18 -73 19 -180 5z m41
-112 c28 -3 26 -4 -10 -5 -38 -2 -41 0 -35 21 5 17 7 18 10 5 2 -10 15 -18 35
-21z m145 13 c6 0 12 -4 12 -9 0 -12 -82 -12 -100 -1 -10 7 -4 8 20 4 28 -5
32 -3 20 6 -12 10 -10 11 10 6 14 -3 31 -6 38 -6z m-133 -69 c3 -5 2 -12 -3
-15 -5 -3 -9 1 -9 9 0 17 3 19 12 6z m125 5 c0 -8 -48 -12 -66 -5 -13 5 -7 8
24 8 23 1 42 -1 42 -3z m-189 -409 c-6 -8 -9 -16 -6 -19 3 -2 -2 -5 -10 -5
-13 0 -13 3 2 19 19 21 31 25 14 5z m262 -289 c9 -11 17 -32 17 -47 0 -25 -1
-25 -17 8 -11 21 -31 40 -57 52 l-41 19 40 -6 c22 -3 48 -15 58 -26z m-302
-44 c-8 -28 -7 -41 2 -52 9 -12 9 -16 -1 -19 -6 -3 -9 -10 -6 -15 4 -7 2 -8
-4 -4 -16 9 -15 -7 0 -22 8 -8 8 -12 1 -12 -16 0 -36 57 -37 103 -1 34 3 43
24 54 32 16 34 13 21 -33z m270 27 c13 -11 22 -22 19 -24 -3 -3 -18 6 -33 19
-33 28 -20 33 14 5z m-721 -17 c0 -11 -5 -14 -16 -10 -9 3 -21 6 -27 6 -16 0
14 20 31 20 6 0 12 -7 12 -16z m704 -5 c13 -12 5 -18 -32 -25 -30 -6 -32 -4
-32 20 0 24 3 26 28 20 15 -4 31 -10 36 -15z m50 -39 c31 -11 35 -49 8 -73
-37 -34 -110 -44 -77 -10 20 20 19 30 -5 38 -24 8 -27 25 -4 25 10 0 14 6 10
15 -6 18 28 20 68 5z m-741 -27 c2 -5 2 -32 -1 -60 -5 -61 -21 -68 -66 -30
-24 21 -27 29 -21 60 7 35 9 37 46 37 21 0 40 -3 42 -7z m467 -37 c0 -14 20
-22 75 -32 52 -10 43 -17 -14 -12 -37 4 -59 11 -68 24 -16 21 -17 34 -3 34 6
0 10 -6 10 -14z m166 -368 c-1 -37 -4 -42 -32 -52 -17 -6 -29 -16 -27 -23 6
-16 -63 -49 -117 -57 -9 -1 -20 -5 -26 -9 -18 -11 -115 2 -130 18 -16 15 -19
29 -5 20 5 -3 12 -1 16 4 3 5 22 10 43 9 20 0 53 7 72 16 19 9 25 13 13 10
-12 -2 -24 -1 -26 3 -3 4 8 9 24 10 15 1 31 -2 34 -7 4 -6 17 -10 30 -10 18 0
23 4 18 16 -5 13 -7 13 -14 2 -8 -12 -13 -4 -10 15 1 5 -16 6 -38 3 -42 -6
-65 8 -32 19 11 3 22 13 25 21 3 8 11 12 17 8 6 -3 34 -8 61 -10 35 -3 47 0
42 8 -4 7 8 1 26 -12 18 -13 30 -19 26 -12 -6 10 0 52 8 52 2 0 2 -19 2 -42z
m59 12 c3 -6 -1 -7 -9 -4 -18 7 -21 14 -7 14 6 0 13 -4 16 -10z m-159 -337 c2
-13 -1 -24 -6 -24 -19 -3 -25 -5 -50 -17 -22 -12 -23 -11 -7 1 17 15 24 33 8
23 -5 -3 -11 1 -14 9 -4 9 -1 12 7 9 7 -3 16 2 20 11 9 23 38 14 42 -12z m-25
-90 c-12 -20 -14 -14 -5 12 4 9 9 14 11 11 3 -2 0 -13 -6 -23z m-21 1 c0 -3
-6 -12 -14 -20 -11 -11 -16 -11 -19 -1 -3 6 -5 -8 -5 -33 1 -29 3 -36 6 -20
l5 25 6 -24 c6 -23 7 -23 21 -5 9 10 10 15 3 10 -18 -10 -16 9 2 24 13 11 15
8 15 -16 0 -22 3 -26 10 -14 5 8 10 11 10 7 0 -5 8 -1 18 9 16 16 17 16 20 1
2 -10 8 -14 14 -11 6 4 8 -1 6 -12 -1 -9 -15 -21 -30 -25 -34 -9 -199 -2 -210
9 -5 5 -5 19 0 31 8 21 10 22 24 7 15 -15 18 -14 37 12 12 15 18 19 15 10 -3
-10 -1 -18 4 -18 6 0 12 10 14 23 2 12 9 21 16 20 6 -2 12 2 12 7 0 6 5 10 10
10 6 0 10 -3 10 -6z m-89 -31 c-8 -15 -10 -15 -11 -2 0 17 10 32 18 25 2 -3
-1 -13 -7 -23z m734 -433 c3 -5 1 -10 -4 -10 -6 0 -11 5 -11 10 0 6 2 10 4 10
3 0 8 -4 11 -10z m-1415 -244 c0 -3 -4 -8 -10 -11 -5 -3 -10 -1 -10 4 0 6 5
11 10 11 6 0 10 -2 10 -4z m1146 -35 c-4 -5 -3 -11 1 -14 5 -2 3 -2 -4 -1 -7
2 -15 -1 -18 -6 -4 -6 -11 -10 -17 -10 -5 0 0 9 13 20 27 22 33 24 25 11z m99
-12 c-4 -5 -13 -9 -22 -9 -13 0 -13 3 -3 15 13 15 35 11 25 -6z m-1235 -3 c0
-2 -7 -7 -16 -10 -8 -3 -12 -2 -9 4 6 10 25 14 25 6z m670 -24 c0 -15 -2 -15
-10 -2 -13 20 -13 33 0 25 6 -3 10 -14 10 -23z m400 8 c0 -5 -7 -10 -16 -10
-8 0 -12 5 -9 10 3 6 10 10 16 10 5 0 9 -4 9 -10z m-1238 -45 c17 -35 24 -42
31 -30 4 8 5 20 2 25 -3 6 -2 10 3 10 15 0 45 -51 45 -77 0 -12 3 -24 8 -24 5
-1 15 -2 22 -3 6 -1 12 -11 11 -24 -1 -26 0 -27 20 -6 13 12 16 12 16 2 0 -8
-6 -20 -12 -27 -11 -10 -10 -11 5 -6 10 4 17 2 17 -4 0 -6 5 -11 11 -11 5 0 7
6 3 13 -4 6 -3 8 1 4 5 -4 10 -13 11 -20 4 -23 43 -92 44 -77 0 12 2 12 9 2
11 -18 23 85 15 126 -5 22 -10 29 -22 25 -8 -4 -13 -2 -9 3 3 6 2 16 -4 24 -7
12 -9 10 -9 -7 0 -13 -4 -23 -10 -23 -10 0 -14 18 -10 59 1 18 -2 22 -14 18
-10 -4 -13 -1 -10 8 9 21 35 28 32 7 -2 -9 3 -16 10 -15 6 2 12 -1 12 -5 0 -4
9 -8 19 -8 11 0 17 4 15 8 -3 4 -1 8 5 8 5 0 11 -3 14 -7 2 -5 3 -3 1 3 -1 6
2 17 6 25 5 8 4 19 -3 28 -9 11 -9 13 0 8 6 -4 14 -1 17 5 4 7 4 -1 2 -18 -3
-18 -2 -35 1 -38 4 -4 6 -27 6 -51 -1 -43 0 -45 28 -45 19 0 29 -5 29 -15 0
-9 6 -12 18 -8 9 3 14 3 10 -2 -4 -4 -3 -14 3 -22 8 -9 8 -13 1 -13 -6 0 -14
5 -17 10 -3 6 -12 10 -18 10 -7 0 6 -12 28 -25 22 -14 33 -25 25 -26 -10 0
-11 -2 -2 -6 6 -2 12 -13 12 -24 0 -10 5 -19 11 -19 6 0 8 -7 5 -16 -3 -8 -2
-12 4 -9 6 3 10 2 10 -2 0 -5 7 -18 15 -29 15 -19 15 -19 9 1 -4 15 -4 17 4 6
6 -8 8 -20 5 -28 -4 -9 0 -11 10 -7 11 4 16 0 16 -13 0 -31 7 -67 19 -89 6
-12 9 -24 7 -28 -3 -3 -2 -3 3 0 4 3 7 13 8 22 3 45 5 52 15 52 5 0 7 -4 4
-10 -3 -5 0 -20 7 -32 7 -13 11 -29 10 -35 -2 -7 1 -13 6 -13 5 0 8 -10 7 -23
-2 -15 5 -28 17 -36 11 -7 18 -9 15 -4 -3 5 -2 15 4 23 7 12 9 11 9 -5 0 -11
7 -29 15 -39 8 -11 15 -28 15 -38 0 -10 7 -18 16 -18 11 0 15 -6 11 -20 -5
-20 6 -33 31 -36 10 -2 11 1 1 12 -6 8 -9 17 -5 21 3 3 6 1 6 -6 0 -7 4 -10 9
-7 5 3 11 -3 14 -14 3 -10 0 -21 -7 -24 -6 -2 0 -5 14 -5 18 -1 21 -4 12 -10
-11 -7 -10 -9 3 -15 9 -3 13 -10 10 -16 -3 -5 0 -10 7 -10 19 0 35 -31 43 -84
7 -46 27 -68 52 -59 7 2 11 -4 10 -15 -1 -12 -8 -18 -21 -16 -12 1 -27 3 -34
3 -7 1 -11 5 -8 10 4 5 -4 7 -16 3 -16 -4 -19 -2 -13 8 5 8 4 11 -3 7 -15 -10
-44 4 -38 18 5 14 -11 14 -33 1 -9 -6 -12 -5 -8 1 8 13 -19 38 -56 52 -15 6
-27 14 -26 18 1 5 1 15 0 23 -1 12 -3 13 -10 1 -7 -11 -13 -10 -35 4 -14 10
-26 22 -26 27 0 5 -4 6 -10 3 -5 -3 -10 -2 -10 4 0 5 -12 23 -27 38 -21 22
-25 24 -20 8 7 -20 7 -20 -8 -1 -8 11 -15 26 -15 34 0 7 -4 10 -10 7 -5 -3
-10 1 -10 9 0 15 -12 21 -33 17 -5 -1 -6 3 -3 8 6 9 -21 26 -36 23 -4 -1 -4 6
-1 15 5 12 2 15 -11 10 -12 -5 -20 1 -28 18 -6 13 -16 22 -21 18 -6 -4 -8 0
-4 10 4 11 2 14 -8 11 -8 -3 -22 3 -32 13 -10 10 -16 17 -13 15 2 -1 10 17 17
40 14 49 17 85 3 53 -7 -16 -9 -17 -9 -3 -1 9 3 20 9 23 6 4 7 32 3 73 -3 37
-7 77 -7 89 -1 15 -4 19 -13 11 -7 -6 -10 -21 -7 -38 3 -15 1 -37 -5 -49 -9
-16 -9 -21 1 -22 10 0 10 -2 -1 -6 -10 -4 -10 -7 -1 -13 9 -6 9 -13 1 -28 -7
-14 -8 -23 -1 -27 5 -3 10 -12 10 -18 0 -7 -4 -6 -10 3 -8 12 -10 9 -10 -11 0
-14 -8 -41 -17 -59 l-16 -34 -19 43 c-9 23 -24 49 -32 57 -8 8 -18 23 -21 34
-4 11 -11 18 -16 15 -5 -4 -12 2 -16 12 -4 10 -14 25 -22 33 -18 17 -61 101
-61 119 0 6 -6 11 -12 12 -10 0 -10 2 0 6 17 7 15 43 -4 64 -8 9 -17 33 -18
53 -2 20 -11 45 -21 56 -10 11 -15 20 -10 20 4 0 2 7 -5 15 -9 11 -9 15 -1 15
6 0 21 -20 33 -45z m179 23 c11 -21 11 -22 -4 -9 -10 7 -17 17 -17 22 0 15 9
10 21 -13z m1233 10 c-3 -4 -11 -5 -19 -1 -21 7 -19 12 4 10 11 0 18 -5 15 -9z
m46 2 c0 -5 -8 -10 -17 -10 -15 0 -16 2 -3 10 19 12 20 12 20 0z m-1488 -97
c11 -24 24 -43 29 -43 12 0 11 -32 -2 -50 -9 -13 -10 -12 -5 3 3 10 -2 25 -12
35 -10 10 -25 42 -35 71 -19 59 -22 90 -5 51 6 -14 20 -44 30 -67z m289 54
c-16 -16 -26 0 -10 19 9 11 15 12 17 4 2 -6 -1 -17 -7 -23z m-400 6 c13 -16
12 -17 -3 -4 -10 7 -18 15 -18 17 0 8 8 3 21 -13z m1593 -4 c-8 -14 -24 -10
-24 6 0 9 6 12 15 9 8 -4 12 -10 9 -15z m-2010 -4 c-4 -8 -11 -15 -16 -15 -6
0 -5 6 2 15 7 8 14 15 16 15 2 0 1 -7 -2 -15z m1381 5 c3 -5 1 -10 -4 -10 -6
0 -11 5 -11 10 0 6 2 10 4 10 3 0 8 -4 11 -10z m865 -10 c-6 -11 -13 -20 -15
-20 -3 0 -5 9 -5 20 0 11 7 20 15 20 13 0 14 -4 5 -20z m-1792 -55 c-3 -3 -9
2 -12 12 -6 14 -5 15 5 6 7 -7 10 -15 7 -18z m1019 -92 c12 -38 24 -95 27
-128 5 -57 4 -55 -14 25 -10 47 -25 104 -34 128 -8 23 -12 42 -8 42 5 0 18
-30 29 -67z m-682 47 c3 -5 -1 -10 -10 -10 -9 0 -13 5 -10 10 3 6 8 10 10 10
2 0 7 -4 10 -10z m-281 -80 c5 -17 4 -20 -2 -10 -5 8 -13 26 -16 40 -5 17 -4
20 2 10 5 -8 13 -26 16 -40z m1636 -9 c0 -5 -7 -12 -16 -15 -14 -5 -15 -4 -4
9 14 17 20 19 20 6z m-166 -40 c-2 -3 -12 3 -22 13 -16 17 -16 18 5 5 12 -7
20 -15 17 -18z m-2070 -16 c-6 -16 -24 -21 -24 -7 0 11 11 22 21 22 5 0 6 -7
3 -15z m1996 11 c0 -11 -19 -15 -25 -6 -3 5 1 10 9 10 9 0 16 -2 16 -4z m200
-17 c0 -5 -7 -6 -15 -3 -19 8 -20 -10 -1 -25 10 -8 16 -9 21 -1 3 6 10 8 15 5
5 -3 11 -1 15 4 8 14 35 2 35 -16 0 -8 -4 -12 -9 -9 -5 3 -11 0 -14 -8 -3 -8
1 -17 9 -20 9 -3 12 -1 9 4 -3 6 -1 10 4 10 6 0 11 -7 11 -16 0 -10 -6 -14
-14 -11 -7 3 -19 0 -25 -6 -7 -7 -12 -7 -11 -2 5 23 -1 45 -11 45 -5 0 -7 -5
-3 -11 4 -8 -1 -7 -15 1 -18 9 -22 9 -19 -4 2 -8 -1 -16 -6 -18 -5 -2 -11 7
-13 20 -2 15 1 21 8 16 7 -4 10 -2 8 5 -7 21 -24 12 -25 -12 0 -13 -6 -21 -14
-19 -11 3 -11 0 -1 -12 12 -15 10 -18 -24 -29 -18 -7 -19 -6 -3 6 10 8 15 17
11 20 -3 4 -1 12 4 19 13 18 -7 54 -28 50 -9 -1 -16 3 -16 11 0 9 8 12 24 9
13 -2 23 -11 23 -18 0 -16 16 -19 24 -5 4 5 0 12 -6 14 -10 4 -10 8 1 15 15
11 51 4 51 -9z m-167 5 c-7 -3 -9 -12 -6 -20 3 -8 1 -14 -4 -14 -21 0 -32 -46
-18 -73 11 -22 11 -25 -1 -20 -13 5 -15 12 -18 55 -2 28 -16 33 -16 5 0 -31
-7 -33 -35 -10 -15 12 -16 14 -3 10 11 -4 19 1 23 14 6 18 16 23 43 20 7 -1
12 2 11 6 -4 22 3 33 19 32 9 0 12 -3 5 -5z m32 -15 c-4 -5 -12 -9 -18 -8 -9
0 -8 2 1 6 6 2 9 10 6 15 -4 7 -2 8 5 4 6 -4 9 -12 6 -17z m-105 1 c0 -5 -5
-10 -11 -10 -5 0 -7 5 -4 10 3 6 8 10 11 10 2 0 4 -4 4 -10z m-1973 -25 c0 -8
-4 -15 -9 -15 -5 0 -4 -10 2 -22 11 -22 10 -22 -4 -4 -17 21 -20 38 -9 49 11
11 20 8 20 -8z m2338 5 c3 -5 1 -18 -5 -27 -9 -15 -10 -14 -4 6 5 21 3 23 -15
18 -12 -3 -19 -1 -15 4 7 12 31 11 39 -1z m-241 -16 c3 -8 2 -13 -2 -10 -5 3
-7 -12 -5 -32 2 -28 0 -33 -8 -22 -7 10 -12 11 -15 4 -7 -16 -44 -5 -44 12 0
8 0 17 -1 21 0 4 5 9 12 12 6 2 9 -1 5 -7 -3 -5 1 -12 9 -16 9 -3 15 0 15 10
0 11 18 41 26 44 1 0 5 -7 8 -16z m34 -3 c3 -8 -1 -12 -9 -9 -7 2 -15 10 -17
17 -3 8 1 12 9 9 7 -2 15 -10 17 -17z m-2161 -78 c-11 -15 -27 -17 -27 -4 0 5
5 22 11 38 l12 28 7 -25 c4 -14 2 -31 -3 -37z m1963 43 c0 -3 -4 -8 -10 -11
-5 -3 -10 -1 -10 4 0 6 5 11 10 11 6 0 10 -2 10 -4z m-313 -38 c-3 -7 -5 -2
-5 12 0 14 2 19 5 13 2 -7 2 -19 0 -25z m357 7 c4 -12 2 -13 -12 -6 -9 4 -26
5 -37 0 -34 -13 -42 -8 -10 6 39 18 52 18 59 0z m-347 -92 c-3 -10 -5 -2 -5
17 0 19 2 27 5 18 2 -10 2 -26 0 -35z m-1617 7 c0 -5 -5 -10 -11 -10 -5 0 -7
5 -4 10 3 6 8 10 11 10 2 0 4 -4 4 -10z m1840 -61 c0 -5 -4 -9 -8 -9 -5 0 -9
7 -9 15 0 8 4 12 9 9 4 -3 8 -9 8 -15z m288 -5 c1 -14 -2 -23 -7 -20 -7 5 -8
23 -2 44 3 9 7 -2 9 -24z m-279 -27 c14 4 13 3 -1 -7 -11 -6 -15 -17 -11 -28
6 -15 5 -15 -8 -2 -9 8 -16 23 -16 33 0 11 4 14 10 8 5 -5 17 -7 26 -4z m215
-3 c3 -8 2 -12 -4 -9 -6 3 -10 10 -10 16 0 14 7 11 14 -7z m-39 -4 c3 -5 1
-10 -4 -10 -6 0 -11 5 -11 10 0 6 2 10 4 10 3 0 8 -4 11 -10z m105 -13 c0 -8
-4 -7 -12 1 -8 8 -15 9 -25 1 -9 -8 -13 -8 -13 -1 0 13 21 21 38 14 6 -2 12
-9 12 -15z m-503 -39 c-2 -13 -4 -5 -4 17 -1 22 1 32 4 23 2 -10 2 -28 0 -40z
m842 -15 c-3 -21 2 -26 12 -13 9 13 10 12 5 -2 -6 -21 9 -32 31 -24 14 6 14 8
-3 22 -18 14 -18 15 4 4 l23 -11 -21 -26 c-13 -16 -18 -33 -14 -46 4 -13 2
-17 -5 -13 -6 4 -11 2 -11 -4 0 -7 -7 -10 -15 -6 -8 3 -15 2 -15 -2 0 -5 16
-14 35 -22 42 -16 39 -27 -4 -12 -24 8 -31 8 -35 -5 -5 -11 -10 -13 -20 -4 -7
6 -16 8 -19 4 -4 -3 -7 -1 -7 5 0 7 10 13 23 13 20 1 20 2 2 6 -11 3 -24 9
-30 15 -7 6 0 7 19 2 l28 -7 -17 27 c-10 15 -13 26 -6 26 6 0 11 -7 11 -16 0
-10 7 -14 23 -12 21 3 28 23 8 23 -5 0 -13 4 -18 8 -4 5 -3 7 4 5 6 -1 11 0
12 5 4 26 -1 37 -15 37 -14 0 -14 -3 -4 -15 11 -13 10 -14 -4 -9 -20 8 -20 13
1 36 17 19 24 22 22 11z m-832 -50 c-3 -10 -5 -4 -5 12 0 17 2 24 5 18 2 -7 2
-21 0 -30z m496 23 c3 -8 -2 -20 -11 -27 -14 -11 -15 -11 -5 0 6 7 9 20 6 27
-3 8 -3 14 0 14 3 0 7 -6 10 -14z m430 -45 c-2 -6 3 -11 10 -11 6 0 4 -5 -6
-11 -21 -13 -47 -5 -46 13 0 10 2 10 6 1 2 -7 11 -13 19 -13 15 0 15 20 -1 33
-6 5 -4 7 5 4 8 -2 14 -10 13 -16z m-2588 -11 c-3 -5 -10 -10 -16 -10 -5 0 -9
5 -9 10 0 6 7 10 16 10 8 0 12 -4 9 -10z m1672 -12 c-3 -8 -6 -5 -6 6 -1 11 2
17 5 13 3 -3 4 -12 1 -19z m961 -14 c12 -4 22 -10 22 -15 0 -11 -22 -7 -31 4
-3 5 -9 2 -12 -7 -4 -9 -3 -15 1 -14 4 1 15 -2 25 -5 9 -4 24 -9 33 -12 13 -4
14 -8 4 -20 -10 -13 -15 -12 -31 8 -11 13 -18 17 -19 9 0 -7 -4 -10 -10 -7 -5
3 -10 1 -10 -6 0 -10 -3 -10 -12 -1 -9 9 -15 5 -24 -18 -7 -17 -19 -30 -26
-30 -9 0 -9 3 2 10 13 8 12 10 -3 10 -10 0 -15 5 -12 11 4 6 14 8 22 5 8 -3
12 -2 8 3 -3 5 2 16 10 24 22 22 19 40 -5 34 -11 -3 -20 -1 -20 3 0 5 12 11
28 13 15 2 29 5 32 5 3 1 15 -1 28 -4z m-380 -29 c-3 -3 -9 2 -12 12 -6 14 -5
15 5 6 7 -7 10 -15 7 -18z m-181 8 c-4 -3 -2 -12 4 -20 8 -9 8 -13 1 -13 -6 0
-14 5 -17 10 -6 10 2 30 12 30 4 0 3 -3 0 -7z m-166 -21 c-7 -2 -18 1 -23 6
-8 8 -4 9 13 5 13 -4 18 -8 10 -11z m69 -6 c0 -2 -7 -6 -15 -10 -8 -3 -15 -1
-15 4 0 6 7 10 15 10 8 0 15 -2 15 -4z m427 -13 c2 -6 -3 -13 -12 -16 -8 -4
-15 -2 -15 3 0 6 6 10 13 10 8 0 7 4 -3 11 -12 9 -12 10 -1 7 8 -3 16 -9 18
-15z m81 -19 c2 -1 -4 -9 -13 -18 -24 -23 -38 -20 -24 7 11 19 10 21 -3 9 -9
-7 -19 -25 -23 -40 -7 -25 -8 -25 -15 -7 -5 13 -2 24 9 32 9 7 12 13 7 13 -6
0 -1 6 10 14 14 11 23 12 34 3 8 -6 16 -12 18 -13z m-493 5 c11 -16 1 -19 -13
-3 -7 8 -8 14 -3 14 5 0 13 -5 16 -11z m235 7 c0 -2 -7 -7 -16 -10 -8 -3 -12
-2 -9 4 6 10 25 14 25 6z m-420 -10 c0 -2 -7 -6 -15 -10 -8 -3 -15 -1 -15 4 0
6 7 10 15 10 8 0 15 -2 15 -4z m-1790 -16 c0 -5 -8 -10 -17 -10 -15 0 -16 2
-3 10 19 12 20 12 20 0z m2590 6 c0 -3 -4 -8 -10 -11 -5 -3 -10 -1 -10 4 0 6
5 11 10 11 6 0 10 -2 10 -4z m-529 -33 c13 -16 12 -17 -3 -4 -17 13 -22 21
-14 21 2 0 10 -8 17 -17z m267 5 c16 5 16 5 0 -11 -9 -9 -23 -17 -30 -16 -9 0
-9 2 -1 5 7 3 11 11 9 17 -1 7 -1 9 1 5 2 -4 12 -4 21 0z m169 -7 c0 -11 -5
-18 -9 -15 -4 3 -5 11 -1 19 7 21 12 19 10 -4z m420 13 c-3 -3 -12 -4 -19 -1
-8 3 -5 6 6 6 11 1 17 -2 13 -5z m-934 -19 c-3 -9 -8 -14 -10 -11 -3 3 -2 9 2
15 9 16 15 13 8 -4z m292 5 c-3 -5 -12 -10 -18 -10 -7 0 -6 4 3 10 19 12 23
12 15 0z m-715 -9 c0 -6 -4 -13 -10 -16 -5 -3 -10 1 -10 9 0 9 5 16 10 16 6 0
10 -4 10 -9z m459 -10 c9 -16 8 -18 -8 -14 -12 3 -17 11 -14 19 7 18 10 18 22
-5z m177 3 c-5 -13 -1 -15 21 -11 25 6 25 5 -5 -9 -18 -8 -38 -12 -43 -8 -6 3
-19 -2 -29 -11 -12 -11 -20 -13 -25 -6 -8 14 39 33 60 24 9 -3 15 -2 14 3 -3
16 1 34 7 34 3 0 3 -7 0 -16z m228 1 c-4 -8 -8 -15 -10 -15 -2 0 -4 7 -4 15 0
8 4 15 10 15 5 0 7 -7 4 -15z m494 -14 c-1 -16 -5 -28 -9 -25 -4 2 -6 12 -5
22 2 9 -2 20 -8 24 -7 5 -4 8 7 8 13 0 17 -7 15 -29z m-643 -1 c-3 -5 -12 -10
-18 -10 -7 0 -6 4 3 10 19 12 23 12 15 0z m-879 -68 c-13 -12 -17 8 -10 40 l9
33 3 -33 c2 -19 1 -36 -2 -40z m58 26 c9 -17 16 -47 15 -67 0 -33 -1 -34 -10
-13 -5 13 -6 28 -3 33 3 5 0 8 -6 7 -7 -2 -13 13 -15 35 -5 45 -1 46 19 5z
m459 15 c-4 -10 -2 -14 4 -10 6 4 13 0 17 -8 6 -17 -2 -19 -23 -6 -12 8 -10
41 3 41 3 0 2 -7 -1 -17z m42 -3 c-4 -6 10 -9 35 -7 22 1 40 5 40 10 0 4 4 7
8 7 15 0 10 -39 -6 -51 -14 -11 -15 -11 -4 1 17 20 15 29 -5 25 -10 -2 -24 -4
-31 -4 -7 -1 -11 -5 -8 -9 3 -5 -1 -9 -9 -9 -8 0 -12 4 -10 8 3 4 -2 10 -11
13 -13 5 -12 26 2 26 3 0 2 -4 -1 -10z m118 -20 c-3 -11 -7 -20 -9 -20 -2 0
-4 9 -4 20 0 11 4 20 9 20 5 0 7 -9 4 -20z m-554 -11 c2 38 26 9 29 -35 2 -21
5 -41 7 -45 8 -11 -20 -18 -36 -8 -11 7 -10 9 5 9 18 0 18 1 4 13 -9 6 -19 30
-22 52 -4 31 -4 34 3 15 l9 -25 1 24z m-1113 -60 c19 -11 34 -18 34 -15 0 3 8
-2 18 -11 24 -23 84 -57 95 -55 5 2 6 -2 2 -7 -3 -6 -25 0 -53 15 -40 21 -43
22 -23 4 13 -11 21 -23 18 -26 -7 -7 -53 38 -49 49 1 5 -2 6 -7 3 -5 -3 -26
10 -47 29 -44 39 -38 45 12 14z m221 -11 c-3 -8 -6 -5 -6 6 -1 11 2 17 5 13 3
-3 4 -12 1 -19z m17 -31 c-6 -18 -31 -18 -31 0 0 7 8 13 18 13 11 0 16 -5 13
-13z m896 -7 c8 -5 11 -10 5 -10 -5 0 -17 5 -25 10 -8 5 -10 10 -5 10 6 0 17
-5 25 -10z m-60 -40 c0 -5 -2 -10 -4 -10 -3 0 -8 5 -11 10 -3 6 -1 10 4 10 6
0 11 -4 11 -10z m51 -17 c13 -15 12 -15 -8 -4 -24 12 -29 21 -14 21 5 0 15 -7
22 -17z m1619 -28 c0 -5 -5 -3 -10 5 -5 8 -10 20 -10 25 0 6 5 3 10 -5 5 -8
10 -19 10 -25z"/>
<path d="M5031 2850 c1 -28 15 -65 21 -55 3 6 -1 24 -8 40 -7 17 -13 23 -13
15z"/>
<path d="M4200 1101 c0 -6 4 -13 10 -16 6 -3 7 1 4 9 -7 18 -14 21 -14 7z"/>
<path d="M4466 1086 c11 -33 35 -66 45 -60 5 3 9 0 9 -6 0 -6 5 -8 10 -5 18
11 11 28 -9 22 -14 -3 -23 3 -31 24 -7 15 -9 32 -6 37 3 5 -1 9 -10 9 -10 0
-12 -7 -8 -21z"/>
<path d="M4251 944 c0 -11 3 -14 6 -6 3 7 2 16 -1 19 -3 4 -6 -2 -5 -13z"/>
<path d="M4401 874 c0 -11 3 -14 6 -6 3 7 2 16 -1 19 -3 4 -6 -2 -5 -13z"/>
<path d="M4980 388 c0 -7 5 -20 10 -28 8 -13 10 -12 10 3 0 9 0 20 1 24 0 4
-4 9 -10 11 -6 2 -11 -2 -11 -10z"/>
<path d="M6025 470 c-3 -5 -1 -10 4 -10 6 0 11 5 11 10 0 6 -2 10 -4 10 -3 0
-8 -4 -11 -10z"/>
<path d="M5335 3770 c-4 -6 1 -7 11 -3 12 4 15 3 10 -5 -4 -7 -2 -10 7 -6 8 3
40 -9 72 -27 32 -17 54 -26 50 -19 -6 10 -3 12 11 6 13 -5 16 -4 9 3 -6 6 -22
12 -35 13 -14 2 -27 5 -30 9 -8 8 -77 39 -88 39 -6 0 -14 -4 -17 -10z"/>
<path d="M5415 3670 c3 -5 11 -10 16 -10 6 0 7 5 4 10 -3 6 -11 10 -16 10 -6
0 -7 -4 -4 -10z"/>
<path d="M5535 3670 c15 -23 14 -38 -1 -50 -10 -9 -20 -7 -44 10 -17 12 -33
20 -36 17 -6 -5 76 -67 89 -67 5 0 4 7 -3 15 -12 14 -7 19 13 16 5 -1 6 3 2 9
-8 14 8 13 22 -1 9 -9 11 -8 9 4 -1 9 -15 26 -31 39 -16 12 -25 16 -20 8z"/>
<path d="M153 3654 c-31 -14 -5 -45 52 -64 46 -15 55 -25 55 -60 0 -36 18 -50
61 -50 21 0 40 -4 43 -9 16 -25 408 -50 482 -29 49 13 47 39 -5 67 -37 19 -56
23 -120 20 -112 -3 -121 -2 -121 21 0 14 11 22 40 30 22 6 38 15 36 19 -3 4 6
14 21 22 l26 14 -39 7 c-49 10 -515 20 -531 12z"/>
<path d="M748 3633 c12 -2 30 -2 40 0 9 3 -1 5 -23 4 -22 0 -30 -2 -17 -4z"/>
<path d="M965 3601 c11 -4 20 -12 20 -17 0 -5 10 -19 23 -31 29 -30 75 -30
102 -1 30 32 10 45 -85 51 -44 3 -71 2 -60 -2z"/>
<path d="M5620 3596 c0 -3 13 -12 29 -21 23 -12 31 -12 37 -2 4 6 4 9 -1 5 -4
-4 -20 -1 -36 8 -16 8 -29 12 -29 10z"/>
<path d="M5700 3546 c0 -2 8 -10 18 -17 15 -13 16 -12 3 4 -13 16 -21 21 -21
13z"/>
<path d="M0 3489 l0 -42 53 7 c28 4 54 11 55 17 2 5 11 9 19 9 14 0 14 2 0 18
-10 10 -14 22 -10 25 3 4 -21 7 -55 7 l-62 0 0 -41z"/>
<path d="M5346 3523 c-14 -4 -4 -11 34 -24 65 -23 69 -23 44 -4 -10 8 -27 15
-37 15 -10 0 -15 5 -12 10 6 10 2 11 -29 3z"/>
<path d="M5588 3508 c5 -5 16 -8 23 -6 8 3 3 7 -10 11 -17 4 -21 3 -13 -5z"/>
<path d="M5458 3493 c6 -2 18 -2 25 0 6 3 1 5 -13 5 -14 0 -19 -2 -12 -5z"/>
<path d="M937 3474 c-12 -12 4 -24 34 -24 16 0 29 5 29 10 0 6 -6 10 -14 10
-8 0 -21 2 -28 5 -8 3 -17 3 -21 -1z"/>
<path d="M5620 3462 c0 -5 14 -12 31 -16 44 -8 71 -6 34 4 -16 4 -38 11 -47
15 -10 4 -18 3 -18 -3z"/>
<path d="M5370 3441 c0 -5 7 -12 16 -15 14 -5 15 -4 4 9 -14 17 -20 19 -20 6z"/>
<path d="M5565 3440 c4 -6 11 -8 16 -5 14 9 11 15 -7 15 -8 0 -12 -5 -9 -10z"/>
<path d="M5749 3441 c11 -7 9 -13 -8 -30 -11 -11 -17 -21 -12 -21 6 0 13 5 16
11 4 6 20 7 38 3 l32 -6 -28 26 c-15 14 -33 26 -40 26 -8 0 -8 -3 2 -9z"/>
<path d="M5651 3406 c-16 -19 -11 -29 8 -17 7 5 12 14 9 21 -3 9 -8 7 -17 -4z"/>
<path d="M497 3402 c-16 -2 -31 -10 -33 -17 -3 -7 -23 -16 -45 -20 -46 -8 -66
-34 -49 -66 7 -12 18 -18 26 -15 29 11 44 -5 44 -49 l0 -43 78 -1 c103 -3 133
-2 143 5 5 3 9 22 9 42 1 40 46 102 74 102 16 0 46 -84 46 -127 0 -19 5 -23
30 -23 l30 0 0 60 c0 33 7 77 15 97 10 24 12 40 5 47 -9 9 -314 16 -373 8z"/>
<path d="M5418 3403 c7 -3 16 -2 19 1 4 3 -2 6 -13 5 -11 0 -14 -3 -6 -6z"/>
<path d="M0 3346 c0 -59 15 -70 67 -46 22 10 43 22 46 27 9 14 -16 39 -52 51
-55 19 -61 17 -61 -32z"/>
<path d="M5770 3375 c-7 -9 -11 -17 -9 -20 3 -2 10 5 17 15 14 24 10 26 -8 5z"/>
<path d="M5642 3344 c-7 -8 -8 -14 -3 -14 10 0 25 19 20 25 -2 1 -10 -3 -17
-11z"/>
<path d="M5805 3339 c-4 -6 -5 -12 -2 -15 2 -3 7 2 10 11 7 17 1 20 -8 4z"/>
<path d="M232 3328 c3 -8 24 -13 54 -14 27 0 41 1 32 3 -10 3 -18 9 -18 14 0
5 -16 9 -36 9 -24 0 -34 -4 -32 -12z"/>
<path d="M5686 3206 c-5 -24 -3 -43 3 -49 17 -17 21 -4 13 44 l-8 44 -8 -39z"/>
<path d="M5582 3209 c-10 -15 -10 -25 -3 -32 7 -7 7 -16 0 -29 -6 -11 -8 -22
-5 -26 3 -3 6 1 6 9 0 8 10 -6 21 -31 12 -25 23 -39 26 -32 3 7 -1 19 -7 28
-11 12 -10 13 4 8 14 -6 15 -4 1 22 -8 16 -15 35 -15 42 0 6 -5 12 -11 12 -7
0 -9 10 -5 25 8 31 5 31 -12 4z"/>
<path d="M5741 3214 c0 -11 3 -14 6 -6 3 7 2 16 -1 19 -3 4 -6 -2 -5 -13z"/>
<path d="M5613 3175 c7 -14 15 -25 19 -25 4 0 2 11 -4 25 -6 14 -15 25 -19 25
-4 0 -2 -11 4 -25z"/>
<path d="M474 3143 c-11 -4 -8 -43 3 -43 6 0 33 27 33 33 0 8 -24 14 -36 10z"/>
<path d="M605 3141 c-7 -12 12 -24 25 -16 11 7 4 25 -10 25 -5 0 -11 -4 -15
-9z"/>
<path d="M5691 3125 c-1 -17 -3 -17 -11 -5 -6 9 -10 10 -10 3 0 -20 16 -23 36
-7 10 9 14 13 7 10 -6 -4 -14 0 -16 6 -3 7 -6 4 -6 -7z"/>
<path d="M5811 3124 c0 -11 3 -14 6 -6 3 7 2 16 -1 19 -3 4 -6 -2 -5 -13z"/>
<path d="M5550 3121 c0 -6 4 -13 10 -16 6 -3 7 1 4 9 -7 18 -14 21 -14 7z"/>
<path d="M5480 3111 c0 -5 5 -13 10 -16 6 -3 10 -2 10 4 0 5 -4 13 -10 16 -5
3 -10 2 -10 -4z"/>
<path d="M118 3051 c-55 -55 -87 -105 -75 -117 11 -11 112 -16 146 -7 25 7 35
15 38 33 2 14 5 31 8 38 6 17 40 15 56 -4 9 -11 23 -14 48 -10 20 3 45 8 56 9
54 9 3 97 -56 97 -17 0 -49 -5 -70 -12 -35 -10 -42 -9 -62 10 -13 12 -25 22
-28 21 -2 -1 -30 -27 -61 -58z"/>
<path d="M5576 3083 c-6 -14 -5 -15 5 -6 7 7 10 15 7 18 -3 3 -9 -2 -12 -12z"/>
<path d="M5650 3030 c0 -5 5 -10 11 -10 5 0 7 5 4 10 -3 6 -8 10 -11 10 -2 0
-4 -4 -4 -10z"/>
<path d="M333 2943 c15 -2 37 -2 50 0 12 2 0 4 -28 4 -27 0 -38 -2 -22 -4z"/>
<path d="M5747 2939 c7 -7 15 -10 18 -7 3 3 -2 9 -12 12 -14 6 -15 5 -6 -5z"/>
<path d="M5705 2910 c-3 -5 3 -10 14 -10 11 0 23 5 26 10 3 6 -3 10 -14 10
-11 0 -23 -4 -26 -10z"/>
<path d="M40 2897 c-25 -13 -25 -14 -21 -117 2 -58 7 -110 12 -115 4 -6 4 -17
-1 -25 -13 -21 -12 -74 2 -104 9 -21 8 -29 -4 -43 -25 -29 -27 -49 -11 -79 19
-36 20 -152 2 -185 -23 -41 -22 -70 1 -76 11 -3 20 -9 20 -14 0 -5 18 -6 40
-3 27 4 40 3 40 -5 0 -7 -22 -11 -60 -11 l-60 0 0 -43 c0 -24 5 -48 11 -54 8
-8 8 -13 0 -17 -8 -5 -11 -215 -11 -714 l1 -707 44 150 c83 282 146 441 206
517 18 22 75 72 128 112 135 100 149 108 173 100 14 -4 18 -2 14 5 -4 6 -5 11
-3 11 3 0 22 7 43 16 35 15 37 15 25 0 -7 -9 -20 -16 -28 -16 -10 0 -12 -6 -8
-20 4 -11 3 -20 -2 -19 -4 1 -16 1 -27 0 -15 -1 -16 -4 -6 -16 6 -8 8 -20 4
-27 -4 -7 3 -3 15 10 12 12 26 22 32 22 6 0 7 5 4 10 -3 6 2 10 11 10 10 0 15
3 12 6 -4 3 3 15 14 26 13 13 17 23 9 27 -8 5 118 74 139 76 3 0 10 4 17 8 6
4 19 4 28 1 10 -4 15 -2 13 7 -2 9 6 14 20 14 13 0 27 7 32 15 9 13 10 13 10
0 0 -12 2 -12 9 -2 4 7 19 15 32 17 43 7 58 11 65 18 9 9 55 -23 48 -34 -3 -5
0 -9 6 -9 7 0 10 -7 6 -17 -5 -15 -4 -15 9 1 13 17 15 18 15 3 0 -19 5 -20 35
-7 17 7 17 9 3 9 -19 1 -26 31 -7 31 5 0 7 -4 4 -10 -3 -5 0 -10 8 -10 9 0 12
9 9 29 -3 20 1 30 13 34 13 6 15 1 11 -31 -3 -20 0 -50 7 -66 l13 -30 23 32
c12 18 19 31 14 30 -11 -4 -15 4 -10 22 25 84 31 99 38 95 4 -3 5 -14 2 -24
-3 -11 0 -28 6 -38 9 -15 10 -14 11 14 0 17 3 39 7 49 5 13 3 15 -8 9 -8 -5 1
6 18 25 18 18 31 35 29 38 -7 6 -86 -40 -81 -48 2 -4 -3 -7 -11 -7 -10 0 -11
4 -4 11 5 5 10 14 10 18 0 5 -217 6 -482 2 -340 -4 -491 -3 -510 5 -26 10 -28
15 -28 63 0 111 19 138 98 138 17 0 32 5 32 10 0 7 -20 9 -60 4 l-60 -7 -1 34
c-1 19 -1 103 0 187 1 147 0 154 -19 159 -31 8 -24 20 15 27 49 9 80 -1 64
-20 -9 -11 -9 -21 0 -40 6 -14 11 -34 11 -44 0 -11 5 -20 10 -20 6 0 10 5 10
10 0 6 16 10 35 10 19 0 35 -4 35 -10 0 -5 7 -10 15 -10 8 0 15 -4 15 -8 0 -5
16 -17 35 -28 19 -10 35 -26 35 -36 0 -26 14 -29 48 -7 18 10 37 19 42 19 15
0 2 -182 -15 -200 -19 -21 -19 -30 3 -46 23 -18 83 -18 107 0 17 12 18 17 6
39 -8 14 -11 33 -8 41 9 24 -5 53 -38 78 -29 22 -30 26 -34 114 -2 59 1 94 8
98 6 4 11 20 11 36 0 16 5 32 10 35 14 9 13 138 -2 153 -7 7 -15 12 -20 12
-11 0 -38 -56 -38 -80 0 -34 -26 -22 -36 18 -9 37 -9 37 -55 34 -59 -4 -129
14 -129 33 0 8 5 16 10 16 6 1 15 3 20 4 6 1 49 3 98 4 132 3 71 19 -75 20
-76 1 -123 -3 -123 -9 0 -5 5 -10 10 -10 17 0 11 -46 -9 -64 -15 -14 -17 -24
-11 -46 9 -32 5 -40 -22 -40 -18 0 -19 7 -17 80 2 65 -1 84 -16 100 -10 11
-15 23 -11 27 4 4 46 8 94 8 234 2 257 4 236 20 -16 12 -17 16 -4 24 12 8 12
13 -4 30 -13 14 -16 28 -12 47 4 15 4 38 1 53 -6 26 -6 26 -120 29 -131 3
-119 13 -115 -99 1 -39 -3 -59 -14 -68 -27 -23 -39 -2 -33 59 7 83 1 105 -39
124 -41 19 -129 21 -164 3z m400 -107 c0 -5 9 -10 20 -10 11 0 20 -4 20 -10 0
-5 -4 -10 -10 -10 -5 0 -10 -11 -10 -25 0 -15 -6 -25 -14 -25 -27 0 -46 12
-46 30 0 10 -5 20 -12 22 -9 3 -8 9 2 21 16 18 50 23 50 7z m180 -399 c0 -5
-55 -9 -122 -10 -85 -1 -118 2 -108 9 19 12 230 13 230 1z m-263 -7 c-3 -3
-12 -4 -19 -1 -8 3 -5 6 6 6 11 1 17 -2 13 -5z m832 -648 c-12 -10 -99 -44
-99 -38 0 8 69 40 89 41 8 1 12 -1 10 -3z m-32 -59 c-7 -16 -20 -27 -32 -27
-18 1 -18 2 -3 11 10 5 15 16 11 24 -4 11 -1 13 11 9 10 -4 16 -1 16 7 0 7 2
10 5 7 3 -2 -1 -16 -8 -31z m-83 7 c9 -3 13 -10 10 -15 -8 -14 -31 -11 -38 6
-6 16 3 19 28 9z m46 -4 c0 -5 -4 -10 -10 -10 -5 0 -10 5 -10 10 0 6 5 10 10
10 6 0 10 -4 10 -10z"/>
<path d="M5630 2890 c-26 -5 -31 -8 -18 -14 9 -4 25 -3 36 3 11 6 22 7 26 4 3
-3 6 -1 6 5 0 7 -3 11 -7 11 -5 -1 -24 -5 -43 -9z"/>
<path d="M5892 2810 c0 -19 2 -27 5 -17 2 9 2 25 0 35 -3 9 -5 1 -5 -18z"/>
<path d="M4248 2669 c-6 -74 0 -460 7 -467 16 -16 19 33 17 248 -2 243 -14
346 -24 219z"/>
<path d="M5820 2696 c0 -14 -7 -32 -16 -40 -16 -16 -8 -22 12 -8 13 8 34 46
34 61 0 6 -7 11 -15 11 -9 0 -15 -9 -15 -24z"/>
<path d="M3143 2203 c15 -2 37 -2 50 0 12 2 0 4 -28 4 -27 0 -38 -2 -22 -4z"/>
<path d="M5277 2188 c-4 -11 18 -68 26 -68 2 0 1 16 -1 35 -4 37 -17 54 -25
33z"/>
<path d="M5280 2110 c0 -5 5 -10 11 -10 5 0 7 5 4 10 -3 6 -8 10 -11 10 -2 0
-4 -4 -4 -10z"/>
<path d="M3115 2090 c-16 -25 25 -40 55 -20 13 9 13 11 0 20 -19 13 -47 13
-55 0z"/>
<path d="M4257 2083 c-11 -10 -8 -241 3 -248 6 -4 10 40 10 124 0 72 -1 131
-3 131 -2 0 -7 -3 -10 -7z"/>
<path d="M745 2050 c-3 -5 3 -10 15 -10 12 0 18 5 15 10 -3 6 -10 10 -15 10
-5 0 -12 -4 -15 -10z"/>
<path d="M5251 2000 c0 -14 4 -32 9 -40 8 -13 10 -12 10 3 0 10 4 16 8 13 5
-3 9 1 9 8 0 8 -6 12 -13 9 -7 -2 -14 4 -17 14 -3 13 -5 11 -6 -7z"/>
<path d="M5300 1976 c0 -8 -5 -16 -12 -18 -9 -3 -9 -6 0 -12 7 -4 12 -2 12 4
0 6 4 9 9 5 6 -3 9 4 8 15 -1 22 -17 28 -17 6z"/>
<path d="M5856 1893 c23 -21 54 -45 70 -53 16 -8 31 -17 34 -20 77 -73 101
-92 83 -65 -28 39 -55 63 -133 117 -89 61 -102 66 -54 21z"/>
<path d="M6167 1819 c7 -7 15 -10 18 -7 3 3 -2 9 -12 12 -14 6 -15 5 -6 -5z"/>
<path d="M6230 1769 c0 -6 11 -22 25 -35 17 -16 25 -19 25 -9 0 8 -6 18 -14
22 -8 4 -15 12 -15 18 0 5 -4 11 -10 13 -6 2 -11 -2 -11 -9z"/>
<path d="M4240 1756 c0 -9 5 -16 10 -16 6 0 10 4 10 9 0 6 -4 13 -10 16 -5 3
-10 -1 -10 -9z"/>
<path d="M6456 1709 c17 -20 17 -22 2 -16 -29 10 -21 -15 16 -50 18 -18 37
-33 41 -33 4 0 -6 13 -22 29 -19 18 -28 33 -23 42 11 16 3 36 -18 44 -13 5
-12 1 4 -16z"/>
<path d="M6291 1714 c-1 -6 5 -17 13 -24 8 -6 13 -17 10 -25 -3 -7 -1 -16 5
-20 16 -9 8 28 -11 56 -9 13 -17 19 -17 13z"/>
<path d="M2734 1655 c8 -8 23 -15 33 -15 13 0 10 4 -11 15 -36 19 -41 19 -22
0z"/>
<path d="M1273 1643 c-18 -7 -16 -23 2 -23 8 0 15 7 15 15 0 8 -1 15 -2 14 -2
0 -9 -3 -15 -6z"/>
<path d="M983 1625 c-3 -9 -3 -18 -1 -21 3 -3 8 4 11 16 6 23 -1 27 -10 5z"/>
<path d="M2612 1616 c7 -8 17 -12 22 -9 4 3 2 9 -5 14 -22 13 -31 11 -17 -5z"/>
<path d="M940 1609 c0 -5 5 -7 11 -3 8 4 9 -1 4 -17 -5 -19 -4 -21 4 -9 15 22
13 40 -4 40 -8 0 -15 -5 -15 -11z"/>
<path d="M6336 1612 c6 -4 14 -14 17 -22 4 -10 6 -8 6 8 1 15 -5 22 -16 22
-11 0 -14 -3 -7 -8z"/>
<path d="M895 1600 c-4 -6 -11 -7 -17 -4 -7 4 -8 2 -4 -4 5 -8 0 -12 -13 -12
-12 0 -21 -4 -21 -10 0 -5 18 -3 40 5 30 11 39 11 34 2 -5 -9 -4 -9 6 0 7 6 9
16 6 22 -9 14 -23 14 -31 1z"/>
<path d="M2520 1600 c0 -5 5 -10 10 -10 6 0 10 5 10 10 0 6 -4 10 -10 10 -5 0
-10 -4 -10 -10z"/>
<path d="M1020 1586 c0 -8 4 -17 8 -20 4 -2 8 4 8 15 0 10 -4 19 -8 19 -4 0
-8 -6 -8 -14z"/>
<path d="M6623 1593 c-29 -11 -5 -128 30 -154 7 -5 13 -37 32 -158 2 -13 8
-28 14 -34 14 -14 15 -70 1 -62 -6 4 -2 -8 8 -26 18 -33 42 -50 42 -29 0 6 -4
8 -10 5 -6 -4 -10 18 -10 59 0 36 4 66 9 66 16 0 9 52 -14 104 -12 28 -20 57
-18 64 3 7 -2 21 -10 30 -9 9 -23 31 -31 47 -10 20 -16 24 -16 13 0 -10 -5
-18 -11 -18 -7 0 -10 18 -7 50 1 28 3 50 3 49 0 0 -6 -3 -12 -6z"/>
<path d="M6751 1584 c0 -11 3 -14 6 -6 3 7 2 16 -1 19 -3 4 -6 -2 -5 -13z"/>
<path d="M985 1580 c-3 -5 -1 -10 4 -10 6 0 11 5 11 10 0 6 -2 10 -4 10 -3 0
-8 -4 -11 -10z"/>
<path d="M2420 1579 c0 -5 5 -7 10 -4 6 3 10 8 10 11 0 2 -4 4 -10 4 -5 0 -10
-5 -10 -11z"/>
<path d="M6660 1560 c5 -19 14 -38 20 -44 6 -6 6 2 0 24 -5 19 -14 38 -20 44
-6 6 -6 -2 0 -24z"/>
<path d="M880 1551 c-7 -15 -7 -21 0 -21 12 0 25 28 17 36 -3 3 -10 -4 -17
-15z"/>
<path d="M2825 1560 c-13 -6 -15 -9 -5 -9 8 0 22 4 30 9 18 12 2 12 -25 0z"/>
<path d="M6092 1558 c-30 -30 10 -98 56 -98 16 0 22 3 15 8 -6 4 -22 28 -35
54 -19 37 -27 45 -36 36z"/>
<path d="M763 1547 c3 -8 -6 -12 -26 -12 -23 0 -34 -7 -47 -30 -16 -29 -16
-31 0 -32 9 -1 17 5 18 13 1 8 3 21 4 28 1 11 6 12 18 6 10 -5 20 -6 24 -2 4
3 4 -2 0 -13 -5 -11 -9 -14 -12 -7 -8 25 -23 11 -18 -18 2 -17 0 -28 -4 -25
-5 3 -11 1 -15 -5 -3 -5 0 -10 7 -11 7 0 -2 -7 -19 -15 -18 -8 -33 -16 -33
-19 0 -9 54 7 65 19 6 6 22 10 38 8 15 -2 27 2 27 8 0 6 -4 8 -10 5 -5 -3 -10
-1 -10 4 0 6 6 11 13 11 9 0 8 3 -2 9 -11 7 -10 11 5 20 11 6 13 11 7 11 -8 0
-13 13 -13 30 0 17 -5 30 -11 30 -6 0 -9 -6 -6 -13z"/>
<path d="M966 1543 c-6 -14 -5 -15 5 -6 7 7 10 15 7 18 -3 3 -9 -2 -12 -12z"/>
<path d="M2415 1550 c3 -5 11 -10 16 -10 6 0 7 5 4 10 -3 6 -11 10 -16 10 -6
0 -7 -4 -4 -10z"/>
<path d="M1175 1540 c4 -6 10 -8 15 -5 5 3 11 1 15 -5 3 -5 0 -10 -7 -10 -8 0
-14 -9 -14 -21 0 -16 2 -18 11 -6 5 7 16 12 24 9 8 -3 11 0 7 7 -4 6 -2 11 4
11 27 0 1 23 -29 26 -20 3 -30 0 -26 -6z"/>
<path d="M2470 1541 c0 -5 8 -8 18 -6 9 1 23 -2 30 -8 8 -6 12 -6 12 1 0 11
-23 22 -46 22 -8 0 -14 -4 -14 -9z"/>
<path d="M2458 1518 c6 -6 18 -8 28 -6 14 3 12 5 -9 10 -19 3 -25 2 -19 -4z"/>
<path d="M6466 1517 c3 -10 9 -15 12 -12 3 3 0 11 -7 18 -10 9 -11 8 -5 -6z"/>
<path d="M870 1511 c0 -10 26 -9 36 2 4 4 -2 7 -14 7 -12 0 -22 -4 -22 -9z"/>
<path d="M985 1510 c-16 -7 -17 -9 -3 -9 9 -1 20 4 23 9 7 11 7 11 -20 0z"/>
<path d="M2606 1511 c-3 -5 1 -11 9 -14 9 -4 12 -1 8 9 -6 16 -10 17 -17 5z"/>
<path d="M2390 1500 c0 -5 5 -10 11 -10 5 0 7 5 4 10 -3 6 -8 10 -11 10 -2 0
-4 -4 -4 -10z"/>
<path d="M2454 1485 c-10 -8 -14 -15 -8 -15 5 0 19 7 30 15 10 8 14 15 8 15
-5 0 -19 -7 -30 -15z"/>
<path d="M6690 1492 c0 -5 7 -15 15 -22 8 -7 15 -9 15 -6 0 4 -7 14 -15 22 -8
9 -15 11 -15 6z"/>
<path d="M2590 1480 c-9 -6 -10 -10 -3 -10 6 0 15 5 18 10 8 12 4 12 -15 0z"/>
<path d="M5727 1479 c7 -7 15 -10 18 -7 3 3 -2 9 -12 12 -14 6 -15 5 -6 -5z"/>
<path d="M877 1473 c-12 -11 -8 -43 6 -43 8 0 7 -4 -3 -10 -11 -8 -6 -10 20
-8 20 1 42 -2 49 -6 10 -6 10 -4 -1 13 -7 12 -16 21 -20 21 -5 0 -8 9 -8 20 0
20 -28 28 -43 13z m33 -17 c0 -3 -4 -8 -10 -11 -5 -3 -10 -1 -10 4 0 6 5 11
10 11 6 0 10 -2 10 -4z"/>
<path d="M2531 1468 c-1 -9 4 -20 9 -23 6 -4 7 -11 4 -17 -4 -7 -2 -8 5 -4 8
5 9 12 3 19 -5 7 -12 19 -15 27 -4 12 -6 12 -6 -2z"/>
<path d="M1197 1454 c3 -7 0 -14 -6 -14 -6 0 -11 -4 -11 -10 0 -5 5 -9 12 -7
7 1 12 -4 13 -12 0 -23 21 -23 22 -1 1 11 -2 20 -7 20 -5 0 -7 6 -4 14 3 7 -2
16 -10 19 -10 4 -13 1 -9 -9z"/>
<path d="M2825 1458 c6 -15 -43 -41 -58 -31 -6 3 -7 1 -3 -5 8 -14 36 -16 36
-3 0 4 15 12 33 18 31 9 32 9 10 21 -18 10 -22 10 -18 0z"/>
<path d="M5385 1459 c-4 -5 0 -9 8 -9 8 0 17 -9 20 -20 4 -16 14 -20 45 -20
22 0 48 3 56 6 24 9 0 34 -33 34 -14 0 -41 4 -58 9 -20 6 -35 6 -38 0z"/>
<path d="M6031 1460 c0 -8 10 -25 23 -38 14 -12 36 -45 49 -72 14 -27 27 -46
31 -43 3 4 6 1 6 -5 0 -14 -24 -15 -67 -3 -49 14 -37 -10 17 -34 62 -28 70
-34 70 -53 0 -9 7 -30 15 -46 8 -15 15 -34 15 -40 0 -7 7 -21 16 -32 15 -19
15 -19 9 2 -3 12 -7 36 -10 53 -2 17 -6 40 -10 51 -4 14 -2 20 8 20 11 0 17
-23 26 -88 6 -49 11 -100 11 -115 0 -15 3 -27 8 -27 4 0 7 45 7 100 0 55 -4
100 -8 100 -5 0 -7 9 -4 20 3 10 -1 24 -8 30 -10 9 -11 21 -1 63 13 58 6 125
-15 138 -21 13 -97 11 -102 -3 -3 -8 -6 -6 -6 5 -1 9 -8 17 -16 17 -9 0 -12
-6 -9 -17 4 -12 -1 -10 -16 7 -15 17 -20 19 -16 8 3 -10 1 -18 -4 -18 -5 0
-11 8 -13 18 -3 12 -5 13 -6 2z m93 -66 c7 -19 2 -18 -19 6 -16 17 -16 20 -3
15 9 -4 19 -13 22 -21z m76 -32 c0 -8 -1 -13 -3 -11 -1 2 -9 12 -16 22 -12 15
-12 17 3 11 9 -3 16 -13 16 -22z m0 -36 c0 -8 3 -22 7 -32 4 -12 3 -15 -5 -10
-7 4 -12 16 -12 26 0 10 -6 21 -12 23 -8 3 -6 6 5 6 9 1 17 -5 17 -13z m-35
-75 c-6 -5 -25 10 -25 20 0 5 6 4 14 -3 8 -7 12 -15 11 -17z"/>
<path d="M1265 1450 c-3 -6 1 -7 9 -4 18 7 21 14 7 14 -6 0 -13 -4 -16 -10z"/>
<path d="M2366 1443 c-6 -14 -5 -15 5 -6 7 7 10 15 7 18 -3 3 -9 -2 -12 -12z"/>
<path d="M648 1443 c-10 -2 -18 -9 -18 -14 0 -5 -7 -9 -15 -9 -17 0 -19 -9 -5
-30 7 -11 10 -11 10 -2 0 7 5 10 10 7 6 -4 19 4 30 17 30 35 27 41 -12 31z"/>
<path d="M6801 1434 c0 -11 3 -14 6 -6 3 7 2 16 -1 19 -3 4 -6 -2 -5 -13z"/>
<path d="M504 1426 c-27 -29 8 -102 42 -89 13 5 15 2 9 -15 -4 -15 -2 -22 6
-22 7 0 9 -3 6 -6 -4 -4 -13 -1 -21 5 -11 9 -16 9 -22 -1 -4 -7 -4 -10 1 -6 4
4 14 0 22 -8 8 -8 19 -12 24 -9 4 3 20 -2 34 -11 20 -13 25 -13 25 -3 0 8 3
25 6 39 4 20 3 22 -5 10 -8 -12 -11 -12 -11 -1 0 11 -3 11 -17 0 -11 -10 -14
-10 -9 -1 4 7 1 12 -8 12 -19 0 -21 17 -4 22 6 2 -3 10 -20 17 -18 8 -32 18
-32 23 0 5 4 7 8 4 5 -3 9 1 9 9 0 8 -4 12 -9 9 -4 -3 -8 2 -8 10 0 21 -13 26
-26 12z m111 -146 c3 -5 1 -10 -4 -10 -6 0 -11 5 -11 10 0 6 2 10 4 10 3 0 8
-4 11 -10z"/>
<path d="M2473 1423 c-14 -9 -23 -11 -23 -4 0 21 -16 11 -17 -11 -2 -16 0 -19
6 -10 5 8 11 13 15 13 29 -4 66 1 66 9 0 5 -7 6 -17 3 -11 -4 -14 -3 -9 5 9
15 6 15 -21 -5z"/>
<path d="M3093 1425 c-10 -10 -9 -15 4 -19 21 -8 27 -1 16 17 -6 12 -10 13
-20 2z"/>
<path d="M3026 1415 c-3 -8 -1 -15 4 -15 6 0 10 7 10 15 0 8 -2 15 -4 15 -2 0
-6 -7 -10 -15z"/>
<path d="M3800 1420 c-9 -6 -10 -10 -3 -10 6 0 15 5 18 10 8 12 4 12 -15 0z"/>
<path d="M775 1411 c3 -5 1 -12 -5 -16 -5 -3 -10 -1 -10 4 0 6 -4 11 -9 11 -6
0 -9 -8 -8 -19 1 -22 47 -27 47 -5 0 8 7 11 18 7 14 -5 13 -3 -3 10 -22 18
-39 22 -30 8z"/>
<path d="M1115 1410 c-3 -6 1 -7 9 -4 18 7 21 14 7 14 -6 0 -13 -4 -16 -10z"/>
<path d="M2346 1403 c-6 -14 -5 -15 5 -6 7 7 10 15 7 18 -3 3 -9 -2 -12 -12z"/>
<path d="M5547 1409 c7 -7 15 -10 18 -7 3 3 -2 9 -12 12 -14 6 -15 5 -6 -5z"/>
<path d="M2966 1401 c-4 -5 3 -7 14 -4 12 3 22 -1 26 -10 3 -9 12 -13 20 -10
11 4 8 9 -12 19 -31 16 -41 17 -48 5z"/>
<path d="M3077 1391 c16 -14 19 -21 10 -30 -8 -8 -8 -11 0 -11 32 0 23 45 -10
53 l-22 6 22 -18z"/>
<path d="M3570 1400 c0 -5 5 -10 11 -10 5 0 7 5 4 10 -3 6 -8 10 -11 10 -2 0
-4 -4 -4 -10z"/>
<path d="M670 1390 c-12 -8 -11 -10 8 -10 12 0 22 5 22 10 0 13 -11 13 -30 0z"/>
<path d="M910 1392 c0 -14 11 -21 26 -15 8 3 11 9 8 14 -7 11 -34 12 -34 1z"/>
<path d="M2865 1391 c-6 -5 -21 -11 -35 -14 -22 -4 -21 -4 6 -6 20 0 34 5 38
14 6 17 4 19 -9 6z"/>
<path d="M3674 1389 c-8 -14 14 -19 25 -6 8 10 7 14 -5 14 -8 0 -17 -4 -20 -8z"/>
<path d="M3803 1384 c0 -7 9 -14 19 -14 10 0 18 2 18 5 0 2 -8 9 -18 14 -14 8
-19 6 -19 -5z"/>
<path d="M5473 1385 c0 -8 4 -12 9 -9 5 3 6 10 3 15 -9 13 -12 11 -12 -6z"/>
<path d="M975 1380 c4 -6 11 -8 16 -5 14 9 11 15 -7 15 -8 0 -12 -5 -9 -10z"/>
<path d="M1045 1380 c11 -5 14 -9 7 -9 -7 -1 -10 -6 -6 -12 4 -7 10 -7 16 -1
13 13 1 32 -20 31 -14 0 -13 -2 3 -9z"/>
<path d="M1875 1374 c-22 -11 -24 -14 -7 -10 12 2 22 0 22 -5 0 -17 18 -9 23
11 6 23 3 24 -38 4z"/>
<path d="M2465 1370 c-3 -6 1 -7 9 -4 18 7 21 14 7 14 -6 0 -13 -4 -16 -10z"/>
<path d="M3056 1366 c3 -8 0 -17 -5 -21 -6 -3 -8 -11 -5 -17 4 -6 10 -5 15 3
12 19 11 49 -1 49 -5 0 -7 -6 -4 -14z"/>
<path d="M3480 1370 c0 -5 5 -10 11 -10 5 0 7 5 4 10 -3 6 -8 10 -11 10 -2 0
-4 -4 -4 -10z"/>
<path d="M3556 1371 c-4 -5 -2 -12 3 -15 5 -4 12 -2 15 3 4 5 2 12 -3 15 -5 4
-12 2 -15 -3z"/>
<path d="M3774 1361 c0 -11 4 -17 8 -15 4 3 8 12 8 20 0 8 -4 14 -8 14 -4 0
-8 -9 -8 -19z"/>
<path d="M5770 1370 c-9 -6 -10 -10 -3 -10 6 0 15 5 18 10 8 12 4 12 -15 0z"/>
<path d="M709 1361 c12 -8 13 -12 1 -25 -14 -18 -8 -32 9 -21 6 3 9 11 6 16
-4 5 3 9 15 9 12 0 18 5 15 10 -4 6 -10 8 -15 5 -5 -3 -11 -1 -15 5 -3 5 -12
10 -18 10 -8 0 -7 -4 2 -9z"/>
<path d="M2950 1361 c0 -5 -15 -13 -32 -17 -18 -4 -27 -9 -20 -11 6 -3 10 -10
6 -16 -3 -7 1 -4 9 6 8 9 21 17 30 17 20 0 31 16 17 25 -5 3 -10 2 -10 -4z"/>
<path d="M1927 1349 c7 -7 15 -10 18 -7 3 3 -2 9 -12 12 -14 6 -15 5 -6 -5z"/>
<path d="M3620 1350 c-20 -12 -10 -19 14 -10 11 3 15 9 10 13 -6 3 -16 2 -24
-3z"/>
<path d="M3660 1347 c0 -8 7 -14 15 -14 8 0 15 6 15 14 0 7 -7 13 -15 13 -8 0
-15 -6 -15 -13z"/>
<path d="M965 1339 c-6 -8 -4 -10 5 -4 10 6 12 4 6 -11 -6 -15 -5 -17 5 -6 9
9 10 15 2 23 -8 8 -13 7 -18 -2z"/>
<path d="M1380 1341 c0 -6 4 -13 10 -16 6 -3 7 1 4 9 -7 18 -14 21 -14 7z"/>
<path d="M1660 1346 c0 -2 7 -7 16 -10 8 -3 12 -2 9 4 -6 10 -25 14 -25 6z"/>
<path d="M3110 1342 c0 -13 3 -14 42 -17 23 -2 26 1 17 12 -8 9 -15 10 -24 3
-8 -6 -15 -6 -23 2 -9 9 -12 9 -12 0z"/>
<path d="M3215 1340 c3 -5 8 -10 11 -10 2 0 4 5 4 10 0 6 -5 10 -11 10 -5 0
-7 -4 -4 -10z"/>
<path d="M777 1329 c6 -6 9 -19 6 -28 -4 -14 -3 -14 10 1 8 10 18 14 23 10 4
-4 2 1 -5 11 -7 9 -21 17 -29 17 -12 0 -13 -3 -5 -11z"/>
<path d="M1208 1328 c5 -5 16 -8 23 -6 8 3 3 7 -10 11 -17 4 -21 3 -13 -5z"/>
<path d="M2775 1330 c-3 -5 -1 -10 4 -10 6 0 11 5 11 10 0 6 -2 10 -4 10 -3 0
-8 -4 -11 -10z"/>
<path d="M3190 1325 c0 -8 4 -15 10 -15 5 0 7 7 4 15 -4 8 -8 15 -10 15 -2 0
-4 -7 -4 -15z"/>
<path d="M3516 1325 c4 -8 8 -15 10 -15 2 0 4 7 4 15 0 8 -4 15 -10 15 -5 0
-7 -7 -4 -15z"/>
<path d="M5990 1333 c1 -14 30 -48 30 -34 0 7 -7 19 -15 27 -8 9 -15 12 -15 7z"/>
<path d="M6260 1324 c0 -11 6 -69 14 -130 8 -60 18 -158 22 -219 3 -60 9 -112
11 -115 3 -3 3 50 1 118 -3 82 -1 122 6 122 6 0 4 5 -4 10 -13 9 -13 10 0 10
11 0 12 2 3 8 -7 5 -15 43 -19 92 -4 47 -13 94 -20 105 -14 19 -14 19 -14 -1z"/>
<path d="M1180 1320 c0 -5 5 -10 11 -10 5 0 7 5 4 10 -3 6 -8 10 -11 10 -2 0
-4 -4 -4 -10z"/>
<path d="M898 1313 c6 -2 10 -8 8 -11 -2 -4 6 -7 19 -7 14 0 21 5 18 13 -3 6
-17 12 -32 11 -14 0 -20 -3 -13 -6z"/>
<path d="M723 1295 c-9 -10 -8 -14 8 -18 10 -3 19 0 19 5 0 6 8 4 18 -3 15
-12 16 -12 5 2 -7 9 -11 18 -8 20 2 3 -4 5 -13 6 -9 1 -22 -5 -29 -12z"/>
<path d="M860 1301 c0 -6 4 -12 8 -15 5 -3 9 1 9 9 0 8 -4 15 -9 15 -4 0 -8
-4 -8 -9z"/>
<path d="M2731 1294 c0 -11 3 -14 6 -6 3 7 2 16 -1 19 -3 4 -6 -2 -5 -13z"/>
<path d="M2950 1300 c0 -5 5 -10 11 -10 5 0 7 5 4 10 -3 6 -8 10 -11 10 -2 0
-4 -4 -4 -10z"/>
<path d="M3035 1299 c-19 -7 -19 -8 2 -8 12 -1 24 -9 26 -18 4 -14 5 -13 6 4
1 27 -8 33 -34 22z"/>
<path d="M1665 1291 c-3 -5 -1 -12 5 -16 5 -3 10 1 10 9 0 18 -6 21 -15 7z"/>
<path d="M3185 1290 c-3 -5 -1 -10 4 -10 6 0 11 5 11 10 0 6 -2 10 -4 10 -3 0
-8 -4 -11 -10z"/>
<path d="M795 1280 c-3 -5 -1 -10 4 -10 6 0 11 5 11 10 0 6 -2 10 -4 10 -3 0
-8 -4 -11 -10z"/>
<path d="M1421 1262 c6 -18 15 -35 20 -38 5 -3 4 7 -3 23 -17 41 -30 53 -17
15z"/>
<path d="M646 1265 c4 -8 7 -15 9 -15 2 0 5 7 9 15 3 9 0 15 -9 15 -9 0 -12
-6 -9 -15z"/>
<path d="M1290 1269 c0 -15 18 -19 23 -6 3 8 -1 14 -9 14 -8 0 -14 -4 -14 -8z"/>
<path d="M2766 1272 c-3 -5 1 -9 9 -9 8 0 12 4 9 9 -3 4 -7 8 -9 8 -2 0 -6 -4
-9 -8z"/>
<path d="M3000 1270 c-12 -8 -12 -10 5 -10 11 0 27 5 35 10 12 8 12 10 -5 10
-11 0 -27 -5 -35 -10z"/>
<path d="M920 1245 c0 -16 23 -26 38 -16 6 4 1 11 -14 18 -19 9 -24 8 -24 -2z"/>
<path d="M728 1243 c7 -3 16 -2 19 1 4 3 -2 6 -13 5 -11 0 -14 -3 -6 -6z"/>
<path d="M3302 1234 c-7 -8 -8 -14 -3 -14 10 0 25 19 20 25 -2 1 -10 -3 -17
-11z"/>
<path d="M2229 1240 c0 -3 -2 -13 -4 -22 -4 -20 10 -24 21 -7 3 6 1 16 -5 22
-6 6 -11 9 -12 7z"/>
<path d="M2280 1229 c-20 -8 -22 -12 -10 -19 13 -8 13 -10 -1 -10 -9 0 -23 -8
-30 -17 -13 -16 -12 -17 3 -5 9 8 21 11 25 9 5 -3 16 8 25 24 10 16 16 29 15
28 -1 0 -13 -5 -27 -10z"/>
<path d="M3030 1230 c-8 -5 -10 -10 -5 -10 6 0 17 5 25 10 8 5 11 10 5 10 -5
0 -17 -5 -25 -10z"/>
<path d="M3128 1233 c7 -3 16 -2 19 1 4 3 -2 6 -13 5 -11 0 -14 -3 -6 -6z"/>
<path d="M3528 1233 c7 -3 16 -2 19 1 4 3 -2 6 -13 5 -11 0 -14 -3 -6 -6z"/>
<path d="M5765 1230 c-3 -5 -2 -10 4 -10 5 0 13 5 16 10 3 6 2 10 -4 10 -5 0
-13 -4 -16 -10z"/>
<path d="M6120 1231 c0 -5 5 -13 10 -16 6 -3 10 -2 10 4 0 5 -4 13 -10 16 -5
3 -10 2 -10 -4z"/>
<path d="M678 1213 c7 -3 16 -2 19 1 4 3 -2 6 -13 5 -11 0 -14 -3 -6 -6z"/>
<path d="M1200 1210 c0 -5 5 -10 10 -10 6 0 10 5 10 10 0 6 -4 10 -10 10 -5 0
-10 -4 -10 -10z"/>
<path d="M2335 1210 c3 -5 8 -10 11 -10 2 0 4 5 4 10 0 6 -5 10 -11 10 -5 0
-7 -4 -4 -10z"/>
<path d="M2775 1209 c-4 -6 -5 -12 -2 -15 2 -3 7 2 10 11 7 17 1 20 -8 4z"/>
<path d="M2980 1209 c0 -5 5 -7 10 -4 6 3 10 8 10 11 0 2 -4 4 -10 4 -5 0 -10
-5 -10 -11z"/>
<path d="M3306 1211 c-11 -4 -25 -26 -32 -52 -17 -54 -17 -72 -3 -64 6 4 8 9
5 12 -3 3 3 17 14 31 11 13 17 29 14 34 -3 5 2 18 12 29 19 21 18 21 -10 10z"/>
<path d="M910 1190 c0 -5 7 -7 15 -4 8 4 15 8 15 10 0 2 -7 4 -15 4 -8 0 -15
-4 -15 -10z"/>
<path d="M1467 1173 c4 -11 3 -14 -5 -9 -25 15 -30 -6 -10 -44 12 -21 25 -37
29 -35 4 3 5 -3 3 -12 -3 -11 14 -45 41 -82 25 -36 45 -69 45 -73 0 -5 5 -14
10 -21 6 -7 33 -43 61 -82 28 -38 55 -71 60 -73 5 -2 9 -8 9 -13 0 -6 -4 -8
-8 -5 -4 2 -8 -4 -8 -14 0 -10 6 -16 13 -13 7 3 11 -3 11 -14 -2 -22 34 -81
40 -64 2 6 -3 30 -12 53 -14 38 -14 49 -2 88 7 25 19 45 27 45 16 0 29 14 29
33 0 8 -8 10 -25 6 -19 -5 -25 -2 -25 10 0 10 9 16 24 16 18 0 27 8 34 28 8
23 5 30 -17 46 -14 10 -19 16 -10 13 9 -3 22 -1 30 4 10 6 8 9 -10 9 -13 0
-39 -9 -58 -21 -32 -20 -34 -23 -28 -63 6 -38 4 -43 -19 -56 -22 -11 -28 -11
-39 0 -10 10 -9 12 3 6 9 -5 9 -2 -2 7 -10 8 -14 17 -10 21 4 4 3 7 -3 6 -21
-5 -29 1 -15 10 13 8 13 10 -2 10 -9 0 -20 5 -24 12 -5 8 -2 9 9 5 10 -3 17
-3 17 1 0 13 -38 41 -46 34 -4 -4 -4 -1 0 6 4 7 -2 24 -14 39 -16 20 -18 28
-8 35 10 6 9 8 -4 8 -15 0 -32 28 -33 55 0 12 -54 105 -60 105 -2 0 -1 -7 2
-17z m33 -51 l20 -32 -28 17 c-36 22 -41 28 -19 20 11 -4 16 -3 12 3 -3 6 -12
10 -20 10 -8 0 -16 4 -19 8 -3 5 4 8 15 7 11 -1 29 -16 39 -33z m207 -344 c-3
-7 -5 -2 -5 12 0 14 2 19 5 13 2 -7 2 -19 0 -25z m20 0 c-3 -8 -6 -5 -6 6 -1
11 2 17 5 13 3 -3 4 -12 1 -19z"/>
<path d="M2978 1183 c7 -3 16 -2 19 1 4 3 -2 6 -13 5 -11 0 -14 -3 -6 -6z"/>
<path d="M401 1159 c-1 -10 10 -37 24 -60 28 -50 30 -60 13 -55 -7 1 -10 1 -5
-1 4 -3 7 -9 7 -14 0 -6 -5 -7 -11 -3 -6 3 -3 -5 6 -20 10 -14 20 -26 24 -26
4 0 7 -8 7 -17 0 -10 4 -34 8 -53 l8 -35 -25 23 c-16 15 -27 20 -32 13 -8 -14
4 -33 16 -25 5 3 17 0 26 -8 9 -7 19 -12 22 -11 3 1 5 -4 3 -12 -1 -7 2 -16 8
-20 5 -3 10 -11 10 -16 0 -6 -6 -7 -12 -3 -10 6 -10 5 -1 -7 6 -8 13 -25 15
-39 1 -14 9 -31 17 -39 11 -12 11 -16 -3 -27 -13 -9 -14 -13 -3 -17 7 -3 12
-18 12 -33 -1 -16 2 -39 7 -51 4 -13 4 -23 -2 -23 -7 0 -33 71 -32 90 0 3 -4
10 -8 15 -5 6 -7 23 -6 38 3 23 1 25 -12 15 -13 -11 -14 -10 -8 8 4 15 2 24
-9 28 -18 7 -19 -1 -2 -34 22 -42 27 -69 11 -63 -8 3 -14 9 -14 14 0 5 0 11 0
14 0 3 -9 25 -20 50 -11 25 -17 45 -13 45 10 0 -20 31 -41 42 -20 10 -19 9 2
-11 12 -12 22 -32 22 -44 0 -13 4 -27 10 -33 5 -5 11 -18 13 -29 2 -11 12 -37
21 -59 20 -46 16 -57 -8 -20 -10 14 -15 28 -12 32 4 3 -4 16 -16 29 -12 13
-18 23 -14 23 5 0 3 7 -4 15 -7 8 -10 15 -6 15 3 0 -3 15 -14 33 -11 17 -20
40 -20 50 0 9 -4 17 -10 17 -5 0 -10 6 -10 14 0 8 -4 17 -9 21 -15 8 -9 -38 6
-54 10 -9 11 -17 3 -26 -7 -9 -6 -16 5 -25 9 -7 14 -19 11 -27 -4 -8 -1 -11 5
-8 6 4 9 1 7 -6 -1 -8 6 -27 17 -42 15 -24 16 -30 4 -38 -11 -7 -11 -9 4 -9 9
0 17 -7 17 -15 0 -8 4 -15 9 -15 5 0 14 -14 20 -30 6 -18 6 -30 0 -30 -5 0 -9
7 -9 16 0 8 -5 12 -10 9 -13 -8 6 -35 24 -35 18 -1 47 -49 44 -73 -2 -12 2
-21 7 -20 6 1 11 -7 11 -16 0 -15 -3 -16 -18 -7 -10 6 -18 17 -18 24 0 7 -11
24 -24 37 -14 14 -20 27 -15 30 5 4 12 -1 15 -9 3 -9 10 -13 16 -10 13 9 -11
34 -33 34 -11 0 -19 5 -19 11 0 5 -4 8 -9 4 -5 -3 -12 -1 -15 4 -4 5 -1 13 5
16 7 5 3 12 -10 22 -12 8 -18 19 -15 25 4 7 2 8 -4 4 -7 -4 -12 -1 -12 7 0 8
-7 20 -15 27 -8 7 -15 21 -15 32 0 10 -9 28 -20 40 -25 27 -25 33 1 59 11 11
15 19 7 18 -26 -3 -38 1 -58 23 -21 23 -27 44 -10 33 6 -3 10 -1 10 4 0 6 -7
11 -16 11 -9 0 -14 6 -11 13 2 6 0 23 -5 36 -5 15 -5 27 1 30 5 4 4 13 -4 24
-11 15 -12 10 -10 -35 2 -48 22 -126 36 -138 3 -3 22 -39 43 -80 90 -175 114
-215 185 -300 25 -30 45 -58 44 -62 -2 -4 6 -9 16 -13 24 -7 32 -27 17 -40
-17 -14 -36 -17 -36 -5 0 6 -9 10 -19 10 -10 0 -22 7 -25 16 -3 8 -11 12 -17
8 -8 -4 -9 -3 -5 4 4 7 -4 23 -18 37 -27 27 -22 31 18 15 18 -6 24 -14 20 -25
-5 -11 0 -18 15 -22 11 -3 19 -9 16 -13 -5 -8 36 -23 43 -16 2 2 -8 15 -22 29
-14 15 -26 22 -26 17 0 -6 -4 -10 -9 -10 -4 0 -7 11 -6 25 2 17 -3 26 -16 30
-10 4 -19 13 -19 21 0 8 -7 14 -15 14 -8 0 -15 6 -15 13 0 9 -3 8 -9 -2 -9
-15 -31 -7 -31 11 0 6 -8 17 -17 24 -11 8 -13 13 -5 14 6 0 12 7 12 15 0 9 -6
12 -15 9 -9 -4 -17 1 -21 12 -3 11 -10 27 -15 38 -7 13 -7 16 0 11 6 -3 11 -1
11 4 0 6 -5 11 -11 11 -5 0 -8 4 -5 9 3 5 -1 12 -9 15 -12 4 -13 2 -5 -13 7
-14 6 -21 -1 -23 -8 -3 -6 -10 5 -21 20 -19 7 -24 -13 -4 -11 10 -13 9 -7 -6
3 -10 6 -21 6 -23 0 -2 6 -4 14 -4 8 0 16 -7 20 -15 5 -14 -5 -20 -27 -16 -5
1 -5 -4 -2 -10 4 -6 15 -9 25 -6 13 3 16 0 12 -16 -3 -14 -1 -18 6 -13 7 4 12
1 12 -7 0 -8 9 -22 20 -32 11 -10 20 -24 20 -32 0 -7 5 -13 11 -13 5 0 7 -5 4
-10 -4 -6 4 -19 17 -30 13 -11 19 -19 15 -20 -5 0 -15 7 -24 15 -9 9 -23 13
-35 9 -14 -4 -33 8 -75 50 -43 43 -59 53 -72 46 -12 -7 -12 -9 -2 -10 7 0 22
-10 33 -22 11 -13 36 -41 57 -63 21 -22 39 -44 42 -50 2 -5 7 -9 11 -8 5 2 8
-4 8 -12 0 -8 3 -14 8 -14 20 3 32 -3 32 -16 0 -9 12 -20 27 -26 14 -5 34 -19
43 -29 9 -11 20 -17 24 -13 3 3 6 1 6 -5 0 -6 8 -13 18 -16 31 -10 71 -51 63
-65 -11 -17 -54 -10 -63 9 -5 11 -7 9 -7 -7 -1 -16 5 -23 18 -23 11 0 22 -4
26 -10 3 -5 11 -7 19 -4 7 3 13 -2 13 -11 0 -9 -6 -14 -14 -11 -8 3 -11 1 -8
-4 3 -6 13 -10 21 -10 8 0 13 -5 11 -12 -1 -6 6 -14 17 -16 16 -3 17 1 11 40
-3 23 -6 57 -6 73 0 19 -3 25 -8 17 -4 -7 -13 28 -20 85 -7 54 -14 106 -17
116 -4 12 1 17 18 18 17 1 18 3 6 6 -16 4 -22 15 -19 35 0 5 -3 8 -8 8 -5 0
-9 10 -9 23 0 12 -2 31 -4 42 -2 13 2 19 10 17 8 -1 11 2 7 8 -3 6 -11 8 -16
5 -5 -4 -9 4 -10 17 0 13 -2 33 -3 46 -2 12 2 22 8 22 8 0 8 3 0 8 -6 4 -11
25 -10 46 3 51 -12 156 -23 170 -7 9 -16 45 -27 101 -1 6 -3 15 -4 20 -1 6 -3
15 -4 20 -1 6 -7 23 -14 38 -7 16 -12 33 -12 38 0 5 -4 9 -10 9 -5 0 -7 6 -5
13 3 6 -8 39 -24 72 -16 33 -30 53 -30 44z m-111 -354 c0 -12 -19 -12 -23 0
-4 9 -1 12 9 8 7 -3 14 -7 14 -8z m201 -162 c13 -16 12 -17 -3 -4 -10 7 -18
15 -18 17 0 8 8 3 21 -13z m8 -40 c1 -36 5 -53 11 -53 7 0 43 -60 38 -65 -9
-9 -28 14 -57 67 -28 51 -29 57 -14 61 10 3 19 5 20 6 1 0 2 -7 2 -16z m-102
-274 c10 -10 32 -16 60 -18 7 -1 10 -7 7 -15 -3 -7 7 -21 23 -31 15 -10 34
-25 41 -32 7 -7 20 -13 28 -13 8 0 14 -7 14 -16 0 -8 4 -13 8 -10 5 3 9 -1 9
-9 0 -13 -3 -13 -17 0 -9 8 -20 15 -25 15 -4 0 -13 7 -19 16 -10 13 -28 20
-59 23 -5 1 -5 6 -2 11 3 6 2 10 -3 10 -4 0 -19 10 -32 23 -14 12 -27 21 -30
20 -3 -2 -5 2 -5 7 0 6 -7 15 -15 20 -8 5 -10 10 -4 10 5 0 15 -5 21 -11z
m151 -54 c-3 -3 -9 2 -12 12 -6 14 -5 15 5 6 7 -7 10 -15 7 -18z"/>
<path d="M2355 1161 c-3 -5 -2 -12 3 -15 5 -3 9 1 9 9 0 17 -3 19 -12 6z"/>
<path d="M5770 1156 c0 -8 4 -17 9 -20 5 -4 7 3 4 14 -6 23 -13 26 -13 6z"/>
<path d="M6330 1138 c0 -27 4 -38 15 -38 8 0 17 -11 21 -25 7 -27 34 -56 34
-36 0 11 -39 92 -59 121 -8 11 -11 6 -11 -22z"/>
<path d="M2220 1146 c7 -7 14 -6 21 1 9 9 7 12 -9 10 -14 -1 -18 -5 -12 -11z"/>
<path d="M1360 1145 c0 -2 13 -7 28 -13 21 -7 29 -7 29 2 0 6 -13 12 -29 13
-15 0 -28 -1 -28 -2z"/>
<path d="M2573 1143 c10 -3 14 -9 10 -16 -4 -7 2 -5 13 3 10 8 21 16 23 17 2
2 -11 2 -30 2 -19 -1 -26 -3 -16 -6z"/>
<path d="M1258 1133 c7 -3 16 -2 19 1 4 3 -2 6 -13 5 -11 0 -14 -3 -6 -6z"/>
<path d="M2160 1133 c-8 -2 -33 -28 -54 -58 -22 -30 -47 -55 -56 -55 -41 0
-74 -82 -35 -87 20 -3 20 -3 0 6 -19 8 -19 8 4 20 19 11 22 11 15 -1 -4 -7 2
-4 14 6 29 25 40 14 14 -14 -11 -12 -19 -32 -19 -46 0 -14 -6 -31 -12 -37 -10
-9 -10 -5 -1 17 9 25 9 27 -4 17 -8 -7 -14 -25 -14 -41 l1 -30 24 28 c12 15
23 31 23 35 0 5 6 5 13 1 9 -6 9 -4 -1 8 -11 14 -11 16 6 11 12 -3 22 2 26 13
6 15 4 15 -10 3 -16 -13 -16 -12 -4 8 8 12 16 21 19 21 4 0 15 0 26 1 l20 2
-20 15 c-19 16 -19 16 8 12 21 -4 25 -2 17 7 -14 17 -2 45 19 45 14 0 14 2 1
10 -12 8 -12 10 5 11 11 0 14 3 7 6 -8 3 -4 11 13 25 14 11 24 25 22 31 -4 12
-40 17 -67 10z m60 -17 c0 -3 -4 -8 -10 -11 -5 -3 -10 -1 -10 4 0 6 5 11 10
11 6 0 10 -2 10 -4z m-98 -79 c-9 -17 -24 -32 -32 -35 -9 -3 -8 1 4 10 10 8
16 20 12 26 -9 16 -1 29 19 29 13 0 13 -4 -3 -30z"/>
<path d="M3439 1123 c-13 -16 -12 -17 4 -4 9 7 17 15 17 17 0 8 -8 3 -21 -13z"/>
<path d="M6844 1106 c-3 -19 -3 -39 0 -44 3 -5 -2 -9 -10 -8 -16 1 -25 -19
-26 -54 0 -17 9 -102 12 -110 4 -12 42 141 47 193 6 63 -11 82 -23 23z"/>
<path d="M2285 1122 c3 -3 0 -11 -7 -19 -8 -11 -7 -12 5 -7 21 7 29 31 11 31
-8 0 -12 -3 -9 -5z"/>
<path d="M1355 1110 c-3 -5 -1 -10 4 -10 6 0 11 5 11 10 0 6 -2 10 -4 10 -3 0
-8 -4 -11 -10z"/>
<path d="M2945 1110 c-3 -5 -1 -10 4 -10 6 0 11 5 11 10 0 6 -2 10 -4 10 -3 0
-8 -4 -11 -10z"/>
<path d="M477 1090 c3 -10 12 -25 21 -32 13 -11 12 -8 -2 20 -19 36 -27 41
-19 12z"/>
<path d="M910 1100 c0 -5 6 -9 13 -7 6 1 11 -6 11 -15 -1 -10 2 -18 7 -18 13
0 11 24 -3 38 -15 15 -28 16 -28 2z"/>
<path d="M1434 1085 c3 -36 25 -81 26 -52 0 9 -5 17 -11 17 -5 0 -8 4 -5 9 4
5 2 20 -3 33 -9 21 -10 21 -7 -7z"/>
<path d="M2490 1106 c0 -2 7 -7 16 -10 8 -3 12 -2 9 4 -6 10 -25 14 -25 6z"/>
<path d="M5778 1103 c7 -3 16 -2 19 1 4 3 -2 6 -13 5 -11 0 -14 -3 -6 -6z"/>
<path d="M400 1090 c0 -5 5 -10 11 -10 5 0 7 5 4 10 -3 6 -8 10 -11 10 -2 0
-4 -4 -4 -10z"/>
<path d="M1412 1080 c0 -14 2 -19 5 -12 2 6 2 18 0 25 -3 6 -5 1 -5 -13z"/>
<path d="M1828 1070 c2 -16 6 -30 8 -30 2 0 4 14 4 30 0 17 -4 30 -8 30 -5 0
-7 -13 -4 -30z"/>
<path d="M6171 1074 c0 -11 3 -14 6 -6 3 7 2 16 -1 19 -3 4 -6 -2 -5 -13z"/>
<path d="M3243 1051 c-8 -22 -8 -28 1 -25 6 2 13 16 14 29 2 33 -1 31 -15 -4z"/>
<path d="M2330 1049 c0 -5 5 -7 10 -4 6 3 10 8 10 11 0 2 -4 4 -10 4 -5 0 -10
-5 -10 -11z"/>
<path d="M1150 1040 c-9 -6 -10 -10 -3 -10 6 0 15 5 18 10 8 12 4 12 -15 0z"/>
<path d="M503 1025 c0 -8 3 -13 5 -10 3 3 12 -1 21 -7 10 -8 9 -4 -3 10 -23
26 -23 26 -23 7z"/>
<path d="M2243 1025 c0 -8 4 -12 9 -9 5 3 6 10 3 15 -9 13 -12 11 -12 -6z"/>
<path d="M3406 1023 c-6 -14 -5 -15 5 -6 7 7 10 15 7 18 -3 3 -9 -2 -12 -12z"/>
<path d="M1586 1021 c-8 -13 15 -28 52 -33 23 -3 30 -2 22 6 -6 6 -23 11 -38
11 -16 0 -26 5 -24 13 2 14 -4 16 -12 3z"/>
<path d="M1840 1021 c0 -5 -10 -11 -22 -13 -21 -3 -21 -4 5 -9 22 -5 27 -3 27
12 0 11 -2 19 -5 19 -3 0 -5 -4 -5 -9z"/>
<path d="M1458 979 c2 -16 8 -29 12 -29 9 0 1 48 -9 55 -4 2 -5 -9 -3 -26z"/>
<path d="M3230 993 c0 -7 4 -13 9 -13 5 0 11 6 14 13 3 8 -1 14 -9 14 -8 0
-14 -6 -14 -14z"/>
<path d="M6334 980 c0 -17 5 -30 9 -30 10 0 -2 -83 -13 -90 -5 -3 0 -15 10
-27 9 -12 21 -19 24 -15 4 3 4 -1 1 -10 -4 -11 0 -18 14 -23 11 -3 18 -12 15
-19 -3 -7 3 -19 13 -26 15 -12 16 -12 6 0 -18 20 -16 33 5 26 13 -4 11 -1 -5
13 -14 11 -20 25 -17 37 5 18 -28 69 -37 59 -3 -2 -5 5 -6 16 -2 17 1 18 13 9
11 -10 14 -9 14 9 0 15 -4 20 -12 15 -10 -6 -10 -4 0 8 10 13 10 19 -3 31 -8
9 -15 20 -15 26 0 5 -4 12 -9 15 -5 3 -8 -8 -7 -24z m32 -147 c-7 -7 -26 7
-26 19 0 6 6 6 15 -2 9 -7 13 -15 11 -17z"/>
<path d="M283 985 c0 -8 6 -16 14 -19 7 -3 13 -2 13 3 0 5 -6 14 -13 20 -10 8
-14 7 -14 -4z"/>
<path d="M2227 985 c-5 -11 0 -15 16 -15 12 0 18 4 12 8 -5 4 -13 11 -16 15
-4 4 -9 1 -12 -8z"/>
<path d="M530 980 c0 -5 5 -10 11 -10 5 0 7 5 4 10 -3 6 -8 10 -11 10 -2 0 -4
-4 -4 -10z"/>
<path d="M3287 977 c4 -6 0 -8 -10 -4 -11 4 -14 2 -10 -9 6 -16 -12 -19 -22
-3 -11 17 -28 5 -31 -22 -3 -37 -12 -70 -23 -83 -7 -9 -7 -16 0 -23 8 -8 8
-13 0 -17 -15 -10 -14 -43 2 -43 7 0 19 7 27 16 13 13 12 14 -3 8 -9 -3 -19
-2 -22 4 -4 5 0 12 9 15 9 3 13 16 12 32 -2 15 2 30 8 34 8 6 8 8 -1 8 -7 0
-10 7 -7 15 4 8 10 12 15 9 5 -3 4 7 -1 23 -9 25 -8 26 4 11 17 -23 20 -23 51
7 29 30 30 32 10 32 -8 0 -11 -5 -8 -10z"/>
<path d="M3389 981 c-1 -3 -1 -9 0 -13 0 -5 -3 -8 -9 -8 -5 0 -10 -7 -10 -15
0 -8 -8 -15 -17 -15 -11 0 -14 -3 -8 -8 6 -4 10 -17 9 -29 -1 -12 3 -20 8 -17
4 3 6 9 3 14 -8 13 6 41 18 33 6 -3 7 -1 3 5 -4 7 -2 12 3 12 6 0 11 9 11 20
0 12 5 17 14 14 8 -3 16 -2 19 3 3 4 -6 9 -19 9 -13 1 -25 -1 -25 -5z"/>
<path d="M400 966 c0 -8 4 -17 9 -20 5 -4 7 3 4 14 -6 23 -13 26 -13 6z"/>
<path d="M2768 973 c6 -2 18 -2 25 0 6 3 1 5 -13 5 -14 0 -19 -2 -12 -5z"/>
<path d="M2678 963 c7 -3 16 -2 19 1 4 3 -2 6 -13 5 -11 0 -14 -3 -6 -6z"/>
<path d="M300 935 c0 -8 5 -15 10 -15 6 0 10 7 10 15 0 8 -4 15 -10 15 -5 0
-10 -7 -10 -15z"/>
<path d="M7113 875 c0 -38 2 -53 4 -32 2 20 2 52 0 70 -2 17 -4 1 -4 -38z"/>
<path d="M170 919 c0 -8 7 -24 16 -35 14 -18 15 -18 8 6 -8 31 -24 50 -24 29z"/>
<path d="M920 916 c0 -2 9 -6 20 -9 11 -3 18 -1 14 4 -5 9 -34 13 -34 5z"/>
<path d="M3250 899 c-7 -11 -9 -23 -7 -26 3 -2 10 5 16 16 7 13 18 18 29 15
14 -5 15 -4 2 5 -21 15 -28 14 -40 -10z"/>
<path d="M547 903 c-4 -3 -7 -11 -7 -17 0 -6 5 -5 12 2 6 6 9 14 7 17 -3 3 -9
2 -12 -2z"/>
<path d="M7182 827 c0 -40 -3 -89 -6 -107 -12 -59 -59 -190 -68 -190 -5 0 -6
-4 -3 -10 3 -5 1 -10 -5 -10 -22 0 -59 -55 -60 -87 0 -37 15 -44 25 -13 3 11
13 20 21 20 19 0 18 -5 -10 -34 -27 -30 -56 -34 -56 -8 0 31 -21 44 -42 25
-10 -9 -18 -22 -18 -30 0 -7 -4 -13 -10 -13 -5 0 -10 -4 -10 -10 0 -5 11 -10
24 -10 14 0 27 -4 31 -10 3 -5 12 -7 20 -4 7 3 18 -4 25 -16 15 -29 10 -32
-23 -15 -25 13 -26 13 -17 -5 8 -16 6 -18 -19 -16 -16 1 -37 10 -47 20 -17 18
-18 18 -26 -3 -4 -11 -12 -21 -18 -21 -16 0 -12 30 11 66 l21 34 -27 10 c-26
10 -27 12 -20 68 9 80 26 132 42 132 8 0 13 12 13 35 0 36 -13 47 -24 20 -3
-8 -12 -15 -21 -15 -8 0 -15 -4 -15 -10 0 -17 -28 -11 -34 8 -5 17 -2 -79 10
-356 l7 -143 50 -65 49 -64 124 0 124 0 0 139 c0 117 -2 140 -16 145 -22 8
-26 8 -19 -4 3 -6 1 -10 -5 -10 -7 0 -9 8 -5 20 4 11 2 20 -4 20 -6 0 -11 -7
-11 -16 0 -8 -5 -12 -11 -9 -6 4 -8 10 -5 13 3 3 1 11 -5 18 -7 9 -5 14 9 18
40 13 50 80 16 113 -15 15 -28 17 -19 3 3 -5 -1 -10 -10 -10 -12 0 -15 5 -11
16 3 9 6 18 6 20 0 2 8 4 18 4 10 0 31 13 45 30 l27 30 0 174 c0 101 -4 177
-10 181 -5 3 -9 -23 -8 -68z m-102 -529 c0 -18 -2 -20 -9 -8 -6 8 -7 18 -5 22
9 14 14 9 14 -14z m30 -16 c0 -15 -2 -15 -10 -2 -13 20 -13 33 0 25 6 -3 10
-14 10 -23z"/>
<path d="M377 864 c23 -17 30 -17 30 -1 0 6 -11 13 -24 13 -22 2 -23 1 -6 -12z"/>
<path d="M432 865 c-7 -9 -8 -15 -2 -15 5 0 10 -7 10 -15 0 -8 5 -15 10 -15 6
0 9 6 8 13 -2 6 3 11 10 9 10 -2 10 2 0 18 -15 24 -19 24 -36 5z"/>
<path d="M7041 868 c-1 -10 -6 -18 -12 -18 -8 0 -9 -19 -4 -60 4 -33 3 -60 -2
-60 -4 0 -8 -32 -9 -72 0 -43 -5 -73 -11 -75 -7 -3 -9 -16 -7 -29 3 -15 1 -23
-5 -20 -5 4 -12 -3 -16 -14 -3 -11 -11 -20 -16 -20 -5 0 -9 -7 -9 -15 0 -8 -4
-15 -10 -15 -15 0 -32 -39 -23 -54 6 -10 15 -11 31 -5 20 8 21 11 11 31 -11
21 -11 22 4 9 15 -12 17 -11 17 7 0 15 5 20 15 16 11 -5 22 10 41 52 14 33 32
73 40 91 21 48 14 140 -17 218 -4 11 -10 27 -12 35 -4 12 -6 11 -6 -2z"/>
<path d="M2070 860 c0 -5 5 -10 11 -10 5 0 7 5 4 10 -3 6 -8 10 -11 10 -2 0
-4 -4 -4 -10z"/>
<path d="M2215 860 c-16 -7 -17 -9 -3 -9 9 -1 20 4 23 9 7 11 7 11 -20 0z"/>
<path d="M2168 853 c7 -3 16 -2 19 1 4 3 -2 6 -13 5 -11 0 -14 -3 -6 -6z"/>
<path d="M2460 856 c0 -2 7 -7 16 -10 8 -3 12 -2 9 4 -6 10 -25 14 -25 6z"/>
<path d="M3335 850 c-3 -5 -1 -10 4 -10 6 0 11 5 11 10 0 6 -2 10 -4 10 -3 0
-8 -4 -11 -10z"/>
<path d="M1551 837 c2 -1 13 -9 24 -17 19 -14 19 -14 6 3 -7 9 -18 17 -24 17
-6 0 -8 -1 -6 -3z"/>
<path d="M2415 831 c-3 -5 -2 -12 3 -15 5 -3 9 1 9 9 0 17 -3 19 -12 6z"/>
<path d="M3283 818 c1 -8 -6 -12 -18 -10 -15 2 -17 1 -6 -6 11 -8 10 -12 -5
-20 -10 -6 -16 -13 -13 -16 7 -8 59 39 59 54 0 5 -4 10 -10 10 -5 0 -9 -6 -7
-12z"/>
<path d="M3410 820 c-9 -6 -10 -10 -3 -10 6 0 15 5 18 10 8 12 4 12 -15 0z"/>
<path d="M1983 808 c-8 -14 -13 -38 -8 -38 1 0 10 11 19 25 9 14 12 25 7 25
-5 0 -13 -6 -18 -12z"/>
<path d="M2538 813 c7 -3 16 -2 19 1 4 3 -2 6 -13 5 -11 0 -14 -3 -6 -6z"/>
<path d="M6311 794 c0 -11 3 -14 6 -6 3 7 2 16 -1 19 -3 4 -6 -2 -5 -13z"/>
<path d="M798 773 c7 -3 16 -2 19 1 4 3 -2 6 -13 5 -11 0 -14 -3 -6 -6z"/>
<path d="M3353 758 c-2 -18 0 -20 7 -8 12 18 13 30 2 30 -4 0 -9 -10 -9 -22z"/>
<path d="M6322 755 c0 -11 4 -31 8 -45 6 -20 8 -21 8 -5 0 11 -4 31 -8 45 -6
20 -8 21 -8 5z"/>
<path d="M3227 724 c-14 -19 -15 -24 -4 -24 20 0 37 23 29 37 -5 7 -13 2 -25
-13z"/>
<path d="M250 710 c5 -17 9 -34 9 -37 0 -4 4 -9 9 -11 6 -2 5 14 -1 38 -6 22
-14 40 -18 40 -4 0 -4 -14 1 -30z"/>
<path d="M2078 733 c6 -2 18 -2 25 0 6 3 1 5 -13 5 -14 0 -19 -2 -12 -5z"/>
<path d="M3164 730 c-8 -14 -10 -29 -13 -93 -1 -16 -5 -26 -9 -23 -5 3 -7 -7
-4 -23 2 -16 -2 -32 -11 -39 -15 -13 -12 -56 4 -46 5 3 9 0 9 -5 0 -6 -6 -11
-13 -11 -7 0 -20 -11 -31 -24 -11 -15 -24 -23 -34 -20 -10 3 -5 -3 11 -12 15
-10 27 -25 27 -34 0 -16 -42 -174 -59 -225 -5 -16 -11 -63 -13 -102 -3 -66 -2
-73 15 -73 10 0 17 5 15 12 -2 6 10 25 26 41 26 24 27 28 10 23 -28 -9 -61 3
-42 15 7 5 20 6 29 4 20 -6 45 20 29 30 -5 3 -10 -2 -10 -12 0 -14 -2 -15 -9
-4 -17 26 -2 40 37 35 32 -4 34 -3 14 6 -13 5 -20 14 -17 20 3 5 -3 10 -14 10
-24 0 -28 18 -6 26 8 4 12 10 9 15 -3 5 0 9 5 9 6 0 11 9 11 20 0 22 54 83 83
93 9 4 17 13 17 22 0 8 8 16 18 17 9 0 23 2 30 2 22 2 37 37 21 47 -11 7 -11
9 -1 9 7 0 10 5 7 10 -3 6 3 10 13 10 12 0 22 9 25 21 3 12 10 18 16 14 6 -3
11 -1 11 5 0 7 7 9 17 6 10 -4 14 -4 10 0 -10 10 44 44 57 37 7 -3 6 -1 0 6
-9 10 -23 7 -65 -13 -29 -13 -56 -23 -61 -20 -4 3 -8 -1 -8 -8 0 -7 -13 -14
-30 -15 l-31 -2 21 29 c12 16 25 32 30 35 6 4 10 12 10 18 0 7 -11 -1 -23 -17
-16 -20 -26 -25 -31 -18 -9 15 2 34 15 27 5 -3 6 1 3 9 -3 8 2 16 13 19 17 4
17 5 -1 6 -18 1 -18 2 2 20 12 10 19 21 15 25 -3 3 4 17 16 30 19 20 20 25 7
35 -12 10 -14 9 -9 -9 4 -16 0 -23 -15 -27 -13 -3 -19 -10 -15 -19 3 -8 0 -14
-7 -14 -6 0 -8 -4 -5 -10 3 -5 2 -10 -3 -10 -5 0 -21 -17 -35 -37 -31 -47 -87
-111 -87 -101 0 4 18 31 40 60 55 73 50 89 -9 29 -26 -28 -51 -48 -53 -45 -5
4 14 64 51 157 16 41 13 46 -9 17 -11 -14 -20 -20 -20 -14 0 5 5 15 11 21 6 6
9 17 7 24 -3 10 -6 10 -14 -1z m106 -204 c0 -2 -9 -6 -20 -9 -11 -3 -18 -1
-14 4 5 9 34 13 34 5z m-10 -68 c0 -5 -7 -8 -15 -4 -9 3 -15 0 -15 -8 0 -8 -6
-17 -12 -20 -10 -5 -10 -7 0 -12 9 -4 3 -13 -19 -30 -18 -13 -35 -21 -40 -19
-4 3 -10 -3 -14 -12 -3 -10 -18 -27 -33 -38 -27 -19 -27 -19 -12 0 8 11 25 31
37 44 12 14 20 28 17 32 -2 4 8 6 23 3 16 -2 23 -1 17 3 -14 10 -14 43 0 43 7
0 19 9 29 20 17 20 37 19 37 -2z m-155 -17 c-3 -6 -11 -11 -17 -11 -6 0 -6 6
2 15 14 17 26 13 15 -4z m190 -31 c-3 -5 -10 -10 -16 -10 -5 0 -9 5 -9 10 0 6
7 10 16 10 8 0 12 -4 9 -10z m-195 -249 c-8 -6 -18 -7 -22 -5 -4 3 -8 0 -8 -7
0 -7 -3 -10 -6 -6 -11 11 7 27 29 27 17 0 19 -2 7 -9z"/>
<path d="M645 720 c3 -5 8 -10 11 -10 2 0 4 5 4 10 0 6 -5 10 -11 10 -5 0 -7
-4 -4 -10z"/>
<path d="M1816 707 c-12 -9 -17 -23 -14 -42 3 -26 7 -30 33 -30 26 0 30 4 33
32 4 39 -24 60 -52 40z"/>
<path d="M3255 700 c-3 -5 -14 -10 -23 -10 -17 0 -60 -65 -67 -101 -6 -29 8
-23 29 14 19 31 21 37 24 65 2 16 22 16 36 -1 6 -7 10 -10 9 -8 -1 2 2 12 7
22 11 19 -4 37 -15 19z"/>
<path d="M2048 693 c7 -3 16 -2 19 1 4 3 -2 6 -13 5 -11 0 -14 -3 -6 -6z"/>
<path d="M2483 683 c9 -2 23 -2 30 0 6 3 -1 5 -18 5 -16 0 -22 -2 -12 -5z"/>
<path d="M6341 664 c0 -11 3 -14 6 -6 3 7 2 16 -1 19 -3 4 -6 -2 -5 -13z"/>
<path d="M213 645 c0 -8 4 -12 9 -9 5 3 6 10 3 15 -9 13 -12 11 -12 -6z"/>
<path d="M2516 643 c-6 -14 -5 -15 5 -6 7 7 10 15 7 18 -3 3 -9 -2 -12 -12z"/>
<path d="M3115 650 c-3 -5 -1 -10 4 -10 6 0 11 5 11 10 0 6 -2 10 -4 10 -3 0
-8 -4 -11 -10z"/>
<path d="M2540 630 c0 -5 7 -7 15 -4 8 4 15 8 15 10 0 2 -7 4 -15 4 -8 0 -15
-4 -15 -10z"/>
<path d="M2800 636 c0 -2 7 -7 16 -10 8 -3 12 -2 9 4 -6 10 -25 14 -25 6z"/>
<path d="M2973 633 c9 -2 25 -2 35 0 9 3 1 5 -18 5 -19 0 -27 -2 -17 -5z"/>
<path d="M3245 630 c3 -5 8 -10 11 -10 2 0 4 5 4 10 0 6 -5 10 -11 10 -5 0 -7
-4 -4 -10z"/>
<path d="M3416 631 c-3 -4 6 -6 19 -3 14 2 25 6 25 8 0 8 -39 4 -44 -5z"/>
<path d="M2240 610 c0 -5 5 -10 11 -10 5 0 7 5 4 10 -3 6 -8 10 -11 10 -2 0
-4 -4 -4 -10z"/>
<path d="M1436 583 c-6 -14 -5 -15 5 -6 7 7 10 15 7 18 -3 3 -9 -2 -12 -12z"/>
<path d="M2326 591 c-3 -5 1 -11 9 -14 9 -4 12 -1 8 9 -6 16 -10 17 -17 5z"/>
<path d="M1715 580 c3 -5 8 -10 11 -10 2 0 4 5 4 10 0 6 -5 10 -11 10 -5 0 -7
-4 -4 -10z"/>
<path d="M3078 583 c6 -2 18 -2 25 0 6 3 1 5 -13 5 -14 0 -19 -2 -12 -5z"/>
<path d="M157 567 c4 -6 8 -14 8 -17 1 -18 29 -69 35 -65 4 3 11 -2 14 -11 4
-9 9 -14 12 -11 8 7 -35 77 -47 77 -4 0 -6 6 -3 14 3 7 -2 16 -11 20 -11 4
-14 2 -8 -7z"/>
<path d="M2970 569 c0 -5 5 -7 10 -4 6 3 10 8 10 11 0 2 -4 4 -10 4 -5 0 -10
-5 -10 -11z"/>
<path d="M10 541 c0 -6 4 -13 10 -16 6 -3 7 1 4 9 -7 18 -14 21 -14 7z"/>
<path d="M2118 533 c6 -2 10 -9 7 -14 -4 -5 1 -6 10 -2 13 5 14 7 3 14 -7 5
-17 8 -23 8 -5 0 -4 -3 3 -6z"/>
<path d="M6721 480 c-23 -33 -40 -60 -38 -60 8 0 90 111 85 115 -2 3 -23 -22
-47 -55z"/>
<path d="M231 514 c0 -11 3 -14 6 -6 3 7 2 16 -1 19 -3 4 -6 -2 -5 -13z"/>
<path d="M3420 519 c0 -5 5 -7 10 -4 6 3 10 8 10 11 0 2 -4 4 -10 4 -5 0 -10
-5 -10 -11z"/>
<path d="M3488 523 c7 -3 16 -2 19 1 4 3 -2 6 -13 5 -11 0 -14 -3 -6 -6z"/>
<path d="M5360 520 c0 -6 -4 -9 -9 -6 -4 3 -6 -6 -3 -19 2 -14 9 -25 14 -25 5
0 6 4 3 10 -4 6 1 7 11 3 12 -4 15 -3 10 5 -4 7 -1 12 8 12 8 0 14 -6 12 -12
-1 -7 -1 -10 1 -5 3 4 11 7 19 7 8 0 14 5 14 12 0 6 -3 9 -6 6 -3 -4 -21 0
-40 8 -22 9 -34 10 -34 4z"/>
<path d="M471 504 c0 -11 3 -14 6 -6 3 7 2 16 -1 19 -3 4 -6 -2 -5 -13z"/>
<path d="M1715 510 c-3 -5 -1 -10 4 -10 6 0 11 5 11 10 0 6 -2 10 -4 10 -3 0
-8 -4 -11 -10z"/>
<path d="M1949 518 c-5 -18 -6 -38 -1 -34 7 8 12 36 6 36 -2 0 -4 -1 -5 -2z"/>
<path d="M16 497 c3 -10 9 -15 12 -12 3 3 0 11 -7 18 -10 9 -11 8 -5 -6z"/>
<path d="M2316 497 c3 -10 9 -15 12 -12 3 3 0 11 -7 18 -10 9 -11 8 -5 -6z"/>
<path d="M2340 500 c0 -5 5 -10 10 -10 6 0 10 5 10 10 0 6 -4 10 -10 10 -5 0
-10 -4 -10 -10z"/>
<path d="M260 491 c0 -5 7 -14 15 -21 8 -7 15 -17 15 -23 0 -5 17 -27 39 -48
l39 -38 -1 27 c0 15 -2 21 -5 14 -3 -10 -11 -7 -28 9 -13 12 -24 28 -24 35 0
6 -7 15 -16 18 -8 3 -13 10 -10 15 3 5 -1 11 -9 15 -8 3 -15 2 -15 -3z"/>
<path d="M2026 493 c-3 -4 -6 -11 -6 -17 0 -6 4 -6 11 1 6 6 18 9 25 6 8 -3
14 -1 14 4 0 10 -35 15 -44 6z"/>
<path d="M2086 489 c3 -6 0 -16 -7 -21 -12 -8 -11 -9 1 -5 18 4 27 37 10 37
-6 0 -8 -5 -4 -11z"/>
<path d="M5530 484 c0 -8 5 -12 10 -9 6 3 10 -1 10 -9 0 -9 7 -16 15 -16 8 0
15 7 15 16 0 9 5 12 12 8 7 -4 8 -3 4 4 -4 6 -14 8 -23 5 -11 -4 -14 -3 -9 5
5 8 0 12 -13 12 -12 0 -21 -7 -21 -16z"/>
<path d="M1721 444 c0 -11 3 -14 6 -6 3 7 2 16 -1 19 -3 4 -6 -2 -5 -13z"/>
<path d="M1801 421 c-6 -9 -9 -10 -5 -2 5 9 3 12 -4 7 -17 -10 -15 -51 3 -66
19 -15 61 -6 69 16 16 42 -37 80 -63 45z"/>
<path d="M2300 429 c0 -5 5 -7 10 -4 6 3 10 8 10 11 0 2 -4 4 -10 4 -5 0 -10
-5 -10 -11z"/>
<path d="M2370 430 c0 -5 5 -10 10 -10 6 0 10 5 10 10 0 6 -4 10 -10 10 -5 0
-10 -4 -10 -10z"/>
<path d="M3040 426 c0 -2 7 -7 16 -10 8 -3 12 -2 9 4 -6 10 -25 14 -25 6z"/>
<path d="M125 410 c3 -5 8 -10 11 -10 2 0 4 5 4 10 0 6 -5 10 -11 10 -5 0 -7
-4 -4 -10z"/>
<path d="M2040 410 c-23 -7 -23 -8 -3 -9 12 -1 25 4 28 9 3 6 5 10 3 9 -2 -1
-14 -5 -28 -9z"/>
<path d="M3360 405 c-7 -8 -9 -15 -6 -15 4 0 14 7 22 15 9 8 11 15 6 15 -5 0
-15 -7 -22 -15z"/>
<path d="M6660 395 c-7 -9 -11 -17 -9 -20 3 -2 10 5 17 15 14 24 10 26 -8 5z"/>
<path d="M3062 386 c7 -8 16 -12 21 -9 11 7 -2 23 -19 23 -12 0 -12 -2 -2 -14z"/>
<path d="M2086 381 c-3 -4 7 -8 21 -9 15 -1 23 1 19 5 -9 10 -35 13 -40 4z"/>
<path d="M2148 383 c6 -2 18 -2 25 0 6 3 1 5 -13 5 -14 0 -19 -2 -12 -5z"/>
<path d="M140 365 c-11 -13 -10 -14 5 -9 13 5 16 4 11 -4 -4 -7 -3 -12 3 -12
5 0 16 -3 25 -6 10 -4 16 -1 16 7 0 7 -3 9 -6 6 -4 -4 -15 2 -24 13 -16 18
-19 18 -30 5z"/>
<path d="M3420 369 c0 -5 5 -7 10 -4 6 3 10 8 10 11 0 2 -4 4 -10 4 -5 0 -10
-5 -10 -11z"/>
<path d="M38 363 c7 -3 16 -2 19 1 4 3 -2 6 -13 5 -11 0 -14 -3 -6 -6z"/>
<path d="M660 350 c0 -6 7 -10 15 -10 8 0 15 2 15 4 0 2 -7 6 -15 10 -8 3 -15
1 -15 -4z"/>
<path d="M1020 356 c0 -2 7 -7 16 -10 8 -3 12 -2 9 4 -6 10 -25 14 -25 6z"/>
<path d="M2978 353 c6 -2 18 -2 25 0 6 3 1 5 -13 5 -14 0 -19 -2 -12 -5z"/>
<path d="M3377 346 c-10 -8 -15 -16 -10 -18 4 -3 16 3 26 14 20 21 10 24 -16
4z"/>
<path d="M718 343 c12 -2 32 -2 45 0 12 2 2 4 -23 4 -25 0 -35 -2 -22 -4z"/>
<path d="M2430 340 l-45 -7 42 -1 c23 -1 45 3 48 8 3 6 5 9 3 8 -2 0 -23 -4
-48 -8z"/>
<path d="M2663 343 c15 -2 37 -2 50 0 12 2 0 4 -28 4 -27 0 -38 -2 -22 -4z"/>
<path d="M2818 343 c12 -2 32 -2 45 0 12 2 2 4 -23 4 -25 0 -35 -2 -22 -4z"/>
<path d="M3288 343 c7 -3 16 -2 19 1 4 3 -2 6 -13 5 -11 0 -14 -3 -6 -6z"/>
<path d="M1060 329 c0 -5 9 -9 20 -9 11 0 20 2 20 4 0 2 -9 6 -20 9 -11 3 -20
1 -20 -4z"/>
<path d="M2288 333 c6 -2 18 -2 25 0 6 3 1 5 -13 5 -14 0 -19 -2 -12 -5z"/>
<path d="M2358 333 c7 -3 16 -2 19 1 4 3 -2 6 -13 5 -11 0 -14 -3 -6 -6z"/>
<path d="M1143 323 c15 -2 37 -2 50 0 12 2 0 4 -28 4 -27 0 -38 -2 -22 -4z"/>
<path d="M1338 323 c6 -2 18 -2 25 0 6 3 1 5 -13 5 -14 0 -19 -2 -12 -5z"/>
<path d="M6940 315 c7 -9 15 -13 17 -11 7 7 -7 26 -19 26 -6 0 -6 -6 2 -15z"/>
<path d="M185 310 c-4 -6 -3 -10 2 -9 20 3 27 -2 13 -12 -13 -9 -13 -9 0 -7 9
2 15 0 15 -3 0 -13 38 -49 51 -49 8 0 11 -6 8 -15 -4 -10 -2 -13 8 -10 7 3 33
-11 56 -31 23 -19 42 -31 42 -26 0 13 -66 82 -79 82 -19 0 -12 17 9 23 11 3
29 -3 41 -14 12 -10 26 -19 31 -19 4 0 8 -7 8 -15 0 -8 5 -15 11 -15 5 0 7 -6
3 -12 -6 -10 -5 -10 8 0 12 10 18 9 28 -3 7 -8 20 -15 29 -15 9 0 36 -9 60
-20 32 -15 40 -16 31 -5 -7 8 -30 20 -51 25 -22 6 -39 15 -39 20 0 6 -3 9 -7
8 -16 -5 -80 47 -76 62 3 11 2 12 -4 3 -7 -9 -16 -7 -38 7 -17 11 -34 20 -40
20 -5 0 -3 -5 5 -10 13 -9 13 -10 0 -11 -8 0 -22 -2 -32 -4 -9 -2 -18 5 -21
17 -3 11 -10 17 -16 13 -10 -5 -15 7 -12 28 2 11 -37 8 -44 -3z"/>
<path d="M70 296 c0 -2 8 -10 18 -17 15 -13 16 -12 3 4 -13 16 -21 21 -21 13z"/>
<path d="M25 270 c-3 -6 1 -7 9 -4 18 7 21 14 7 14 -6 0 -13 -4 -16 -10z"/>
<path d="M3280 260 c-8 -5 -12 -12 -9 -15 4 -3 12 1 19 10 14 17 11 19 -10 5z"/>
<path d="M3148 253 c7 -3 16 -2 19 1 4 3 -2 6 -13 5 -11 0 -14 -3 -6 -6z"/>
<path d="M3466 232 c-3 -5 1 -9 9 -9 8 0 12 4 9 9 -3 4 -7 8 -9 8 -2 0 -6 -4
-9 -8z"/>
<path d="M2622 200 c-50 -47 -29 -122 36 -128 59 -6 84 77 37 123 -29 30 -45
31 -73 5z"/>
<path d="M2427 189 c-15 -11 -27 -27 -27 -36 0 -10 11 -4 30 17 36 39 34 49
-3 19z"/>
<path d="M2480 206 c0 -3 12 -17 26 -31 27 -27 46 -27 24 0 -14 17 -50 39 -50
31z"/>
<path d="M140 190 c-8 -5 -12 -12 -9 -15 4 -3 12 1 19 10 14 17 11 19 -10 5z"/>
<path d="M2212 159 l-23 -40 21 -34 c19 -31 26 -35 66 -35 40 0 45 3 63 37 19
37 19 38 0 75 -18 35 -23 38 -62 38 -39 0 -44 -3 -65 -41z m97 -18 c21 -38
-38 -75 -63 -39 -12 16 -12 24 -3 39 15 24 53 24 66 0z"/>
<path d="M3118 193 c6 -2 18 -2 25 0 6 3 1 5 -13 5 -14 0 -19 -2 -12 -5z"/>
<path d="M3350 179 c0 -5 5 -7 10 -4 6 3 10 8 10 11 0 2 -4 4 -10 4 -5 0 -10
-5 -10 -11z"/>
<path d="M3392 165 c-11 -12 -10 -15 3 -15 8 0 15 7 15 15 0 18 -2 18 -18 0z"/>
<path d="M2453 130 c12 -42 27 -54 27 -21 0 11 4 22 10 26 16 10 -1 35 -25 35
-21 0 -22 -2 -12 -40z"/>
<path d="M158 133 c7 -3 16 -2 19 1 4 3 -2 6 -13 5 -11 0 -14 -3 -6 -6z"/>
<path d="M375 120 c-3 -5 1 -10 10 -10 9 0 13 5 10 10 -3 6 -8 10 -10 10 -2 0
-7 -4 -10 -10z"/>
<path d="M2507 95 c-30 -38 -20 -49 13 -13 16 18 28 48 18 48 -2 0 -16 -16
-31 -35z"/>
<path d="M3388 118 c5 -5 16 -8 23 -6 8 3 3 7 -10 11 -17 4 -21 3 -13 -5z"/>
<path d="M415 111 c-3 -6 4 -9 15 -8 11 1 20 5 20 9 0 11 -28 10 -35 -1z"/>
<path d="M2400 115 c0 -22 32 -55 53 -55 21 1 22 1 2 12 -11 6 -28 20 -37 32
-10 11 -18 16 -18 11z"/>
<path d="M467 96 c-5 -12 0 -16 21 -15 16 0 21 3 12 6 -8 3 -18 10 -21 15 -3
5 -9 3 -12 -6z"/>
<path d="M3153 98 c1 -8 -6 -12 -18 -11 -11 1 -14 0 -7 -3 6 -3 9 -11 5 -17
-3 -7 3 -4 15 7 12 10 19 23 16 27 -8 13 -14 11 -11 -3z"/>
<path d="M3450 64 c0 -8 5 -12 10 -9 6 4 8 11 5 16 -9 14 -15 11 -15 -7z"/>
<path d="M462 61 c-11 -7 -11 -9 0 -14 9 -3 15 1 15 9 0 8 -1 14 -1 14 -1 0
-7 -4 -14 -9z"/>
<path d="M495 40 c3 -5 10 -10 16 -10 5 0 9 5 9 10 0 6 -7 10 -16 10 -8 0 -12
-4 -9 -10z"/>
<path d="M0 15 c0 -10 10 -15 30 -15 24 0 28 3 23 17 -4 11 -8 12 -11 5 -2 -8
-9 -9 -23 -2 -15 8 -19 7 -19 -5z"/>
<path d="M3108 23 c7 -3 16 -2 19 1 4 3 -2 6 -13 5 -11 0 -14 -3 -6 -6z"/>
<path d="M480 9 c0 -5 9 -9 20 -9 11 0 20 2 20 4 0 2 -9 6 -20 9 -11 3 -20 1
-20 -4z"/>
<path d="M3498 3 c7 -3 16 -2 19 1 4 3 -2 6 -13 5 -11 0 -14 -3 -6 -6z"/>
</g>
</svg>
