<?xml version="1.0" standalone="no"?>
<!DOCTYPE svg PUBLIC "-//W3C//DTD SVG 20010904//EN"
 "http://www.w3.org/TR/2001/REC-SVG-20010904/DTD/svg10.dtd">
<svg version="1.0" xmlns="http://www.w3.org/2000/svg"
 width="720.000000pt" height="404.000000pt" viewBox="0 0 720.000000 404.000000"
 preserveAspectRatio="xMidYMid meet">

<g transform="translate(0.000000,404.000000) scale(0.100000,-0.100000)"
fill="#000000" stroke="none">
<path d="M3220 4030 c0 -5 7 -10 15 -10 8 0 15 5 15 10 0 6 -7 10 -15 10 -8 0
-15 -4 -15 -10z"/>
<path d="M3280 3940 c0 -83 3 -100 15 -100 21 0 36 -41 21 -59 -9 -12 -7 -13
14 -8 14 4 29 7 33 7 5 0 5 5 1 11 -4 7 1 7 16 -1 30 -16 21 -21 -46 -27 -56
-6 -57 -5 -41 12 10 9 15 20 12 23 -3 4 -9 1 -13 -5 -4 -6 -14 -13 -22 -15 -8
-2 -23 -11 -34 -21 -12 -10 -28 -15 -38 -11 -24 7 -48 -12 -43 -36 3 -13 -1
-17 -11 -13 -7 3 -11 10 -7 16 3 6 1 7 -6 3 -6 -4 -9 -12 -6 -17 4 -5 2 -9 -4
-9 -6 0 -23 -12 -39 -27 -16 -16 -38 -36 -48 -45 -26 -23 -37 -38 -52 -71 -7
-16 -21 -31 -32 -34 -16 -4 -19 -11 -15 -32 30 -147 29 -230 -5 -330 -13 -41
-15 -51 -4 -36 13 17 16 18 24 5 10 -15 13 -29 11 -43 -2 -11 49 -88 83 -126
59 -64 81 -81 126 -97 27 -10 50 -26 56 -38 5 -12 20 -22 34 -23 25 -3 25 -3
3 7 -32 13 -29 22 5 14 15 -4 35 -17 45 -30 10 -13 25 -24 33 -24 8 0 14 -8
14 -19 0 -14 10 -20 40 -25 45 -7 52 -20 18 -32 -13 -4 -275 -10 -583 -14
-308 -3 -499 -8 -425 -10 l135 -4 -95 -6 c-52 -3 -85 -7 -72 -8 33 -3 26 -44
-8 -53 -40 -11 -102 -10 -95 1 8 13 -1 13 -24 -2 -15 -9 -25 -9 -45 0 -16 7
-26 8 -26 2 0 -6 -22 -10 -48 -10 -51 0 -81 -19 -86 -55 -1 -9 -8 -20 -16 -25
-7 -4 -14 -21 -16 -36 -3 -27 -10 -62 -14 -74 -1 -3 -2 -8 -1 -12 0 -4 -8 -24
-19 -43 -11 -20 -17 -41 -14 -47 4 -7 2 -8 -4 -4 -15 9 -15 9 4 -49 l17 -48
32 89 c18 49 47 135 66 191 l34 103 118 0 117 0 0 -290 0 -290 -90 0 -90 0 -2
166 -3 165 -37 -108 c-54 -160 -51 -150 -39 -133 15 21 25 5 28 -48 2 -26 9
-52 16 -58 17 -17 188 -28 185 -13 -2 6 3 14 11 17 10 3 11 0 5 -9 -6 -11 -5
-12 8 -2 8 7 17 11 19 8 3 -2 4 9 3 25 -1 17 2 30 8 30 5 0 6 -10 3 -21 -5
-14 -3 -19 3 -15 6 3 8 -2 5 -13 -3 -11 2 -21 12 -25 9 -3 13 -2 10 4 -3 5 0
7 8 4 15 -5 47 -71 47 -97 0 -10 4 -17 10 -17 5 0 7 7 4 15 -5 11 0 15 17 14
20 -1 20 -2 5 -6 -11 -3 -15 -8 -8 -12 6 -4 -2 -13 -19 -24 l-30 -17 5 30 c2
17 0 30 -5 30 -6 0 -9 -8 -7 -17 2 -10 -3 -17 -9 -15 -7 1 -13 -3 -13 -9 0 -8
-25 -9 -80 -5 -47 3 -80 2 -80 -4 0 -5 -6 -7 -14 -4 -8 3 -19 -3 -24 -13 -8
-15 -16 -172 -13 -268 0 -31 -18 -46 -43 -34 -19 9 -19 8 3 -10 26 -23 43 -26
71 -11 30 16 40 66 40 201 l0 129 66 0 65 0 -2 -185 c-1 -103 -6 -185 -11
-185 -5 0 -6 6 -2 13 3 6 -7 -4 -24 -24 -42 -49 -92 -71 -162 -72 -76 0 -142
31 -178 86 -26 39 -27 46 -30 204 l-3 163 68 2 68 2 -63 3 c-38 3 -69 -1 -77
-7 -8 -7 -18 -9 -23 -6 -15 9 -35 -51 -28 -87 4 -24 3 -28 -5 -17 -8 11 -9 6
-4 -22 3 -21 6 -76 6 -123 1 -47 5 -85 9 -85 4 0 11 -11 14 -24 7 -30 75 -96
98 -96 10 0 18 -4 18 -9 0 -5 21 -8 46 -5 39 4 45 2 35 -9 -9 -12 -3 -13 41
-5 29 5 62 15 73 22 11 7 28 12 38 10 9 -1 17 4 17 12 0 8 7 14 16 14 9 0 12
5 8 11 -5 9 1 10 22 5 21 -5 25 -4 14 4 -13 9 -13 10 0 10 13 0 13 1 0 10 -13
8 -13 10 1 10 20 0 34 -57 18 -76 -8 -9 -5 -11 10 -7 13 3 21 1 21 -6 0 -7 -6
-9 -12 -5 -10 6 -10 4 0 -7 17 -18 15 -30 -5 -22 -10 4 -14 2 -9 -5 3 -6 -3
-13 -15 -17 -11 -4 -19 -9 -16 -11 2 -2 28 6 57 19 33 15 48 26 39 29 -7 3 -3
6 11 6 14 0 47 7 73 15 26 9 45 12 42 7 -4 -6 -13 -10 -22 -10 -9 0 -13 -6
-10 -15 4 -8 2 -17 -3 -20 -4 -3 -10 1 -13 7 -4 11 -8 11 -23 0 -11 -6 -26
-15 -34 -18 -8 -3 -24 -9 -35 -13 -12 -5 20 -9 79 -9 54 -1 101 -4 105 -7 3
-4 -47 -5 -111 -4 l-117 2 -93 -45 -93 -46 90 3 c112 4 384 -9 408 -19 13 -6
17 -4 18 10 0 18 1 18 8 0 5 -14 10 -16 15 -7 5 7 12 9 19 3 30 -23 793 -9
817 15 2 2 -21 28 -53 58 -54 49 -58 56 -56 94 2 23 7 41 12 41 5 0 -1 15 -12
34 -27 43 -27 45 12 126 36 79 64 96 136 84 36 -6 41 -4 42 12 1 11 5 -8 9
-41 4 -33 11 -72 15 -86 7 -27 2 -34 -39 -63 -19 -13 -19 -14 2 -32 18 -15 22
-29 22 -77 0 -78 -11 -97 -58 -97 -21 0 -48 7 -60 16 -13 9 -22 11 -22 4 0 -6
8 -14 18 -17 9 -4 30 -17 45 -30 16 -13 34 -23 42 -23 7 0 15 -9 18 -20 5 -19
25 -25 70 -20 10 1 25 -4 34 -12 13 -10 17 -10 20 0 3 6 14 12 25 12 18 0 19
6 17 65 -3 75 7 97 17 37 9 -57 34 -65 34 -11 0 22 -4 38 -9 35 -4 -3 -7 -18
-5 -33 3 -22 1 -20 -7 7 -6 19 -15 40 -20 47 -6 6 -9 24 -7 40 3 25 0 28 -27
28 -19 0 -34 7 -42 20 -10 17 -8 23 13 42 14 12 24 30 22 40 -2 10 2 17 8 16
8 -2 14 47 19 155 4 86 10 151 12 145 6 -18 33 -16 33 2 0 23 97 21 103 -2 4
-16 5 -16 6 -1 1 14 7 15 54 4 28 -6 66 -10 82 -8 17 2 53 5 81 6 29 1 63 10
77 19 15 9 35 17 45 17 23 0 46 -25 38 -39 -3 -5 3 -7 14 -4 11 3 20 1 20 -5
0 -14 -62 -26 -160 -31 -28 -1 -57 -17 -49 -25 6 -6 143 16 208 34 35 9 46 8
70 -6 28 -17 30 -16 75 10 40 23 51 26 81 17 31 -8 39 -6 65 15 23 20 33 23
49 15 27 -15 57 -14 84 3 13 8 37 12 59 9 33 -5 38 -9 52 -50 12 -34 14 -67 9
-137 -8 -123 -3 -141 44 -157 67 -21 291 -138 327 -170 l36 -31 76 16 c63 13
87 23 133 59 68 53 101 114 137 247 13 51 26 96 28 98 3 2 22 -6 43 -17 21
-11 46 -23 56 -26 11 -3 21 -14 24 -26 5 -17 11 -19 42 -14 30 5 40 2 57 -17
19 -21 22 -44 33 -250 l12 -228 -28 -36 c-15 -20 -49 -78 -76 -128 l-48 -91 7
53 c3 28 3 52 -1 52 -11 0 -50 -23 -57 -34 -6 -8 -11 -7 -17 3 -5 8 -18 12
-31 8 -18 -5 -32 4 -67 44 -28 30 -53 49 -66 49 -15 0 -18 -3 -9 -8 13 -9 13
-114 0 -105 -5 2 -8 -7 -8 -21 0 -16 -13 -36 -41 -60 -40 -33 -99 -62 -99 -48
0 4 -40 6 -90 5 -54 -1 -90 2 -90 8 0 6 -5 7 -10 4 -6 -4 -21 0 -34 8 -22 15
-22 14 -18 -14 4 -27 32 -43 32 -18 0 5 5 7 10 4 6 -4 8 -11 4 -16 -3 -5 -2
-9 3 -8 41 7 64 -4 93 -45 16 -25 30 -55 30 -67 0 -12 8 -28 18 -36 12 -10 13
-13 2 -10 -8 2 -21 -2 -28 -10 -7 -7 -26 -13 -41 -13 -16 0 -34 -7 -41 -15 -7
-9 -15 -13 -18 -10 -3 3 -11 0 -18 -6 -9 -7 -29 1 -74 32 -52 35 -71 42 -125
47 -72 5 -142 -10 -180 -40 -14 -11 -25 -15 -25 -9 0 17 -47 43 -94 52 -25 4
-65 18 -91 30 l-47 22 6 76 c6 68 5 73 -7 52 l-14 -24 -5 31 c-2 17 -1 29 4
26 4 -3 8 0 8 5 0 6 7 11 15 11 8 0 15 4 15 9 0 5 26 2 58 -6 38 -10 77 -13
118 -9 45 5 64 3 72 -7 9 -11 5 -13 -21 -10 l-32 3 30 -10 c17 -6 62 -15 100
-20 81 -10 89 -6 104 58 l9 44 -59 -4 c-33 -2 -61 1 -63 7 -2 6 -10 -6 -18
-25 l-15 -35 -7 53 c-7 45 -11 52 -31 52 -15 0 -35 -16 -60 -47 l-38 -48 6 47
c4 25 8 52 9 60 2 7 -3 13 -11 13 -8 0 -19 -18 -26 -40 l-11 -40 -8 30 c-12
47 -34 75 -60 75 -19 0 -23 -4 -19 -19 9 -35 -15 -95 -44 -108 -15 -7 -30 -13
-35 -13 -9 0 -1 53 16 100 7 19 20 64 29 100 8 36 18 74 22 85 3 11 -11 -14
-32 -55 -38 -74 -38 -75 -80 -76 -55 -3 -60 -7 -65 -54 -4 -45 6 -49 70 -31
66 19 16 -30 -69 -69 -31 -13 -47 -16 -56 -8 -18 14 -16 35 3 42 12 5 14 10 5
19 -10 13 -30 215 -28 282 1 17 0 143 -1 282 l-2 251 -47 -16 c-27 -8 -72 -17
-102 -20 -37 -3 -50 -7 -40 -13 9 -6 1 -8 -26 -5 -22 2 -30 1 -17 -1 32 -6 28
-56 -6 -61 -12 -2 -20 -7 -18 -11 3 -4 -5 -13 -16 -20 -18 -11 -20 -11 -15 2
4 11 0 13 -13 10 -17 -5 -17 -6 1 -24 36 -36 20 -73 -36 -82 -24 -3 -22 -4 13
-6 39 -1 42 -3 42 -29 0 -48 -18 -61 -90 -65 l-65 -3 78 -2 78 -2 -3 -37 c-2
-27 -8 -39 -20 -41 -13 -2 -18 3 -18 17 0 14 -6 21 -20 21 -11 0 -20 -7 -20
-15 0 -8 -9 -15 -19 -15 -11 0 -22 -6 -25 -12 -3 -7 -3 -1 0 15 5 22 3 27 -14
27 -14 0 -22 -8 -24 -22 -2 -13 -11 -24 -20 -26 -15 -3 -18 4 -18 37 0 33 4
40 23 44 l22 4 -22 2 c-14 0 -23 8 -24 19 0 14 -1 14 -8 -3 -9 -24 -2 -115 9
-115 5 0 6 -10 2 -22 -4 -18 -2 -20 16 -16 15 4 22 2 22 -7 0 -7 3 -20 6 -28
4 -11 -5 -17 -34 -22 -22 -3 -47 -14 -56 -24 -15 -16 -13 -17 27 -18 175 -1
177 -1 166 -26 -6 -13 -19 -23 -32 -23 -48 -1 -73 -10 -94 -32 -15 -16 -23
-19 -26 -10 -4 8 -6 7 -6 -4 -1 -20 -30 -38 -63 -38 -32 0 -167 66 -174 85 -3
8 -11 15 -16 15 -7 0 -8 -20 -4 -54 8 -59 -1 -84 -55 -159 -52 -72 -70 -139
-72 -267 -2 -127 4 -147 70 -227 l34 -43 -45 0 -46 0 0 -43 c0 -24 7 -53 17
-66 9 -14 12 -21 6 -18 -17 10 -30 -15 -28 -53 1 -19 -1 -39 -5 -45 -13 -20
-12 -108 2 -116 10 -7 9 -9 -4 -9 -18 0 -19 8 -38 375 -6 105 -13 233 -16 285
l-7 95 -45 38 c-43 37 -48 39 -96 33 -28 -3 -129 -11 -223 -17 -95 -7 -173
-16 -173 -20 0 -5 17 -11 38 -15 20 -4 42 -9 47 -13 14 -8 16 -8 88 -11 l62
-3 -60 -8 c-33 -4 -109 -7 -170 -5 -63 2 -101 0 -90 -4 15 -7 9 -9 -23 -9 -24
-1 -52 4 -63 9 -15 8 -19 8 -17 -2 2 -9 -15 -14 -63 -16 -62 -3 -67 -1 -83 23
-10 15 -20 24 -23 21 -4 -3 -11 -2 -17 3 -10 8 -202 -4 -235 -15 -11 -3 -11
-7 -1 -19 7 -8 9 -15 4 -15 -5 0 -2 -5 6 -10 12 -8 11 -10 -6 -10 -14 0 -26
10 -34 29 -11 27 -15 29 -48 24 -21 -3 -53 -18 -72 -33 -72 -55 -116 -78 -142
-73 l-26 5 33 29 c18 16 45 36 61 44 l29 15 -40 0 c-72 -1 -365 -27 -372 -33
-9 -9 -4 -245 10 -490 10 -165 9 -207 0 -207 -7 0 -13 -4 -13 -10 0 -7 226
-10 658 -10 l657 0 58 111 c33 61 61 109 63 106 2 -2 -18 -51 -45 -108 l-48
-104 385 -3 c212 -1 386 -1 387 0 2 2 5 39 8 83 3 44 3 69 0 56 -6 -30 -29
-54 -43 -46 -6 4 -10 -6 -11 -22 -1 -16 -5 -4 -10 27 -5 30 -16 61 -24 69 -12
13 -12 16 3 27 26 19 7 28 -67 32 -64 4 -70 2 -93 -23 -17 -17 -28 -23 -32
-16 -4 6 0 11 11 12 16 0 16 1 -1 8 -19 7 -19 8 0 16 10 4 21 9 24 10 19 6
111 15 205 20 109 6 110 6 89 -14 -17 -16 -23 -36 -28 -113 -4 -51 -9 -101
-12 -110 -5 -17 11 -18 230 -18 151 0 236 4 236 10 0 6 -80 10 -220 10 l-221
0 3 58 3 57 45 6 c37 5 39 6 12 7 -32 2 -32 3 -30 47 2 34 6 44 17 40 11 -4
11 -3 2 9 -11 13 -7 19 21 36 38 23 44 24 53 10 3 -5 11 -10 17 -10 7 0 6 5
-1 14 -10 12 -9 16 6 24 39 20 111 33 158 29 49 -3 48 -3 -12 -5 -34 -1 -65
-6 -68 -12 -3 -5 -2 -10 4 -10 5 0 13 -9 16 -21 6 -17 9 -18 23 -7 13 11 15
11 10 -4 -9 -22 11 -46 42 -51 24 -4 24 -4 -3 -6 -18 0 -27 -6 -25 -13 6 -17
-33 -57 -39 -40 -6 16 -24 16 -20 0 1 -7 -13 -15 -33 -19 -19 -4 3 -5 50 -3
130 7 169 14 165 27 -2 7 -6 37 -9 67 -5 58 -42 346 -51 393 -2 15 -1 27 4 27
4 0 18 -66 30 -147 28 -183 27 -180 54 -189 22 -7 22 -8 -3 -15 -23 -6 -23 -7
-3 -8 12 -1 25 -5 28 -11 4 -6 -4 -9 -17 -7 -16 1 -22 -2 -19 -13 2 -8 6 -34
9 -58 2 -23 9 -45 13 -48 5 -3 29 -2 54 2 37 5 45 10 45 28 0 19 -5 21 -45 18
-36 -3 -45 -1 -45 12 0 12 10 16 41 16 l41 0 -7 43 c-9 54 -14 61 -31 46 -8
-6 -18 -9 -22 -5 -4 4 3 15 15 24 l21 17 -19 89 c-24 108 -20 149 4 51 40
-156 29 -140 99 -153 34 -6 66 -16 72 -22 8 -8 3 -10 -17 -4 -25 6 -28 4 -24
-17 2 -13 2 -18 0 -11 -3 6 -8 12 -12 12 -4 0 -18 9 -31 20 -27 23 -55 27 -47
6 3 -8 9 -31 13 -51 l7 -37 78 4 c59 2 79 0 79 -9 0 -8 -14 -14 -32 -14 l-33
-2 35 -7 35 -7 -30 -3 -30 -3 35 -7 35 -7 -35 -2 c-19 -1 -53 -6 -75 -10 -27
-6 -9 -7 53 -3 50 3 92 3 93 1 0 -2 3 -41 6 -87 5 -79 4 -82 -17 -82 -11 0
-19 4 -16 8 2 4 1 14 -3 21 -6 9 -23 11 -65 6 -50 -7 -56 -10 -56 -31 l0 -24
1355 0 1355 0 0 1026 0 1026 -42 -5 c-24 -4 -126 -11 -228 -17 -102 -6 -237
-15 -300 -20 l-115 -9 130 5 c72 2 193 7 270 10 77 4 138 4 135 1 -10 -11
-299 -22 -522 -20 -139 1 -228 -2 -228 -7 0 -6 -54 -9 -132 -9 -73 1 -118 4
-100 8 l34 6 -32 40 c-17 22 -38 54 -45 72 -9 20 -26 37 -47 46 l-33 14 -3 94
c-2 52 -10 125 -19 162 -8 38 -12 71 -9 74 3 3 8 -6 12 -21 8 -34 26 -23 19
12 -4 21 -4 23 3 7 9 -19 9 -19 23 3 17 26 31 29 27 5 -3 -15 6 -18 60 -21 34
-2 62 -7 62 -12 0 -6 9 -10 20 -10 11 0 20 7 20 15 0 8 5 15 10 15 6 0 10 -11
10 -25 0 -14 5 -25 11 -25 6 0 9 7 5 15 -8 23 4 45 25 45 20 0 22 -7 20 -70 0
-27 1 -31 8 -15 8 20 7 50 -3 83 -4 11 -3 23 2 26 12 7 21 -36 29 -129 5 -70
9 -83 18 -73 6 5 -13 366 -24 462 -6 54 -5 65 4 52 7 -9 17 -16 23 -16 6 0 13
-21 15 -47 2 -27 4 26 4 117 l1 165 49 3 c26 2 52 7 57 13 6 5 14 9 20 9 5 0
-4 -11 -20 -25 -16 -14 -32 -25 -36 -25 -5 0 -8 -7 -8 -15 0 -8 -6 -15 -14
-15 -8 0 -17 -7 -20 -16 -9 -25 -7 -56 4 -49 6 4 10 -8 10 -29 0 -39 5 -41 46
-26 22 9 25 8 16 -3 -7 -8 -9 -17 -6 -20 4 -3 -4 -8 -17 -11 -13 -3 -33 -7
-44 -9 -11 -3 -1 -5 22 -6 23 0 44 3 47 8 3 4 18 6 32 3 20 -3 25 -2 19 7 -4
7 -13 10 -20 7 -9 -3 -13 2 -12 15 1 15 9 19 34 19 18 0 33 -5 33 -11 0 -11
16 -9 54 7 13 5 17 4 12 -4 -3 -6 -1 -14 5 -18 8 -4 9 -3 5 4 -4 6 5 21 19 34
14 12 25 30 25 40 0 29 18 21 22 -9 3 -26 6 -28 52 -29 27 -1 66 -5 87 -8 23
-4 40 -2 45 5 4 6 20 8 39 5 27 -5 36 -2 50 16 15 21 16 21 13 3 -2 -12 2 -19
10 -18 6 2 12 -2 12 -9 0 -6 2 -9 5 -6 3 2 -2 19 -11 36 -13 27 -21 32 -52 33
-31 1 -33 2 -13 8 14 4 26 12 27 19 1 7 0 8 -3 2 -2 -5 -16 -10 -29 -10 -15 0
-24 -6 -24 -15 0 -10 10 -15 31 -15 44 0 32 -24 -14 -28 -31 -3 -39 1 -48 21
-15 33 3 67 36 67 37 0 30 12 -20 40 -25 14 -45 28 -45 32 0 5 -22 8 -49 8
-39 0 -50 -4 -54 -19 -5 -22 2 -36 23 -43 8 -3 -7 -8 -35 -12 -27 -4 -55 -12
-62 -17 -7 -7 -14 -6 -18 1 -3 5 -15 10 -25 10 -10 0 -22 4 -25 10 -3 6 1 7
10 4 11 -5 14 -2 9 10 -3 9 -12 16 -20 16 -8 0 -14 4 -14 9 0 5 30 9 66 10 37
0 69 3 72 6 3 3 -43 5 -103 5 -60 0 -106 2 -104 4 2 2 65 6 139 10 317 15 547
26 568 26 l22 0 0 460 0 460 -904 0 c-714 0 -905 -3 -909 -12 -3 -7 -53 -83
-113 -168 l-108 -155 -138 -410 c-76 -225 -154 -458 -174 -517 l-36 -108 -89
0 c-49 0 -89 3 -89 8 0 4 77 238 172 519 l173 513 60 0 60 0 64 113 c36 61 74
125 85 142 12 16 26 40 33 52 l12 23 -1010 0 -1009 0 0 -100z m973 23 c5 -9
-8 -158 -18 -203 -5 -25 -4 -27 18 -23 38 7 132 -14 193 -44 66 -32 127 -97
162 -173 24 -50 26 -53 32 -30 4 14 30 86 58 160 27 74 53 145 56 157 7 23 36
52 36 35 0 -14 47 -21 59 -9 30 30 2 -40 -94 -233 -102 -205 -105 -213 -105
-278 0 -235 -138 -406 -340 -419 -222 -16 -383 137 -397 377 -12 193 68 351
211 420 l63 30 6 110 c4 61 9 115 12 121 7 11 42 12 48 2z m1500 -45 c30 5 31
4 17 -14 -8 -10 -44 -50 -80 -88 -36 -37 -69 -74 -75 -80 -5 -6 -93 -96 -194
-199 l-185 -187 46 0 c52 0 16 -33 359 329 101 107 195 201 209 210 l25 15
-25 -28 c-25 -28 -25 -28 -2 -22 12 4 22 3 22 -2 0 -5 -112 -120 -250 -256
l-250 -246 145 0 145 0 0 -85 0 -85 -225 0 c-161 0 -225 3 -225 11 0 7 -26
-16 -59 -50 -32 -33 -62 -61 -67 -61 -5 0 22 31 59 68 l68 69 -2 60 c-2 51 1
64 20 84 12 13 70 83 129 154 268 327 356 427 360 410 2 -7 15 -10 35 -7z
m-2326 -124 c-3 -3 -12 -4 -19 -1 -8 3 -5 6 6 6 11 1 17 -2 13 -5z m116 -51
c-7 -2 -19 -2 -25 0 -7 3 -2 5 12 5 14 0 19 -2 13 -5z m52 -48 c45 -23 82 -51
105 -79 23 -28 38 -39 43 -32 6 7 7 4 3 -7 -3 -10 1 -29 10 -42 47 -72 59
-270 23 -377 -11 -33 -31 -77 -44 -96 -13 -19 -21 -40 -18 -46 3 -6 3 -8 -2
-4 -4 4 -25 -7 -45 -25 -20 -17 -45 -38 -56 -45 -17 -11 -17 -12 -1 -8 11 4
16 2 12 -5 -4 -6 -13 -8 -20 -5 -7 2 -35 -2 -62 -10 -74 -23 -194 -14 -264 19
-153 74 -240 261 -211 457 40 280 291 425 527 305z m40 15 c-3 -5 -11 -10 -16
-10 -6 0 -7 5 -4 10 3 6 11 10 16 10 6 0 7 -4 4 -10z m-677 -235 c-3 -3 -9 2
-12 12 -6 14 -5 15 5 6 7 -7 10 -15 7 -18z m3262 -23 c0 -4 -26 -24 -57 -44
-32 -20 -110 -70 -175 -111 -126 -82 -158 -100 -158 -93 0 6 232 167 315 218
61 38 75 44 75 30z m121 -379 l-43 -4 4 -120 c2 -65 0 -119 -4 -119 -15 0 -19
232 -4 242 6 4 29 7 51 6 l40 -1 -44 -4z m437 -12 c-6 -10 -18 -17 -25 -14
-10 4 -8 9 9 18 13 7 24 13 26 14 1 1 -3 -8 -10 -18z m-15 -27 c8 -8 -16 -33
-25 -27 -5 2 -8 -3 -8 -12 0 -8 -7 -18 -15 -21 -9 -4 -15 -19 -15 -35 0 -22
-5 -29 -20 -29 -16 0 -20 7 -20 30 0 20 -5 30 -15 30 -8 0 -15 6 -15 14 0 9
17 15 47 19 28 3 52 12 58 21 11 17 18 20 28 10z m59 -6 c-19 -19 -14 -33 6
-15 10 10 25 17 33 16 11 0 11 -2 -1 -6 -8 -3 -25 -14 -37 -25 -21 -20 -21
-20 -33 2 -8 15 -8 20 -1 16 6 -4 14 0 17 8 3 9 11 16 17 16 7 0 7 -4 -1 -12z
m-288 -30 c-3 -5 -9 -6 -13 -4 -4 3 -15 -10 -24 -29 -16 -34 -16 -35 3 -35 12
0 17 -5 14 -14 -3 -8 -1 -17 4 -20 7 -4 9 9 6 32 -6 51 23 81 64 66 20 -7 28
-17 30 -41 4 -36 -24 -59 -60 -47 -13 4 -18 2 -14 -4 9 -15 -14 -26 -27 -13
-6 6 -31 11 -55 11 -43 0 -43 0 -28 22 20 28 20 38 1 38 -10 0 -12 -6 -8 -17
6 -17 6 -17 -10 -1 -18 18 -23 48 -7 48 5 0 7 -8 4 -17 -5 -17 -5 -17 9 0 8 9
28 17 45 17 17 0 33 4 36 8 3 5 12 9 20 9 8 0 13 -4 10 -9z m270 -38 c19 -27
32 -51 28 -53 -4 -2 -30 -2 -59 1 -42 3 -52 8 -57 25 -3 12 -1 26 5 32 7 7 8
4 4 -10 -3 -11 3 -3 15 18 11 20 22 37 24 37 2 0 20 -22 40 -50z m-547 -12
c-3 -7 -5 -2 -5 12 0 14 2 19 5 13 2 -7 2 -19 0 -25z m-2717 -271 c8 -3 0 -6
-19 -6 -29 -1 -32 1 -21 14 7 9 16 12 19 7 3 -5 13 -12 21 -15z m2717 -59 c-2
-13 -4 -3 -4 22 0 25 2 35 4 23 2 -13 2 -33 0 -45z m-777 3 c85 -7 103 -12
173 -49 43 -23 85 -42 93 -42 27 0 37 -43 27 -116 -9 -60 -8 -70 8 -88 22 -23
34 -75 24 -105 -8 -26 -48 -14 -50 17 -1 12 -12 30 -26 41 -47 40 -214 20
-244 -29 -9 -14 -45 -3 -67 21 -65 67 -173 106 -238 84 -43 -14 -51 -35 -14
-35 49 0 20 -9 -43 -13 -48 -4 -63 -1 -67 10 -15 38 -4 65 49 123 49 53 55 65
55 103 0 45 11 67 45 86 20 12 51 11 275 -8z m-515 -25 c-10 -14 -21 -24 -25
-21 -5 3 1 16 13 29 27 31 34 26 12 -8z m998 15 c3 -13 1 -18 -9 -14 -7 2 -10
11 -7 19 7 19 10 18 16 -5z m-3529 -23 c-3 -5 -9 -6 -14 -3 -4 3 -10 -2 -14
-10 -3 -8 -12 -12 -20 -9 -16 6 -16 -11 -2 -35 6 -10 5 -12 -2 -7 -9 5 -12 -9
-11 -51 1 -51 2 -54 9 -23 5 22 8 -12 9 -95 0 -85 -3 -125 -9 -115 -6 10 -10
-21 -13 -95 l-3 -110 -2 117 c-1 69 2 119 8 123 6 3 10 16 9 28 -1 21 -2 20
-9 -3 -6 -16 -8 28 -8 116 1 77 -2 146 -6 152 -5 8 0 12 13 12 11 0 22 4 26 9
3 6 14 9 25 8 10 -1 16 -5 14 -9z m123 -4 c-3 -3 -12 -4 -19 -1 -8 3 -5 6 6 6
11 1 17 -2 13 -5z m1253 -13 c85 -32 143 -88 164 -157 6 -20 1 -22 -74 -34
l-80 -12 -28 30 c-46 49 -131 54 -185 12 -37 -29 -61 -99 -53 -154 12 -79 68
-126 151 -126 52 0 99 21 115 49 19 36 12 41 -60 41 l-70 0 0 55 0 55 161 0
162 0 -6 -67 c-11 -126 -61 -204 -164 -255 -60 -29 -77 -33 -148 -33 -137 1
-245 67 -299 184 -16 36 -21 64 -20 126 1 84 14 125 57 182 79 107 248 153
377 104z m-1170 -291 l0 -290 -90 0 -89 0 -3 290 -3 290 93 0 92 0 0 -290z
m322 230 c17 -30 58 -107 92 -170 l61 -115 3 173 2 172 85 0 85 0 0 -290 0
-290 -92 0 -93 0 -95 176 -95 176 -3 -176 -2 -176 -85 0 -85 0 0 290 0 291 96
-3 95 -3 31 -55z m1965 45 c0 -8 -4 -12 -9 -9 -4 3 -8 9 -8 15 0 5 4 9 8 9 5
0 9 -7 9 -15z m-19 -17 c7 -9 -1 -36 -28 -93 -21 -44 -36 -83 -34 -86 1 -3 -8
-13 -22 -23 -17 -14 -24 -29 -24 -55 -1 -37 -19 -71 -38 -71 -6 0 -23 -11 -38
-25 -15 -14 -30 -25 -33 -25 -4 0 -31 -27 -60 -61 -58 -65 -127 -214 -133
-286 -3 -32 -7 -38 -28 -41 -21 -2 -29 4 -45 35 -19 38 -19 38 -23 11 -4 -33
-6 -34 -32 -8 -17 17 -48 25 -97 23 -7 -1 -13 4 -13 9 0 6 -7 7 -16 4 -8 -3
-12 -2 -9 4 4 6 -63 10 -189 10 l-196 0 -7 -27 -7 -28 -6 25 c-5 22 -13 26
-60 31 -67 7 -45 9 150 15 74 2 163 6 198 9 l62 7 0 102 c0 57 7 143 16 192 9
49 16 94 17 101 0 14 27 27 27 13 0 -4 18 -1 40 7 22 9 40 20 40 25 0 4 7 8
15 8 8 0 15 5 15 10 0 6 22 10 48 10 35 0 54 5 66 18 9 11 34 24 56 31 29 9
40 17 40 31 0 16 7 20 33 20 18 0 59 7 90 15 32 8 71 15 87 15 17 0 30 5 30
10 0 6 22 10 49 10 54 0 72 12 44 29 -10 6 -13 11 -7 11 6 0 16 -6 22 -12z
m167 -264 c31 -14 33 -18 37 -80 3 -44 10 -70 21 -82 17 -16 17 -15 2 16 -12
23 -15 44 -10 72 6 35 8 38 22 25 29 -30 104 -67 123 -62 11 3 20 1 20 -5 0
-6 7 -7 16 -4 49 19 64 18 64 -2 0 -10 -9 -31 -20 -45 -17 -21 -31 -27 -73
-29 l-52 -3 54 -5 c50 -5 55 -3 86 28 18 19 38 51 44 72 14 47 24 55 51 40 15
-8 20 -21 20 -54 0 -24 9 -69 20 -102 25 -76 25 -88 2 -75 -10 5 -37 7 -59 4
-29 -4 -48 -1 -64 11 -14 9 -32 13 -47 9 -24 -6 -25 -4 -19 26 7 36 -8 43 -17
7 -3 -13 1 -37 9 -53 13 -27 13 -33 -1 -61 -16 -32 -31 -45 -20 -17 8 23 -6
18 -41 -14 -29 -26 -60 -98 -47 -110 3 -3 14 0 25 7 20 13 73 8 214 -16 l39
-7 -29 -22 c-17 -13 -35 -27 -42 -33 -27 -22 -71 -11 -114 30 -47 45 -59 49
-59 21 0 -11 -2 -26 -5 -33 -3 -8 8 -32 25 -53 52 -66 31 -97 -42 -59 -28 14
-30 19 -25 56 4 31 1 44 -14 59 -10 10 -25 19 -33 19 -21 0 -30 19 -16 35 8
10 6 17 -12 29 -31 22 -78 171 -85 268 -5 75 4 208 14 208 3 0 20 -7 38 -16z
m145 12 c0 -2 -13 -6 -30 -8 -16 -3 -30 -1 -30 4 0 4 14 8 30 8 17 0 30 -2 30
-4z m48 -87 c10 0 12 -3 5 -5 -18 -8 -53 15 -53 34 0 13 3 12 16 -6 8 -12 23
-22 32 -23z m379 -41 c-3 -8 -6 -5 -6 6 -1 11 2 17 5 13 3 -3 4 -12 1 -19z
m94 -52 c-12 -19 -19 -41 -15 -49 7 -20 -11 -30 -66 -38 l-45 -6 40 -2 c52 -1
79 18 111 81 28 56 39 59 24 7 -6 -18 -10 -51 -10 -71 0 -20 -4 -40 -10 -43
-5 -3 -10 -15 -10 -25 0 -20 -95 -120 -113 -120 -6 0 -18 -6 -26 -14 -14 -13
-23 -11 -67 10 -28 13 -59 33 -68 43 -17 19 -17 21 1 45 10 14 26 26 37 26 14
0 17 6 14 28 -3 15 -9 36 -13 46 -7 16 -5 18 11 12 10 -4 33 -10 49 -12 24 -4
23 -2 -10 10 -47 18 -75 49 -75 82 0 31 11 30 41 -2 13 -14 33 -30 44 -35 20
-10 20 -10 1 5 -27 22 -18 27 29 16 64 -15 77 -13 70 10 -5 15 -3 18 8 14 9
-3 24 7 38 24 21 25 24 26 27 10 2 -10 -6 -33 -17 -52z m-146 36 c-3 -3 -11 0
-18 7 -9 10 -8 11 6 5 10 -3 15 -9 12 -12z m-3475 -28 c0 -8 -5 -12 -10 -9 -6
4 -8 11 -5 16 9 14 15 11 15 -7z m3939 -98 c10 -12 8 -13 -8 -9 -12 3 -21 9
-21 14 0 14 16 11 29 -5z m1104 7 c-13 -2 -35 -2 -50 0 -16 2 -5 4 22 4 28 0
40 -2 28 -4z m-1873 -152 c0 -5 -7 -12 -16 -15 -14 -5 -15 -4 -4 9 14 17 20
19 20 6z m125 -1 c8 -13 -25 -13 -45 0 -12 8 -9 10 12 10 15 0 30 -4 33 -10z
m-1738 -9 c-2 -4 -9 -21 -16 -38 -14 -36 -27 -40 -56 -20 -13 10 -16 21 -11
41 6 24 11 27 46 24 22 -1 39 -4 37 -7z m1308 -21 c3 -5 -1 -10 -9 -10 -9 0
-16 5 -16 10 0 6 4 10 9 10 6 0 13 -4 16 -10z m420 -22 c7 -7 -2 -8 -25 -3
-19 4 -39 12 -45 17 -7 7 2 8 25 3 19 -4 40 -12 45 -17z m-2793 -214 c-2 -173
0 -224 9 -218 7 4 10 3 7 -2 -4 -5 -38 -8 -77 -6 l-71 4 0 218 0 219 68 4 c37
2 67 4 67 5 0 1 -1 -100 -3 -224z m216 54 l3 -158 74 0 75 0 0 -60 0 -60 -145
0 -145 0 0 220 0 221 68 -3 67 -3 3 -157z m508 133 c61 -28 92 -55 115 -106
32 -70 22 -156 -28 -222 -13 -17 -20 -33 -16 -35 4 -3 3 -4 -3 -2 -7 1 -31 -7
-55 -19 -37 -19 -65 -23 -176 -25 l-133 -4 0 222 0 223 124 -5 c96 -5 134 -10
172 -27z m353 -76 c0 -29 -2 -36 -9 -25 -5 8 -9 38 -9 65 1 40 3 45 9 25 4
-14 8 -43 9 -65z m119 68 c-4 -24 -108 -33 -108 -9 0 15 22 22 78 25 27 1 33
-2 30 -16z m1154 -32 c-4 -12 -7 -11 -13 5 -13 34 -11 50 5 29 8 -11 11 -26 8
-34z m-1332 4 c14 -19 14 -19 -2 -6 -10 7 -18 18 -18 24 0 6 1 8 3 6 1 -2 9
-13 17 -24z m1426 -107 c-6 -4 -7 -8 -2 -8 5 0 3 -7 -5 -16 -12 -14 -14 -13
-21 7 -5 12 -6 43 -2 68 l7 45 16 -45 c12 -30 14 -46 7 -51z m-742 10 c18 -25
22 -114 7 -137 -6 -10 -5 -22 5 -35 19 -27 18 -116 -2 -144 -11 -16 -25 -22
-54 -22 -46 0 -60 18 -60 79 0 37 2 41 25 41 22 0 25 -4 25 -35 0 -25 4 -35
16 -35 12 0 14 10 12 48 -3 40 -6 47 -25 50 -31 5 -34 62 -3 62 14 0 21 9 26
35 3 19 4 42 0 50 -10 26 -26 16 -26 -15 0 -25 -4 -30 -25 -30 -22 0 -25 4
-25 39 0 23 7 46 16 55 23 24 70 20 88 -6z m1173 -43 c-20 -20 -99 -16 -95 4
2 8 17 18 33 21 17 4 40 12 50 18 17 9 21 8 23 -9 2 -10 -3 -26 -11 -34z m887
-67 c13 -223 26 -588 25 -673 -3 -129 -6 -83 -24 295 -8 184 -18 368 -21 408
-3 45 -2 72 4 72 6 0 13 -46 16 -102z m-1290 71 c-3 -5 5 -19 18 -30 17 -15
19 -19 6 -17 -9 2 -17 0 -17 -4 -3 -29 0 -38 11 -32 7 4 8 3 4 -5 -4 -6 -2
-19 6 -28 9 -12 10 -15 0 -9 -15 9 -47 67 -44 80 2 4 -3 14 -9 22 -9 11 -8 18
1 29 13 16 35 10 24 -6z m226 2 c0 -6 -4 -13 -10 -16 -5 -3 -10 1 -10 9 0 9 5
16 10 16 6 0 10 -4 10 -9z m320 -11 c0 -5 -5 -10 -11 -10 -5 0 -7 5 -4 10 3 6
8 10 11 10 2 0 4 -4 4 -10z m-1810 -65 c0 -45 -19 -65 -22 -22 0 12 -2 29 -3
37 -2 19 4 30 16 30 5 0 9 -20 9 -45z m370 -89 l0 -134 -24 -4 -25 -5 -3 139
-3 138 28 0 27 0 0 -134z m860 78 c11 -25 20 -49 20 -52 -1 -9 -49 80 -50 91
-1 20 13 2 30 -39z m535 -24 c3 -5 -1 -10 -9 -10 -8 0 -18 5 -21 10 -3 6 1 10
9 10 8 0 18 -4 21 -10z m-447 -74 c8 2 8 0 1 -3 -8 -4 -7 -8 2 -15 12 -8 12
-9 0 -6 -8 2 -21 15 -29 29 -10 17 -10 20 -1 8 8 -9 20 -15 27 -13z m-2488
-80 c0 -2 -7 -7 -16 -10 -8 -3 -12 -2 -9 4 6 10 25 14 25 6z m1321 -59 c-10
-9 -11 -8 -5 6 3 10 9 15 12 12 3 -3 0 -11 -7 -18z m-1431 3 c0 -5 -7 -10 -16
-10 -8 0 -12 5 -9 10 3 6 10 10 16 10 5 0 9 -4 9 -10z m228 -27 c-10 -2 -26
-2 -35 0 -10 3 -2 5 17 5 19 0 27 -2 18 -5z m977 -13 c3 -5 1 -10 -4 -10 -6 0
-11 5 -11 10 0 6 2 10 4 10 3 0 8 -4 11 -10z m595 4 c0 -4 -8 -13 -17 -21 -10
-7 -13 -12 -8 -11 6 2 12 -1 15 -7 3 -6 -17 -11 -47 -13 -32 -2 -53 1 -53 7 0
6 16 11 36 11 19 0 33 4 30 8 -3 5 -19 7 -36 4 -28 -4 -39 6 -23 21 8 9 103 9
103 1z m383 -366 l15 -36 -28 10 c-26 9 -28 12 -18 39 12 35 11 35 31 -13z
m157 7 c0 -8 -4 -15 -10 -15 -5 0 -7 7 -4 15 4 8 8 15 10 15 2 0 4 -7 4 -15z
m155 -32 c-9 -37 -16 -43 -43 -37 -14 4 -22 14 -22 28 0 30 8 36 43 36 27 0
29 -2 22 -27z m-1835 -66 c-10 -9 -191 -18 -186 -9 3 5 47 10 98 11 51 1 90 0
88 -2z m3207 -160 c-2 -23 -3 -1 -3 48 0 50 1 68 3 42 2 -26 2 -67 0 -90z
m-3807 80 c0 -5 -7 -4 -15 3 -8 7 -15 20 -15 29 1 13 3 13 15 -3 8 -11 15 -24
15 -29z m703 36 c-13 -2 -33 -2 -45 0 -13 2 -3 4 22 4 25 0 35 -2 23 -4z m75
-130 l-3 -58 -53 -9 c-29 -5 -54 -7 -56 -5 -2 2 -6 29 -7 59 l-4 55 35 6 c19
4 48 7 63 8 28 1 28 1 25 -56z m-143 -18 l0 -49 -43 -9 c-63 -12 -72 -6 -72
51 0 27 3 52 7 56 4 4 30 6 58 4 l50 -3 0 -50z m-1460 35 c-3 -5 -13 -10 -21
-10 -8 0 -12 5 -9 10 3 6 13 10 21 10 8 0 12 -4 9 -10z m669 -61 c3 -34 6 -88
6 -120 0 -50 -3 -59 -18 -59 -21 0 -496 -47 -564 -56 l-46 -6 -6 53 c-15 143
-17 189 -9 190 4 0 136 13 293 29 157 15 297 28 311 29 25 1 26 -2 33 -60z
m2390 -8 c8 -12 -23 -23 -37 -14 -7 4 -5 -2 3 -12 8 -10 10 -16 3 -12 -6 4
-14 3 -18 -3 -3 -5 -21 -10 -38 -9 -26 0 -28 2 -12 8 l20 8 -20 5 c-11 2 -36
1 -55 -3 -35 -8 -49 -5 -36 8 4 5 31 9 59 10 70 2 69 2 62 13 -4 6 8 10 29 10
19 0 37 -4 40 -9z m271 -8 c19 -9 35 -21 35 -25 0 -5 -6 -6 -12 -1 -7 4 -31 8
-53 9 -22 0 -51 4 -64 8 -18 6 -22 5 -15 -5 6 -11 4 -11 -10 0 -13 11 -20 11
-28 3 -15 -15 -28 -15 -28 -2 0 12 55 28 102 29 21 1 53 -7 73 -16z m-187 -84
l3 -44 -21 34 c-22 34 -20 66 3 59 6 -3 13 -24 15 -49z m79 -51 c-3 -8 -6 -5
-6 6 -1 11 2 17 5 13 3 -3 4 -12 1 -19z m-318 -7 c12 -10 43 -22 69 -26 59 -9
81 -20 92 -48 8 -21 9 -21 9 -2 1 17 4 15 16 -9 17 -33 19 -39 6 -32 -15 10 1
-38 17 -51 11 -9 12 -13 3 -13 -7 0 -10 -4 -7 -8 14 -23 -59 5 -91 34 -20 19
-46 37 -57 40 -12 4 -30 14 -40 23 -23 19 -27 32 47 -144 71 -169 73 -175 50
-175 -13 0 -25 20 -45 74 -16 40 -28 77 -28 82 0 5 -16 52 -36 104 -52 139
-58 170 -34 170 4 0 17 -9 29 -19z m-1894 -16 c0 -5 -15 -11 -32 -13 -32 -3
-48 -22 -19 -22 24 0 37 -25 23 -44 -15 -21 -107 -36 -107 -17 0 6 14 11 30
11 34 0 40 15 9 25 -33 11 -21 48 21 62 40 14 75 13 75 -2z m60 5 c-3 -5 -15
-10 -26 -10 -10 0 -19 5 -19 10 0 6 12 10 26 10 14 0 23 -4 19 -10z m-193 -43
c-5 -49 -20 -77 -42 -77 -22 0 -25 15 -10 54 8 21 6 26 -6 26 -8 0 -23 -20
-34 -45 -14 -33 -25 -45 -41 -45 -22 0 -22 14 -2 65 13 35 -22 9 -43 -31 -13
-25 -28 -40 -43 -42 -20 -3 -22 -1 -16 20 27 84 33 93 55 90 12 -1 29 2 37 7
9 4 46 8 82 7 l66 -1 -3 -28z m2345 1 c-3 -7 -5 -2 -5 12 0 14 2 19 5 13 2 -7
2 -19 0 -25z m-2161 6 c-3 -9 -9 -27 -12 -40 -4 -17 -13 -24 -30 -24 -27 0
-28 4 -13 49 8 24 17 31 36 31 19 0 24 -4 19 -16z m-616 -7 c0 -2 -10 -12 -22
-23 l-23 -19 19 23 c18 21 26 27 26 19z m2708 -42 c-3 -3 -9 2 -12 12 -6 14
-5 15 5 6 7 -7 10 -15 7 -18z m-2758 2 c0 -2 -17 -19 -37 -38 l-38 -34 34 38
c33 34 41 42 41 34z m2879 -33 c2 -2 -8 -2 -21 0 -28 3 -48 14 -48 26 0 7 53
-13 69 -26z m-841 21 c-2 -3 -16 -6 -31 -7 -14 -1 -23 -6 -21 -10 3 -4 11 -5
18 -2 25 9 26 -13 2 -24 -20 -9 -23 -8 -22 6 1 11 -6 16 -17 16 -14 -2 -15 1
-6 12 6 8 27 14 47 14 19 0 33 -2 30 -5z m685 -40 c-3 -9 -8 -14 -10 -11 -3 3
-2 9 2 15 9 16 15 13 8 -4z m-528 -15 c3 -5 1 -10 -4 -10 -6 0 -11 5 -11 10 0
6 2 10 4 10 3 0 8 -4 11 -10z m276 -23 c-8 -8 -11 -7 -11 4 0 20 13 34 18 19
3 -7 -1 -17 -7 -23z m66 -80 c4 -7 0 -8 -11 -4 -10 4 -22 7 -27 7 -5 0 -9 4
-9 9 0 12 38 2 47 -12z m-1090 -39 c-3 -8 -6 -5 -6 6 -1 11 2 17 5 13 3 -3 4
-12 1 -19z m-737 -38 c0 -5 -4 -10 -10 -10 -5 0 -10 5 -10 10 0 6 5 10 10 10
6 0 10 -4 10 -10z m-120 -10 c0 -5 -4 -10 -10 -10 -5 0 -10 5 -10 10 0 6 5 10
10 10 6 0 10 -4 10 -10z m30 0 c0 -5 -4 -10 -10 -10 -5 0 -10 5 -10 10 0 6 5
10 10 10 6 0 10 -4 10 -10z m30 0 c0 -5 -4 -10 -10 -10 -5 0 -10 5 -10 10 0 6
5 10 10 10 6 0 10 -4 10 -10z m-150 -10 c0 -5 -5 -10 -11 -10 -5 0 -7 5 -4 10
3 6 8 10 11 10 2 0 4 -4 4 -10z m30 0 c0 -5 -2 -10 -4 -10 -3 0 -8 5 -11 10
-3 6 -1 10 4 10 6 0 11 -4 11 -10z m-110 -10 c0 -5 -7 -10 -15 -10 -8 0 -15 5
-15 10 0 6 7 10 15 10 8 0 15 -4 15 -10z m30 6 c0 -3 -4 -8 -10 -11 -5 -3 -10
-1 -10 4 0 6 5 11 10 11 6 0 10 -2 10 -4z m-110 -16 c0 -5 -4 -10 -10 -10 -5
0 -10 5 -10 10 0 6 5 10 10 10 6 0 10 -4 10 -10z m1310 -26 c0 -2 -11 -4 -25
-4 -14 0 -25 4 -25 9 0 4 11 6 25 3 14 -2 25 -6 25 -8z m-217 -1 c-7 -2 -21
-2 -30 0 -10 3 -4 5 12 5 17 0 24 -2 18 -5z"/>
<path d="M4776 3821 c-4 -7 -5 -15 -2 -18 9 -9 19 4 14 18 -4 11 -6 11 -12 0z"/>
<path d="M4213 3511 c-16 -13 -23 -31 -24 -58 -1 -21 -5 -51 -9 -68 -7 -26 -8
-22 -10 25 l-2 55 -13 -40 c-17 -50 -18 -142 -4 -200 26 -103 116 -152 188
-103 49 33 75 90 79 173 5 95 -11 151 -58 197 -32 33 -44 38 -81 38 -28 -1
-52 -8 -66 -19z"/>
<path d="M3362 3505 c-16 -14 -37 -43 -46 -66 -19 -46 -30 -173 -15 -163 6 3
7 -4 4 -19 -4 -14 -2 -28 4 -32 6 -3 9 -10 6 -15 -8 -13 13 -50 28 -49 9 0 9
2 0 6 -18 7 -16 20 2 20 18 0 20 -34 3 -40 -8 -2 2 -13 22 -26 63 -40 137 -13
177 62 37 72 33 218 -9 285 -40 64 -123 82 -176 37z m-16 -60 c-3 -9 0 -15 9
-15 8 0 15 -5 15 -11 0 -5 -6 -7 -12 -3 -10 6 -10 5 -1 -8 7 -8 10 -18 6 -21
-3 -4 -12 1 -20 11 -12 15 -13 14 -9 -16 2 -18 0 -30 -5 -26 -12 7 -9 75 4 92
13 17 20 15 13 -3z m11 -117 c-3 -8 -6 -5 -6 6 -1 11 2 17 5 13 3 -3 4 -12 1
-19z m-38 0 c-4 -31 4 -40 12 -13 6 25 7 21 6 -23 -2 -50 5 -66 17 -39 3 6 3
-1 1 -17 -2 -16 -10 -33 -17 -37 -21 -13 -23 0 -2 17 17 14 17 15 1 10 -11 -3
-16 -2 -12 4 3 6 1 10 -5 10 -7 0 -10 7 -6 15 3 8 2 25 -3 38 -8 21 -5 47 5
47 3 0 4 -6 3 -12z m66 -118 c-5 -16 -10 -19 -18 -11 -7 7 -6 15 3 26 7 8 15
13 17 11 3 -2 2 -14 -2 -26z"/>
<path d="M6560 2956 c0 -20 17 -29 26 -15 5 8 3 9 -6 4 -10 -6 -12 -4 -7 8 3
10 2 17 -3 17 -6 0 -10 -6 -10 -14z"/>
<path d="M4310 1849 c0 -5 4 -7 10 -4 5 3 23 -1 40 -10 33 -17 41 -10 13 11
-22 16 -63 18 -63 3z"/>
<path d="M5198 2083 c7 -3 16 -2 19 1 4 3 -2 6 -13 5 -11 0 -14 -3 -6 -6z"/>
<path d="M3170 1594 l0 -117 52 5 c70 7 108 47 108 114 0 25 -5 54 -10 65 -15
27 -63 49 -110 49 l-40 0 0 -116z"/>
<path d="M5032 1660 c0 -14 2 -19 5 -12 2 6 2 18 0 25 -3 6 -5 1 -5 -13z"/>
<path d="M3147 653 c-4 -3 -7 -24 -7 -45 l0 -38 45 0 45 0 0 45 0 45 -38 0
c-21 0 -42 -3 -45 -7z m57 -18 c-4 -8 -1 -15 5 -15 8 0 7 -6 -1 -20 -12 -19
-47 -28 -49 -12 0 4 -2 16 -4 27 -4 21 10 35 37 35 11 0 15 -5 12 -15z"/>
<path d="M4650 435 c0 -5 5 -17 10 -25 5 -8 10 -10 10 -5 0 6 -5 17 -10 25 -5
8 -10 11 -10 5z"/>
<path d="M3250 3970 c0 -5 5 -10 10 -10 6 0 10 5 10 10 0 6 -4 10 -10 10 -5 0
-10 -4 -10 -10z"/>
<path d="M2588 3743 c6 -2 18 -2 25 0 6 3 1 5 -13 5 -14 0 -19 -2 -12 -5z"/>
<path d="M2456 3728 c-10 -6 -34 -11 -52 -13 -18 -1 -41 -8 -50 -16 -9 -8 -20
-13 -23 -12 -3 0 -5 -3 -3 -9 1 -5 -2 -7 -7 -4 -12 8 -34 -20 -26 -33 3 -6 0
-8 -9 -5 -9 3 -19 -3 -26 -16 -6 -11 -15 -18 -20 -15 -31 19 -137 -159 -124
-210 4 -15 2 -25 -4 -25 -16 0 -9 -186 9 -237 7 -24 17 -43 20 -43 4 0 16 -24
28 -52 15 -36 37 -65 69 -91 52 -43 156 -91 178 -83 8 3 14 2 14 -3 0 -16 168
0 207 20 20 10 45 19 55 19 9 0 19 4 23 9 3 6 -7 6 -27 0 -58 -16 -173 -11
-231 11 -167 62 -264 254 -237 466 18 140 97 260 208 315 59 30 56 28 51 33
-2 3 -13 0 -23 -6z"/>
<path d="M2508 3733 c7 -3 16 -2 19 1 4 3 -2 6 -13 5 -11 0 -14 -3 -6 -6z"/>
<path d="M1223 3691 c-18 -10 -39 -23 -46 -30 -8 -6 -18 -7 -23 -3 -5 4 -6 3
-2 -2 7 -8 -8 -21 -51 -42 -16 -8 -51 -41 -51 -49 0 -2 -13 -26 -30 -52 -16
-26 -30 -57 -30 -69 0 -13 -4 -26 -10 -29 -6 -4 -10 -57 -10 -126 0 -119 0
-120 40 -198 21 -43 36 -83 32 -87 -4 -5 -3 -6 2 -2 4 4 25 -11 46 -34 24 -25
43 -37 51 -33 8 5 10 4 5 -3 -4 -7 -1 -12 7 -12 8 0 28 -7 45 -16 30 -15 141
-21 237 -14 29 2 19 5 -35 9 -138 12 -243 85 -301 206 -97 203 -40 462 125
573 52 35 51 42 -1 13z"/>
<path d="M421 3673 c-8 -3 -26 -17 -39 -30 -13 -13 -28 -20 -34 -17 -6 4 -8 3
-5 -3 4 -6 0 -14 -9 -17 -8 -3 -12 -11 -8 -17 5 -8 3 -9 -5 -5 -8 5 -14 0 -18
-13 -3 -12 -10 -21 -15 -21 -12 0 -40 -68 -33 -81 13 -20 69 -41 112 -41 62 0
64 9 4 17 -47 6 -51 9 -51 33 0 41 43 122 85 165 21 20 36 37 34 36 -2 0 -10
-3 -18 -6z"/>
<path d="M2886 3576 c3 -8 13 -17 22 -21 13 -5 13 -2 -3 15 -21 24 -26 25 -19
6z"/>
<path d="M605 3541 c-12 -5 -27 -17 -35 -27 -14 -17 -14 -18 2 -6 16 12 56 14
49 2 -2 -3 3 -21 11 -40 16 -39 17 -68 4 -89 -7 -11 -5 -13 10 -7 17 6 17 5
-2 -13 -12 -11 -24 -24 -25 -28 -5 -11 -86 -63 -99 -63 -5 0 -10 -5 -10 -11 0
-12 -3 -13 107 57 86 55 113 90 113 143 0 58 -71 105 -125 82z"/>
<path d="M1353 3504 c-15 -14 -21 -22 -13 -18 19 10 56 17 48 8 -4 -3 1 -14
10 -23 26 -28 47 -56 52 -72 10 -31 11 -202 1 -212 -6 -6 -11 -21 -11 -34 0
-15 -8 -27 -22 -32 -23 -8 -23 -8 -2 -15 44 -14 100 28 129 96 24 60 20 182
-9 245 -39 83 -125 110 -183 57z"/>
<path d="M2522 3514 c-12 -8 -26 -25 -32 -37 -8 -17 -8 -19 1 -6 10 14 15 13
38 -9 14 -13 25 -28 24 -33 -2 -5 2 -9 8 -9 5 0 7 -5 4 -10 -5 -8 -11 -7 -21
1 -7 6 -11 16 -7 22 4 6 1 7 -6 2 -9 -5 -7 -13 10 -31 23 -25 35 -32 24 -14
-9 15 11 12 24 -4 8 -9 8 -15 2 -18 -6 -1 16 -34 49 -73 33 -38 59 -74 60 -79
0 -5 -8 0 -17 10 -26 28 -81 56 -87 45 -4 -5 0 -12 6 -14 10 -4 10 -6 1 -6 -7
-1 -13 -13 -13 -28 0 -14 -11 -45 -25 -69 -21 -36 -22 -43 -9 -48 110 -42 206
138 159 299 -23 82 -67 125 -127 125 -24 0 -54 -7 -66 -16z"/>
<path d="M476 3239 c-10 -10 -22 -17 -25 -15 -3 2 -15 -6 -26 -16 -20 -20 -20
-20 10 -5 40 21 71 44 65 50 -3 2 -14 -4 -24 -14z"/>
<path d="M372 3180 c-6 -11 -23 -22 -37 -26 -21 -5 -36 -24 -20 -24 16 0 85
52 80 60 -8 13 -8 13 -23 -10z"/>
<path d="M272 3104 c-12 -8 -20 -19 -17 -24 3 -5 1 -11 -5 -15 -5 -3 -10 -28
-10 -54 0 -35 6 -55 23 -74 l23 -27 259 2 260 3 -247 2 -248 3 0 100 c0 55 -3
100 -8 100 -4 0 -18 -7 -30 -16z"/>
<path d="M1915 3109 c-4 -5 -12 -8 -18 -6 -7 2 -29 -4 -49 -15 -74 -37 -85
-138 -22 -199 34 -33 42 -61 25 -88 -14 -21 -1 -51 23 -52 20 0 20 -1 1 -8
-13 -5 1 -8 40 -8 59 1 59 1 23 11 l-36 11 25 30 c30 36 64 106 57 117 -3 4
-13 8 -23 8 -9 0 -30 13 -45 29 -37 38 -40 107 -8 151 13 16 20 30 18 30 -3 0
-8 -5 -11 -11z"/>
<path d="M6875 3086 c6 -3 36 -7 69 -11 52 -6 65 -12 107 -52 27 -25 46 -50
42 -56 -3 -5 -2 -7 4 -4 5 3 22 -6 39 -20 l29 -25 -90 6 -90 5 100 -13 c55 -8
101 -13 103 -11 1 1 -40 41 -91 88 l-94 86 -69 6 c-38 3 -64 3 -59 1z"/>
<path d="M2859 3023 c-13 -16 -12 -17 4 -4 16 13 21 21 13 21 -2 0 -10 -8 -17
-17z"/>
<path d="M6924 3018 c-4 -7 -4 -10 1 -6 4 4 15 2 24 -5 14 -11 14 -10 2 6 -16
20 -18 21 -27 5z"/>
<path d="M2806 2971 c-21 -22 -25 -31 -14 -37 7 -4 10 -4 6 1 -4 4 4 19 18 32
15 13 24 26 22 28 -3 3 -17 -8 -32 -24z"/>
<path d="M2740 2930 c-8 -5 -10 -10 -5 -10 6 0 17 5 25 10 8 5 11 10 5 10 -5
0 -17 -5 -25 -10z"/>
<path d="M6970 2859 c0 -15 -8 -37 -18 -49 l-18 -22 -1 23 c-2 16 1 19 6 11 7
-11 9 -11 14 1 3 8 0 14 -6 13 -24 -3 -37 -18 -37 -42 0 -20 5 -24 28 -24 l27
0 -25 -13 c-19 -9 -26 -22 -28 -50 -3 -40 -21 -51 -23 -14 -1 20 -2 20 -6 2
-9 -35 -23 -41 -23 -10 0 21 -3 26 -9 16 -6 -10 -10 -10 -16 -1 -6 9 -10 9
-16 -1 -12 -20 -11 -37 1 -19 8 11 9 8 4 -12 -4 -20 -2 -28 7 -28 7 0 -4 -17
-24 -38 -21 -21 -35 -41 -32 -43 3 -3 -1 -6 -7 -7 -7 0 -31 -7 -53 -15 -45
-16 -147 -28 -140 -16 5 7 -47 29 -67 29 -20 0 5 -20 25 -21 19 0 19 -2 -5
-11 -18 -6 -28 -17 -28 -29 0 -11 -4 -17 -10 -14 -5 3 -10 1 -10 -4 0 -6 7
-11 16 -11 10 0 14 -6 10 -15 -4 -11 2 -15 24 -15 23 0 30 5 30 19 0 20 49 31
140 31 45 0 47 -1 47 -30 0 -16 -4 -27 -8 -25 -3 3 -12 -2 -19 -10 -10 -12
-10 -15 1 -16 8 -1 3 -5 -11 -9 -23 -7 -23 -8 -3 -9 12 -1 28 6 37 14 8 8 26
15 39 15 45 0 169 113 153 138 -3 6 5 17 18 25 40 27 68 213 37 251 -6 7 -8
15 -5 19 3 3 1 14 -5 24 -9 16 -10 15 -11 -8z m20 -80 c0 -16 -4 -28 -9 -25
-8 5 -3 56 5 56 2 0 4 -14 4 -31z m0 -53 c0 -13 -20 -26 -41 -26 -5 0 -9 8 -9
18 0 12 8 18 25 20 16 1 25 -3 25 -12z m-70 -112 c0 -14 -4 -23 -10 -19 -5 3
-10 15 -10 26 0 10 5 19 10 19 6 0 10 -12 10 -26z m-60 -85 c0 -5 -6 -9 -12
-9 -7 0 -31 -3 -53 -6 -38 -5 -39 -4 -16 9 27 16 81 20 81 6z"/>
<path d="M6842 2840 c0 -14 3 -34 8 -45 l9 -20 -1 20 c0 11 -4 31 -8 45 l-8
25 0 -25z"/>
<path d="M6871 2840 c0 -3 6 -30 14 -60 14 -52 15 -53 10 -11 -5 34 -25 95
-24 71z"/>
<path d="M6791 2774 c0 -11 3 -14 6 -6 3 7 2 16 -1 19 -3 4 -6 -2 -5 -13z"/>
<path d="M6862 2745 c0 -16 2 -22 5 -12 2 9 2 23 0 30 -3 6 -5 -1 -5 -18z"/>
<path d="M6789 2712 c-3 -20 -2 -29 4 -23 5 5 7 19 5 32 -3 20 -5 19 -9 -9z"/>
<path d="M3373 2703 c9 -2 23 -2 30 0 6 3 -1 5 -18 5 -16 0 -22 -2 -12 -5z"/>
<path d="M6326 2550 c2 -85 7 -234 11 -330 3 -96 3 -173 0 -170 -3 3 -7 21 -8
40 -2 19 -8 38 -13 42 -10 6 -11 19 -16 120 -2 31 -7 55 -11 53 -7 -5 -2 -248
6 -272 2 -6 13 -9 25 -6 13 4 26 0 31 -8 6 -10 9 -6 9 14 0 31 -3 31 74 13 52
-12 83 -11 304 11 242 25 247 26 272 53 26 28 168 105 177 96 9 -9 -9 -27 -22
-22 -18 7 -27 -5 -15 -20 8 -8 7 -11 -2 -10 -15 1 -18 -5 -29 -51 -4 -19 -3
-30 2 -27 5 3 9 0 9 -5 0 -6 15 -11 34 -11 l34 0 1 250 c1 227 -4 283 -23 235
-3 -8 -17 -15 -31 -15 -14 0 -25 -3 -25 -8 0 -10 -76 -92 -86 -92 -5 0 -21
-20 -36 -45 l-26 -44 21 -4 c15 -3 11 -5 -11 -6 -18 0 -31 2 -29 7 3 4 -32 8
-76 9 -45 1 -92 5 -104 8 -16 4 -23 1 -23 -10 0 -11 -10 -8 -39 13 -21 15 -37
29 -36 32 2 3 -8 7 -22 8 -14 1 -32 7 -40 13 -16 14 -80 7 -189 -21 -43 -11
-79 -19 -80 -17 -2 2 -8 77 -13 168 l-10 164 5 -155z m242 -217 l3 -52 -35 -7
c-20 -3 -47 -3 -61 0 -22 6 -25 11 -25 55 0 55 6 60 75 58 l40 -2 3 -52z
m-129 10 c-1 -37 -2 -37 -8 -8 -5 23 -11 29 -26 27 -11 -2 -23 -9 -27 -15 -5
-8 -8 -6 -8 5 0 15 16 22 58 27 8 1 12 -12 11 -36z m-82 -80 c-2 -21 -4 -6 -4
32 0 39 2 55 4 38 2 -18 2 -50 0 -70z m461 -44 c3 -51 -6 -59 -75 -59 -29 0
-33 3 -34 28 0 15 -2 36 -4 47 -5 27 12 36 65 33 l45 -3 3 -46z m-248 -14 l0
-55 -55 0 -55 0 0 34 c0 19 -3 41 -6 49 -6 18 12 24 74 26 l42 1 0 -55z m120
43 c0 -7 3 -30 6 -50 l7 -38 -62 0 -61 0 0 50 0 50 55 0 c37 0 55 -4 55 -12z
m-323 -135 c-3 -10 -5 -2 -5 17 0 19 2 27 5 18 2 -10 2 -26 0 -35z m806 -40
c-7 -2 -19 -2 -25 0 -7 3 -2 5 12 5 14 0 19 -2 13 -5z"/>
<path d="M6505 2290 c-13 -5 -14 -9 -5 -9 8 0 24 4 35 9 13 5 14 9 5 9 -8 0
-24 -4 -35 -9z"/>
<path d="M6753 2253 c-29 -4 -33 -8 -32 -31 2 -24 2 -24 6 -4 4 18 11 22 39
22 19 0 34 5 34 10 0 6 -3 9 -7 8 -5 0 -23 -3 -40 -5z"/>
<path d="M6753 2223 c9 -2 23 -2 30 0 6 3 -1 5 -18 5 -16 0 -22 -2 -12 -5z"/>
<path d="M6728 2173 c7 -3 16 -2 19 1 4 3 -2 6 -13 5 -11 0 -14 -3 -6 -6z"/>
<path d="M6470 2199 c0 -5 5 -7 10 -4 6 3 10 8 10 11 0 2 -4 4 -10 4 -5 0 -10
-5 -10 -11z"/>
<path d="M6500 2189 c0 -5 5 -7 10 -4 6 3 10 8 10 11 0 2 -4 4 -10 4 -5 0 -10
-5 -10 -11z"/>
<path d="M6546 2185 c4 -8 8 -15 10 -15 2 0 4 7 4 15 0 8 -4 15 -10 15 -5 0
-7 -7 -4 -15z"/>
<path d="M6618 2243 c12 -2 32 -2 45 0 12 2 2 4 -23 4 -25 0 -35 -2 -22 -4z"/>
<path d="M6759 2653 c-13 -17 -13 -17 6 -3 11 8 22 16 24 17 2 2 0 3 -6 3 -6
0 -17 -8 -24 -17z"/>
<path d="M6799 2653 c-1 -5 -1 -11 0 -15 1 -10 -69 -42 -76 -34 -3 3 1 6 10 6
10 0 17 4 17 10 0 6 -10 5 -25 -2 -13 -6 -22 -15 -19 -19 3 -5 -2 -9 -10 -9
-9 0 -16 -4 -16 -10 0 -5 -12 -10 -26 -10 -18 0 -23 -4 -17 -12 4 -7 -6 -5
-21 6 -16 10 -25 12 -21 5 6 -9 3 -10 -11 -5 -10 4 -23 9 -29 10 -5 1 -16 5
-23 10 -7 4 -16 6 -19 3 -9 -10 55 -37 101 -43 81 -11 194 46 193 99 0 17 -6
24 -8 10z m-59 -67 c0 -3 -4 -8 -10 -11 -5 -3 -10 -1 -10 4 0 6 5 11 10 11 6
0 10 -2 10 -4z"/>
<path d="M2308 2643 c7 -3 16 -2 19 1 4 3 -2 6 -13 5 -11 0 -14 -3 -6 -6z"/>
<path d="M6555 2600 c-3 -6 1 -7 9 -4 18 7 21 14 7 14 -6 0 -13 -4 -16 -10z"/>
<path d="M6607 2604 c-8 -8 1 -24 14 -24 5 0 9 7 9 15 0 15 -12 20 -23 9z"/>
<path d="M1110 2565 c-7 -8 -16 -12 -21 -9 -5 3 -8 2 -7 -3 1 -4 -3 -18 -10
-30 -7 -13 -10 -23 -7 -23 3 0 -1 -10 -9 -23 -8 -12 -15 -31 -14 -42 0 -11
-11 -54 -26 -95 -15 -41 -29 -87 -31 -102 -2 -15 -9 -37 -15 -48 -6 -11 -8
-20 -4 -20 3 0 1 -6 -5 -13 -6 -8 -8 -17 -4 -20 3 -4 0 -7 -7 -7 -7 0 -11 -3
-8 -6 4 -3 2 -20 -4 -37 -5 -18 -11 -39 -12 -47 -1 -9 -5 -21 -9 -27 -14 -22
31 -34 111 -30 l77 3 -84 2 c-62 1 -82 5 -79 15 9 22 83 258 169 534 l10 32
132 4 132 3 -131 2 c-106 2 -134 -1 -144 -13z"/>
<path d="M1605 2567 c-11 -7 -23 -16 -27 -22 -4 -5 -7 -126 -8 -269 0 -142 -3
-262 -5 -266 -3 -4 3 -14 12 -21 12 -10 42 -13 112 -11 121 5 132 12 18 12
l-87 0 0 290 0 290 114 0 c68 0 116 -4 119 -10 3 -6 4 -5 3 2 -4 18 -223 22
-251 5z"/>
<path d="M444 2554 c-18 -14 -18 -14 6 -3 31 14 36 19 24 19 -6 0 -19 -7 -30
-16z"/>
<path d="M380 2507 c-48 -46 -80 -85 -80 -97 0 -6 -6 -21 -14 -33 -10 -15 -13
-47 -12 -102 3 -98 11 -130 36 -158 11 -11 20 -27 20 -34 0 -7 7 -13 15 -13 8
0 15 -6 15 -14 0 -8 9 -18 20 -21 11 -3 20 -11 20 -16 0 -6 5 -7 11 -3 6 3 14
3 18 -2 11 -16 65 -36 106 -40 l40 -4 -46 13 c-143 41 -232 154 -231 294 1 87
25 153 79 213 52 57 53 65 3 17z"/>
<path d="M6683 2463 c9 -2 25 -2 35 0 9 3 1 5 -18 5 -19 0 -27 -2 -17 -5z"/>
<path d="M6570 2450 c0 -11 14 -11 50 0 22 7 21 8 -12 9 -21 1 -38 -3 -38 -9z"/>
<path d="M575 2430 c-15 -7 -11 -8 18 -4 31 5 44 1 75 -22 20 -15 39 -30 42
-33 3 -4 11 -7 18 -9 20 -4 -4 35 -33 54 -30 19 -93 27 -120 14z"/>
<path d="M1248 2395 c-11 -19 -26 -85 -18 -80 5 3 11 1 15 -5 3 -5 1 -10 -5
-10 -6 0 -8 -5 -3 -12 8 -13 12 -29 15 -60 2 -13 11 -18 30 -18 15 0 28 3 28
8 -1 23 -57 185 -62 177z"/>
<path d="M1910 2395 c0 -5 5 -17 10 -25 5 -8 10 -10 10 -5 0 6 -5 17 -10 25
-5 8 -10 11 -10 5z"/>
<path d="M808 2373 c6 -2 18 -2 25 0 6 3 1 5 -13 5 -14 0 -19 -2 -12 -5z"/>
<path d="M758 2363 c6 -2 18 -2 25 0 6 3 1 5 -13 5 -14 0 -19 -2 -12 -5z"/>
<path d="M738 2333 c12 -2 30 -2 40 0 9 3 -1 5 -23 4 -22 0 -30 -2 -17 -4z"/>
<path d="M1791 2280 c0 -85 13 -146 52 -240 6 -14 11 -28 11 -32 1 -3 11 -15
24 -26 24 -21 64 -23 137 -6 39 9 39 9 -29 14 l-68 5 -19 50 c-10 28 -38 106
-63 175 l-45 125 0 -65z"/>
<path d="M593 2300 c-34 -54 -5 -89 74 -90 l52 0 -10 -30 c-6 -16 -20 -32 -31
-36 -11 -3 -17 -8 -15 -11 15 -14 97 53 97 79 0 5 -34 8 -74 8 l-75 0 -3 50
c-3 45 -4 48 -15 30z"/>
<path d="M1150 2063 c0 -11 3 -14 8 -7 4 6 32 12 64 13 61 2 76 -7 103 -60
l16 -29 97 2 97 2 -81 3 -82 4 -11 44 -11 45 -100 0 c-89 0 -100 -2 -100 -17z"/>
<path d="M688 1973 c7 -3 16 -2 19 1 4 3 -2 6 -13 5 -11 0 -14 -3 -6 -6z"/>
<path d="M1058 1833 c7 -3 16 -2 19 1 4 3 -2 6 -13 5 -11 0 -14 -3 -6 -6z"/>
<path d="M934 1804 c-18 -14 -18 -14 6 -3 31 14 36 19 24 19 -6 0 -19 -7 -30
-16z"/>
<path d="M1522 1814 c-1 -7 -11 -14 -22 -17 -19 -5 -20 -14 -20 -210 0 -185 2
-206 18 -213 22 -11 332 -12 325 -1 -3 5 1 7 8 5 23 -4 75 32 94 66 16 29 15
28 -14 -6 -42 -49 -78 -58 -243 -58 l-138 0 -3 223 c-1 122 -3 217 -5 211z"/>
<path d="M375 1783 c-4 -10 -8 -102 -9 -205 -1 -144 2 -188 12 -188 6 0 12 -4
12 -10 0 -6 25 -9 58 -8 l57 2 -52 3 -53 4 0 210 c0 193 -6 238 -25 192z"/>
<path d="M856 1745 c-25 -25 -45 -51 -43 -58 1 -7 -4 -11 -10 -9 -8 1 -13 -9
-13 -29 0 -17 -5 -40 -11 -51 -8 -15 -8 -19 0 -14 7 5 11 -2 11 -18 0 -31 33
-103 62 -137 36 -41 58 -51 163 -68 53 -10 77 -6 29 4 -89 18 -111 29 -155 75
-89 91 -90 216 -3 319 37 45 23 38 -30 -14z"/>
<path d="M1870 1786 c0 -2 8 -10 18 -17 15 -13 16 -12 3 4 -13 16 -21 21 -21
13z"/>
<path d="M4188 1773 c6 -2 18 -2 25 0 6 3 1 5 -13 5 -14 0 -19 -2 -12 -5z"/>
<path d="M3913 1753 c9 -2 25 -2 35 0 9 3 1 5 -18 5 -19 0 -27 -2 -17 -5z"/>
<path d="M4830 1729 c0 -11 -6 -44 -14 -72 -23 -80 -26 -125 -10 -131 10 -4
14 3 15 22 0 15 3 36 5 47 9 37 17 155 10 155 -3 0 -6 -9 -6 -21z"/>
<path d="M580 1713 c0 -5 9 -16 20 -26 11 -9 20 -28 20 -42 0 -19 -7 -26 -32
-34 l-33 -9 31 -1 c52 -2 82 52 52 91 -15 18 -58 34 -58 21z"/>
<path d="M1660 1685 c0 -19 4 -35 9 -35 5 0 7 8 4 19 -5 20 18 42 25 23 2 -7
11 -12 20 -13 11 0 12 -2 5 -6 -7 -2 -13 -12 -13 -20 0 -28 69 0 70 29 0 16
-47 38 -82 38 -37 0 -38 -1 -38 -35z"/>
<path d="M1017 1703 c-3 -5 6 -9 19 -10 44 -4 54 -6 49 -11 -3 -3 5 -16 17
-29 17 -19 31 -23 72 -22 32 1 40 4 22 6 -16 3 -43 20 -61 39 -27 28 -40 34
-73 34 -22 0 -43 -3 -45 -7z"/>
<path d="M3968 1683 c6 -2 18 -2 25 0 6 3 1 5 -13 5 -14 0 -19 -2 -12 -5z"/>
<path d="M4053 1683 c9 -2 23 -2 30 0 6 3 -1 5 -18 5 -16 0 -22 -2 -12 -5z"/>
<path d="M4118 1645 c2 -14 6 -25 8 -25 2 0 4 11 4 25 0 14 -4 25 -9 25 -4 0
-6 -11 -3 -25z"/>
<path d="M1906 1643 c-6 -14 -5 -15 5 -6 7 7 10 15 7 18 -3 3 -9 -2 -12 -12z"/>
<path d="M4058 1633 c7 -3 16 -2 19 1 4 3 -2 6 -13 5 -11 0 -14 -3 -6 -6z"/>
<path d="M1896 1579 c16 -20 31 -34 33 -32 3 2 -10 18 -29 36 l-34 32 30 -36z"/>
<path d="M4013 1593 c9 -2 23 -2 30 0 6 3 -1 5 -18 5 -16 0 -22 -2 -12 -5z"/>
<path d="M1198 1553 c6 -2 18 -2 25 0 6 3 1 5 -13 5 -14 0 -19 -2 -12 -5z"/>
<path d="M1660 1520 l0 -40 53 0 c71 0 98 28 61 64 -10 10 -33 16 -65 16 l-49
0 0 -40z m54 7 c18 -18 8 -37 -20 -37 -19 0 -24 5 -24 25 0 27 23 34 44 12z"/>
<path d="M2131 1544 c0 -11 3 -14 6 -6 3 7 2 16 -1 19 -3 4 -6 -2 -5 -13z"/>
<path d="M3960 1539 c0 -5 27 -9 60 -9 33 0 60 4 60 9 0 6 -27 9 -60 9 -33 0
-60 -5 -60 -9z"/>
<path d="M1124 1525 c-4 -8 -10 -13 -14 -10 -4 3 -10 -2 -13 -9 -3 -8 -18 -16
-34 -19 -26 -4 -26 -4 -3 -5 27 -2 90 32 90 48 0 15 -20 12 -26 -5z"/>
<path d="M558 1493 c18 -2 45 -2 60 0 15 2 0 4 -33 4 -33 0 -45 -2 -27 -4z"/>
<path d="M3958 1483 c7 -3 16 -2 19 1 4 3 -2 6 -13 5 -11 0 -14 -3 -6 -6z"/>
<path d="M4715 1450 c6 -9 97 -42 102 -36 2 1 -21 12 -52 23 -30 11 -52 17
-50 13z"/>
<path d="M3940 1440 c-12 -8 -12 -10 5 -9 11 0 29 4 40 9 18 8 18 9 -5 9 -14
0 -32 -4 -40 -9z"/>
<path d="M4035 1440 c3 -5 12 -10 20 -10 8 0 17 5 20 10 4 6 -5 10 -20 10 -15
0 -24 -4 -20 -10z"/>
<path d="M3530 1393 c27 -22 74 -47 115 -63 22 -9 25 -7 25 15 0 25 -25 36
-135 61 l-30 7 25 -20z"/>
<path d="M1088 1363 c6 -2 18 -2 25 0 6 3 1 5 -13 5 -14 0 -19 -2 -12 -5z"/>
<path d="M5605 1318 l-40 -43 43 40 c39 36 47 45 39 45 -2 0 -21 -19 -42 -42z"/>
<path d="M2331 1306 c-17 -20 2 -28 25 -11 19 15 19 15 0 8 -13 -4 -17 -3 -12
5 10 17 1 15 -13 -2z"/>
<path d="M4993 1303 c-16 -12 -13 -13 22 -7 50 8 52 10 20 16 -14 3 -33 -1
-42 -9z"/>
<path d="M2 1265 c9 -9 366 -23 803 -30 176 -4 328 -8 337 -11 10 -3 61 -7
115 -8 54 -2 166 -7 249 -11 111 -6 153 -5 158 4 4 6 11 9 16 6 8 -5 179 40
189 50 2 3 -418 5 -934 5 -516 0 -936 -2 -933 -5z"/>
<path d="M1915 1244 c-82 -34 -97 -50 -42 -46 23 2 81 -1 129 -5 48 -5 84 -5
82 -1 -3 4 2 8 11 8 9 0 13 -4 10 -10 -3 -5 1 -10 10 -10 9 0 13 5 9 11 -4 8
0 9 15 4 14 -4 52 6 111 31 50 20 90 38 90 40 0 2 -82 4 -182 4 -172 -1 -187
-2 -243 -26z"/>
<path d="M5503 1224 l-28 -25 33 22 c17 13 32 24 32 26 0 8 -11 1 -37 -23z"/>
<path d="M4870 1191 c0 -5 8 -19 19 -32 18 -23 19 -23 67 -7 l49 17 -51 -6
c-47 -5 -53 -3 -59 16 -6 21 -25 30 -25 12z"/>
<path d="M3838 1133 c6 -2 18 -2 25 0 6 3 1 5 -13 5 -14 0 -19 -2 -12 -5z"/>
<path d="M5003 1043 c9 -2 23 -2 30 0 6 3 -1 5 -18 5 -16 0 -22 -2 -12 -5z"/>
<path d="M4925 1030 c-4 -7 3 -8 22 -4 38 9 42 14 10 14 -14 0 -29 -5 -32 -10z"/>
<path d="M5126 848 c-9 -34 -7 -68 3 -68 13 0 18 9 26 53 6 29 4 37 -8 37 -8
0 -17 -10 -21 -22z"/>
<path d="M5170 858 c0 -9 5 -20 10 -23 13 -8 13 5 0 25 -8 13 -10 13 -10 -2z"/>
<path d="M4660 831 c0 -6 7 -11 16 -11 11 0 15 -8 13 -32 -4 -42 14 -53 21
-13 4 20 11 30 23 29 17 -2 23 11 9 20 -19 12 -82 18 -82 7z"/>
<path d="M2658 783 c12 -2 32 -2 45 0 12 2 2 4 -23 4 -25 0 -35 -2 -22 -4z"/>
<path d="M4885 764 c-4 -16 -8 -35 -11 -42 -4 -13 34 -32 67 -32 10 0 19 5 19
10 0 6 -8 10 -17 10 -10 0 -25 5 -33 11 -12 8 -9 10 13 6 33 -5 35 6 5 21 -23
10 -23 11 5 11 26 1 40 21 15 21 -7 0 -23 3 -35 6 -18 5 -23 1 -28 -22z"/>
<path d="M2707 749 c7 -7 15 -10 18 -7 3 3 -2 9 -12 12 -14 6 -15 5 -6 -5z"/>
<path d="M5154 700 c-29 -44 -28 -59 4 -39 17 10 25 10 46 -4 14 -9 27 -17 30
-17 2 0 -3 23 -12 50 -9 28 -22 50 -29 50 -7 0 -25 -18 -39 -40z m46 1 c0 -6
-4 -13 -10 -16 -5 -3 -10 1 -10 9 0 9 5 16 10 16 6 0 10 -4 10 -9z"/>
<path d="M3926 261 c-4 -5 3 -7 14 -4 23 6 26 13 6 13 -8 0 -17 -4 -20 -9z"/>
<path d="M4134 248 c4 -15 -1 -18 -27 -19 -29 -2 -30 -2 -5 -6 18 -3 28 -11
30 -26 3 -17 5 -15 9 10 3 18 1 38 -4 45 -6 9 -7 8 -3 -4z"/>
<path d="M4500 240 c0 -5 5 -10 11 -10 5 0 7 5 4 10 -3 6 -8 10 -11 10 -2 0
-4 -4 -4 -10z"/>
<path d="M3778 233 c6 -2 18 -2 25 0 6 3 1 5 -13 5 -14 0 -19 -2 -12 -5z"/>
<path d="M4456 215 c4 -8 10 -15 15 -15 5 0 9 7 9 15 0 8 -7 15 -15 15 -9 0
-12 -6 -9 -15z"/>
<path d="M3773 193 c-31 -6 -29 -23 2 -23 16 0 25 6 25 15 0 8 -1 14 -2 14 -2
-1 -13 -4 -25 -6z"/>
<path d="M4540 172 c-36 -2 -69 -7 -73 -11 -4 -4 -2 -29 5 -54 l12 -46 60 6
c34 3 62 7 64 8 2 2 2 25 0 51 l-3 49 -65 -3z m35 -32 c-3 -5 -26 -10 -51 -10
-24 0 -44 5 -44 10 0 6 23 10 51 10 31 0 48 -4 44 -10z m-55 -50 c-19 -13 -30
-13 -30 0 0 6 10 10 23 10 18 0 19 -2 7 -10z m55 -8 c-3 -3 -11 0 -18 7 -9 10
-8 11 6 5 10 -3 15 -9 12 -12z"/>
<path d="M3800 150 c0 -5 5 -10 10 -10 6 0 10 5 10 10 0 6 -4 10 -10 10 -5 0
-10 -4 -10 -10z"/>
<path d="M4366 144 c-9 -23 -8 -26 7 -18 9 6 9 5 0 -8 -17 -20 -7 -28 34 -28
30 0 34 3 31 23 -2 12 -9 21 -17 19 -12 -3 -12 0 -1 12 11 14 8 16 -18 16 -18
0 -32 -6 -36 -16z"/>
<path d="M4333 105 c2 -26 7 -48 9 -51 3 -2 29 0 59 5 l54 9 -46 1 c-49 1 -59
10 -59 57 0 13 -5 24 -11 24 -8 0 -10 -15 -6 -45z"/>
<path d="M4383 43 c-35 -3 -43 -8 -43 -24 0 -17 7 -19 60 -19 33 0 60 4 60 9
0 20 -13 41 -24 39 -6 -1 -30 -3 -53 -5z m-6 -19 c-3 -3 -12 -4 -19 -1 -8 3
-5 6 6 6 11 1 17 -2 13 -5z"/>
</g>
</svg>
