<?xml version="1.0" standalone="no"?>
<!DOCTYPE svg PUBLIC "-//W3C//DTD SVG 20010904//EN"
 "http://www.w3.org/TR/2001/REC-SVG-20010904/DTD/svg10.dtd">
<svg version="1.0" xmlns="http://www.w3.org/2000/svg"
 width="720.000000pt" height="404.000000pt" viewBox="0 0 720.000000 404.000000"
 preserveAspectRatio="xMidYMid meet">

<g transform="translate(0.000000,404.000000) scale(0.100000,-0.100000)"
fill="#000000" stroke="none">
<path d="M0 4013 c0 -21 3 -24 12 -15 20 20 63 14 88 -13 18 -19 21 -31 16
-57 -6 -31 -3 -37 60 -94 83 -75 104 -76 104 -3 0 27 -4 49 -10 49 -19 0 -50
40 -50 63 0 30 39 67 72 67 31 0 61 -31 61 -65 0 -28 -28 -65 -50 -65 -9 0
-13 -14 -13 -45 0 -39 4 -46 29 -59 49 -26 49 -90 1 -116 -15 -8 -20 -21 -20
-51 0 -33 6 -45 31 -66 27 -23 30 -31 26 -64 -4 -34 0 -42 52 -98 46 -50 60
-60 79 -55 19 5 22 13 22 55 0 34 -4 49 -13 49 -22 0 -47 34 -47 63 0 18 10
34 30 49 25 18 30 29 30 65 0 24 -4 43 -10 43 -20 0 -50 41 -50 68 0 29 26 62
48 62 8 0 12 18 12 50 0 35 -4 50 -13 50 -26 0 -49 37 -45 71 6 63 94 80 120
23 15 -32 0 -76 -30 -89 -18 -8 -22 -18 -22 -57 0 -38 4 -48 20 -53 47 -15 50
-82 5 -111 -21 -14 -25 -24 -25 -65 0 -37 4 -49 15 -49 8 0 22 -11 31 -25 21
-32 11 -72 -21 -87 -21 -10 -25 -18 -25 -58 0 -40 4 -48 25 -58 46 -21 43
-102 -5 -117 -18 -6 -21 -12 -16 -37 3 -17 6 -39 6 -49 0 -11 6 -19 13 -19 29
0 50 -38 44 -77 -6 -36 -3 -42 50 -96 48 -50 60 -58 84 -53 19 3 36 -1 54 -16
22 -17 26 -27 22 -57 -4 -33 1 -42 57 -101 l61 -65 -65 62 c-51 50 -70 61 -87
57 -56 -15 -103 30 -84 79 8 20 1 32 -48 86 -52 58 -59 63 -87 57 -37 -8 -84
24 -84 58 0 28 27 66 47 66 12 0 14 7 9 31 -3 17 -6 40 -6 50 0 11 -6 19 -13
19 -29 0 -50 38 -44 79 5 37 2 42 -57 99 -51 51 -64 59 -79 51 -26 -15 -76 7
-83 37 -9 36 4 73 30 85 21 10 23 16 18 52 -4 29 -14 48 -35 66 -25 21 -28 29
-23 62 6 36 4 40 -58 94 -59 52 -68 57 -115 59 l-51 1 0 -1942 0 -1943 3600 0
3600 0 0 1950 c0 1922 0 1950 -19 1940 -48 -25 -91 3 -91 58 0 44 40 70 81 55
27 -11 29 -10 29 13 l0 24 -3600 0 -3600 0 0 -27z m778 -19 c39 -27 20 -114
-25 -114 -9 0 -13 -15 -13 -50 0 -32 4 -50 12 -50 24 0 48 -34 48 -67 0 -27
-6 -37 -30 -51 -26 -15 -30 -23 -30 -59 0 -34 5 -45 23 -54 28 -15 37 -28 37
-58 0 -28 -26 -61 -48 -61 -12 0 -14 -12 -9 -70 6 -67 5 -70 -16 -71 -14 -1
-10 -4 11 -8 18 -3 33 -10 33 -16 0 -5 -15 -12 -33 -15 l-33 -6 38 -5 c22 -3
37 -1 38 6 0 5 2 18 4 28 2 9 -2 17 -9 17 -7 0 -13 7 -13 15 0 23 12 18 27
-10 10 -18 11 -33 4 -53 -8 -23 -16 -27 -50 -30 -28 -2 -45 2 -54 13 -18 22
-16 64 5 83 10 10 15 12 11 5 -4 -7 1 -9 16 -5 12 3 18 7 13 9 -6 2 -8 27 -7
57 3 46 1 55 -16 60 -45 15 -47 101 -2 113 16 4 20 14 20 53 0 40 -4 50 -25
64 -45 29 -42 96 5 111 16 5 20 15 20 56 0 27 -4 49 -10 49 -19 0 -50 40 -50
65 0 29 36 65 65 65 11 0 31 -7 43 -16z m232 -6 c21 -23 26 -54 10 -78 -7 -11
5 -29 51 -76 74 -74 99 -77 99 -9 0 35 -6 49 -30 73 -16 17 -30 38 -30 47 0
22 45 65 68 65 27 0 62 -37 62 -65 0 -25 -31 -65 -50 -65 -5 0 -10 -22 -10
-49 0 -41 3 -51 21 -56 24 -8 42 -49 33 -77 -3 -10 -16 -26 -30 -34 -19 -13
-24 -25 -24 -60 0 -38 4 -46 24 -53 38 -15 50 -76 20 -105 -20 -21 -68 -20
-89 0 -24 24 -16 86 13 99 18 8 22 18 22 56 0 39 -4 47 -25 57 -31 14 -46 49
-34 81 8 20 2 32 -46 86 -52 60 -58 63 -90 58 -46 -7 -75 17 -75 63 0 59 69
85 110 42z m418 -6 c31 -40 -5 -106 -55 -100 -14 2 -35 15 -46 30 -17 23 -19
31 -9 53 20 44 81 54 110 17z m192 8 c11 -11 20 -31 20 -44 0 -33 -39 -72 -66
-68 -54 8 -75 81 -34 114 29 23 55 23 80 -2z m598 4 c39 -27 20 -114 -25 -114
-9 0 -13 -15 -13 -50 0 -35 4 -50 13 -50 29 0 50 -38 44 -77 -6 -36 -3 -41 55
-100 50 -50 65 -60 79 -52 25 13 68 -5 78 -33 20 -55 -34 -109 -84 -86 -28 13
-40 45 -31 82 4 18 -6 36 -50 85 -51 56 -59 61 -88 56 -40 -8 -86 25 -86 61 0
24 31 64 50 64 6 0 10 23 10 50 0 28 -4 50 -10 50 -5 0 -19 9 -30 20 -58 58
20 142 88 94z m210 0 c34 -23 27 -83 -10 -104 -25 -13 -31 -13 -55 0 -37 20
-43 70 -14 99 25 25 49 27 79 5z m200 0 c32 -22 30 -78 -3 -100 -14 -9 -26
-24 -26 -33 -1 -13 -2 -13 -5 -1 -3 8 -18 23 -34 32 -36 21 -41 67 -10 98 24
24 48 25 78 4z m200 0 c32 -22 30 -76 -4 -103 -24 -19 -28 -19 -54 -6 -63 33
-45 120 25 124 6 1 21 -6 33 -15z m611 -10 c12 -15 21 -34 21 -43 0 -19 -35
-61 -50 -61 -6 0 -10 -22 -10 -49 0 -41 4 -51 20 -56 47 -15 50 -82 5 -111
-21 -14 -25 -24 -25 -64 0 -39 4 -49 20 -53 28 -7 43 -50 28 -82 -27 -59 -118
-41 -118 24 0 32 8 44 38 60 17 9 22 20 22 54 0 36 -4 44 -30 59 -24 14 -30
24 -30 52 0 28 7 40 30 58 44 32 42 78 -6 123 -28 27 -34 39 -29 57 19 62 78
78 114 32z m220 10 c20 -14 23 -23 18 -60 -4 -41 -1 -47 46 -101 27 -32 51
-59 52 -61 1 -1 14 2 28 7 20 8 31 6 51 -10 41 -32 34 -89 -14 -114 -27 -14
-30 -13 -59 14 -31 29 -38 54 -22 80 7 11 -5 31 -44 76 -50 56 -57 61 -89 57
-64 -7 -101 63 -56 108 24 24 58 26 89 4z m211 -4 c11 -11 20 -32 20 -47 0
-29 -25 -63 -47 -63 -8 0 -14 -13 -14 -32 l-2 -33 -4 29 c-3 16 -16 38 -29 49
-34 27 -31 86 6 104 34 17 47 16 70 -7z m200 2 c27 -22 29 -65 5 -92 -38 -42
-105 -12 -105 45 0 57 56 83 100 47z m198 1 c34 -30 37 -59 8 -88 -30 -30 -59
-32 -86 -5 -56 56 19 144 78 93z m207 -8 c28 -27 30 -37 14 -66 -8 -15 -7 -25
3 -37 11 -15 11 -16 -4 -4 -9 8 -27 10 -42 6 -56 -14 -98 51 -63 97 26 35 61
36 92 4z m1353 9 c47 -33 17 -114 -42 -114 -63 0 -76 102 -16 123 25 9 35 8
58 -9z m-623 -49 c0 -29 -20 -28 -23 1 -1 17 2 24 11 21 6 -2 12 -12 12 -22z
m30 0 c0 -10 -4 -20 -10 -22 -5 -1 -10 8 -10 22 0 14 5 24 10 22 6 -2 10 -12
10 -22z m162 -9 c-9 -24 -25 -19 -22 7 3 32 4 32 16 20 7 -7 9 -19 6 -27z m30
4 c-1 -11 -6 -20 -13 -20 -7 0 -9 10 -6 25 5 29 21 24 19 -5z m155 5 c3 -15 1
-25 -7 -25 -9 0 -12 28 -6 48 3 9 9 -2 13 -23z m36 0 c1 -14 -2 -25 -6 -25 -4
0 -9 11 -10 25 -1 14 2 25 6 25 4 0 9 -11 10 -25z m942 13 c0 -10 3 -9 9 1 10
16 31 6 31 -14 0 -20 -21 -30 -31 -14 -6 10 -9 11 -9 2 0 -7 -5 -13 -11 -13
-5 0 -8 4 -5 9 4 5 1 11 -6 13 -6 2 -8 10 -4 16 9 16 26 15 26 0z m230 -14 c0
-19 -5 -23 -30 -22 -24 1 -30 5 -30 23 0 17 6 22 30 22 25 0 30 -4 30 -23z
m170 8 l19 23 1 -25 c0 -20 -5 -25 -28 -27 -24 -2 -28 2 -26 20 3 32 6 35 11
9 l4 -22 19 22z m-5152 -8 c-2 -8 -6 -15 -10 -15 -5 1 -19 1 -33 1 -16 0 -25
6 -25 15 0 11 11 15 36 15 27 0 35 -4 32 -16z m192 -1 c0 -8 -13 -13 -35 -13
-33 0 -43 8 -28 23 11 12 63 3 63 -10z m1020 2 c0 -10 -10 -15 -30 -15 -20 0
-30 5 -30 15 0 10 10 15 30 15 20 0 30 -5 30 -15z m200 0 c0 -10 -11 -15 -35
-15 -24 0 -35 5 -35 15 0 10 11 15 35 15 24 0 35 -5 35 -15z m1440 1 c0 -8
-13 -16 -30 -18 -24 -4 -30 -1 -30 14 0 13 8 18 30 18 19 0 30 -5 30 -14z
m200 -3 c0 -8 -12 -13 -35 -13 -24 0 -35 5 -35 15 0 10 10 14 35 13 22 -1 35
-6 35 -15z m190 0 c0 -8 -12 -13 -35 -13 -22 0 -35 5 -35 13 0 9 13 14 35 14
23 0 35 -5 35 -14z m970 3 c0 -20 -38 -27 -55 -9 -20 20 -20 20 20 21 23 1 35
-3 35 -12z m190 -4 c0 -15 -6 -18 -30 -14 -17 2 -30 10 -30 18 0 9 11 14 30
14 22 0 30 -5 30 -18z m198 0 c2 -8 -9 -12 -32 -12 -24 0 -36 5 -36 14 0 18
62 16 68 -2z m-1872 -114 l29 -33 -32 29 c-31 28 -38 36 -30 36 2 0 16 -15 33
-32z m-1739 -25 c-3 -10 -5 -4 -5 12 0 17 2 24 5 18 2 -7 2 -21 0 -30z m-1180
-5 c-3 -8 -6 -5 -6 6 -1 11 2 17 5 13 3 -3 4 -12 1 -19z m987 -16 c3 -5 0 -9
-7 -9 -7 0 -21 -4 -32 -7 -13 -5 -12 -2 5 8 30 18 28 18 34 8z m-1211 -9 c-7
-2 -19 -2 -25 0 -7 3 -2 5 12 5 14 0 19 -2 13 -5z m266 3 c-20 -17 -49 -25
-55 -14 -4 7 -3 8 4 4 7 -4 12 -2 12 3 0 6 10 11 22 11 12 0 19 -2 17 -4z
m751 0 c0 -2 -7 -6 -15 -10 -8 -3 -15 -1 -15 4 0 6 7 10 15 10 8 0 15 -2 15
-4z m1670 -22 c0 -2 -9 0 -20 6 -11 6 -20 13 -20 16 0 2 9 0 20 -6 11 -6 20
-13 20 -16z m515 8 c-3 -3 -11 0 -18 7 -9 10 -8 11 6 5 10 -3 15 -9 12 -12z
m1241 -3 c8 -6 14 -16 14 -22 0 -6 -6 -3 -12 6 -17 23 -62 32 -54 11 3 -9 1
-12 -4 -9 -6 3 -10 13 -10 21 0 17 43 12 66 -7z m1334 15 c0 -8 -19 -13 -24
-6 -3 5 1 9 9 9 8 0 15 -2 15 -3z m-4537 -27 c-4 -7 -6 -20 -5 -29 3 -14 -4
-18 -32 -18 -25 0 -36 4 -36 15 0 9 9 15 24 15 26 0 50 22 38 35 -4 5 -1 5 6
1 7 -4 9 -13 5 -19z m116 2 c-6 -12 -9 -30 -6 -40 3 -10 1 -17 -4 -13 -5 3 -9
12 -9 20 0 17 18 54 26 54 2 0 0 -9 -7 -21z m3010 14 c-4 -25 4 -33 32 -33 32
0 59 -19 59 -42 0 -10 -3 -9 -10 2 -6 9 -21 14 -45 12 -26 -3 -35 0 -35 12 0
9 -7 16 -15 16 -13 0 -14 4 -5 20 11 20 21 27 19 13z m-4310 -48 c0 -5 -4 -3
-9 5 -5 8 -9 22 -9 30 0 16 17 -16 18 -35z m1094 20 c-3 -9 -8 -14 -10 -11 -3
3 -2 9 2 15 9 16 15 13 8 -4z m-587 -18 c2 -13 -5 -17 -32 -17 -26 0 -34 4
-34 18 0 25 62 24 66 -1z m386 -2 c3 -13 1 -22 -3 -19 -9 5 -13 44 -5 44 2 0
6 -11 8 -25z m84 -4 c-4 -6 -20 -11 -37 -11 -38 0 -39 27 -1 32 31 4 47 -5 38
-21z m594 3 c0 -9 -11 -14 -30 -14 -22 0 -30 5 -30 18 0 15 6 18 30 14 17 -2
30 -10 30 -18z m195 6 c0 -10 -12 -16 -32 -18 -27 -3 -33 0 -33 15 0 15 7 19
33 18 21 0 32 -6 32 -15z m850 -5 c0 -5 -15 -11 -32 -12 -18 -1 -33 3 -33 8 0
5 -7 9 -15 9 -8 0 -15 4 -15 8 0 4 21 5 48 2 26 -3 47 -9 47 -15z m22 -7 c-3
-7 -5 -2 -5 12 0 14 2 19 5 13 2 -7 2 -19 0 -25z m771 9 c3 -13 -4 -17 -31
-17 -29 0 -34 3 -30 18 6 25 57 23 61 -1z m347 2 c0 -8 -13 -15 -32 -17 -26
-3 -33 0 -33 15 0 14 7 18 32 17 21 -1 33 -6 33 -15z m221 -3 c-1 -16 -6 -20
-26 -18 -31 5 -34 8 -27 25 3 8 16 15 30 15 18 0 24 -6 23 -22z m592 8 c-2
-10 -15 -19 -30 -21 -22 -3 -28 0 -28 15 0 13 9 18 31 20 24 2 30 -1 27 -14z
m192 4 c0 -17 -6 -22 -32 -25 -21 -2 -28 1 -28 15 0 14 8 18 30 18 17 0 30 -3
30 -8z m196 -11 c1 -9 -2 -17 -7 -17 -5 0 -9 6 -9 13 0 8 -4 7 -10 -3 -9 -13
-10 -13 -10 0 0 13 -1 13 -10 0 -11 -18 -23 -9 -15 12 8 21 58 17 61 -5z m164
-7 c5 0 7 7 4 15 -4 9 0 15 8 15 15 0 22 -36 8 -45 -4 -3 -20 -1 -35 5 -24 9
-25 12 -14 27 13 15 14 15 17 0 2 -10 7 -17 12 -17z m191 18 c0 -10 2 -10 6 0
8 19 23 14 23 -8 0 -16 -7 -20 -30 -20 -18 0 -30 5 -30 13 0 25 29 39 31 15z
m202 -8 c-3 -11 -8 -20 -12 -20 -4 0 -7 9 -7 20 0 11 6 20 12 20 7 0 10 -8 7
-20z m-5543 -5 c0 -10 -11 -15 -35 -15 -24 0 -35 5 -35 15 0 10 11 15 35 15
24 0 35 -5 35 -15z m250 0 c0 -10 -10 -15 -29 -15 -16 0 -35 -2 -43 -3 -7 -2
-10 -2 -5 0 4 3 7 11 7 19 0 9 11 14 35 14 24 0 35 -5 35 -15z m1160 0 c0 -10
-11 -15 -35 -15 -24 0 -35 5 -35 15 0 10 11 15 35 15 24 0 35 -5 35 -15z
m1347 -7 c-3 -8 -6 -5 -6 6 -1 11 2 17 5 13 3 -3 4 -12 1 -19z m93 7 c0 -10
-10 -15 -34 -15 -21 0 -36 6 -40 15 -4 12 3 15 34 15 29 0 40 -4 40 -15z m390
0 c0 -10 -11 -15 -35 -15 -24 0 -35 5 -35 15 0 10 11 15 35 15 24 0 35 -5 35
-15z m2525 0 c0 -5 -16 -11 -36 -13 -27 -2 -36 1 -36 13 0 12 9 15 36 13 20
-2 36 -7 36 -13z m-4745 -32 c-11 -17 -11 -17 -6 0 3 10 6 24 7 30 0 9 2 9 5
0 3 -7 0 -20 -6 -30z m-1090 -8 c14 -19 14 -19 -2 -6 -10 7 -18 18 -18 24 0 6
1 8 3 6 1 -2 9 -13 17 -24z m1491 2 c-10 -9 -11 -8 -5 6 3 10 9 15 12 12 3 -3
0 -11 -7 -18z m1769 -9 c8 -3 23 -1 33 4 10 5 17 5 17 0 0 -30 -79 -13 -88 18
-3 12 -2 12 9 -1 8 -9 21 -19 29 -21z m2510 17 c0 -12 -19 -12 -23 0 -4 9 -1
12 9 8 7 -3 14 -7 14 -8z m-4313 -17 c-3 -8 -6 -5 -6 6 -1 11 2 17 5 13 3 -3
4 -12 1 -19z m1413 0 c0 -13 -23 -5 -28 10 -2 7 2 10 12 6 9 -3 16 -11 16 -16z
m-2815 2 c-3 -5 -12 -10 -18 -10 -7 0 -6 4 3 10 19 12 23 12 15 0z m221 -3 c4
-4 0 -7 -9 -7 -9 0 -18 4 -21 9 -7 10 20 9 30 -2z m739 3 c3 -6 -1 -7 -9 -4
-18 7 -21 14 -7 14 6 0 13 -4 16 -10z m210 -8 c-3 -3 -11 0 -18 7 -9 10 -8 11
6 5 10 -3 15 -9 12 -12z m50 8 c-3 -5 -12 -10 -18 -10 -7 0 -6 4 3 10 19 12
23 12 15 0z m1440 0 c-3 -5 -12 -10 -18 -10 -7 0 -6 4 3 10 19 12 23 12 15 0z
m1750 0 c3 -5 1 -10 -4 -10 -6 0 -11 5 -11 10 0 6 2 10 4 10 3 0 8 -4 11 -10z
m-1954 -131 c30 -27 36 -53 20 -78 -7 -10 6 -32 47 -78 52 -58 58 -63 88 -57
69 13 103 -81 42 -116 -25 -13 -31 -13 -55 0 -30 17 -43 64 -24 83 7 7 -8 31
-49 76 -56 64 -60 67 -98 63 -32 -3 -42 0 -56 19 -24 35 -20 66 14 91 21 15
30 31 31 52 l2 31 4 -29 c3 -16 18 -42 34 -57z m-2443 -47 c-2 -9 -16 -16 -35
-18 -26 -2 -33 1 -33 15 0 14 8 18 35 18 27 0 35 -4 33 -15z m250 0 c-5 -28
-67 -20 -68 9 0 3 16 6 36 7 28 1 35 -2 32 -16z m212 4 c0 -6 5 -4 10 4 9 14
14 2 8 -17 -5 -13 -28 -12 -28 0 0 8 -3 7 -9 -2 -6 -9 -11 -10 -15 -2 -4 6 -5
15 -2 19 7 12 36 11 36 -2z m740 2 c0 -18 -6 -23 -32 -23 -21 -1 -28 4 -28 17
0 14 7 18 30 16 17 -1 30 -6 30 -10z m290 -3 c0 -8 -6 -15 -12 -16 -7 0 -22
-2 -33 -4 -15 -3 -21 1 -22 15 -1 16 5 20 33 20 24 0 34 -5 34 -15z m205 -6
c0 -22 -59 -19 -63 4 -3 15 2 18 30 14 20 -2 33 -9 33 -18z m948 7 c8 -19 -1
-26 -35 -26 -21 0 -28 5 -28 20 0 15 7 20 29 20 16 0 31 -6 34 -14z m201 6 c8
-14 -8 -27 -36 -30 -23 -3 -28 1 -28 17 0 17 6 21 29 21 17 0 32 -4 35 -8z
m396 -3 c0 -5 0 -12 0 -16 0 -8 -50 -13 -62 -6 -4 2 -5 10 -2 17 6 15 64 20
64 5z m150 -1 c0 -9 4 -8 10 2 9 13 10 13 10 0 0 -13 1 -13 10 0 6 10 10 11
10 3 0 -7 1 -16 3 -19 1 -4 -12 -8 -30 -9 -26 -2 -31 1 -30 16 1 21 17 27 17
7z m356 3 c17 14 45 5 39 -13 -3 -7 -19 -13 -35 -13 -24 0 -30 4 -29 20 0 11
3 14 6 7 4 -10 8 -10 19 -1z m230 -6 c-3 -9 0 -15 9 -15 9 0 12 6 9 15 -4 8
-1 15 5 15 6 0 11 -9 11 -20 0 -15 -7 -20 -28 -20 -21 0 -28 5 -28 20 0 11 7
20 14 20 8 0 12 -6 8 -15z m624 -4 c0 -15 -6 -19 -30 -17 -16 1 -32 5 -36 8
-12 13 8 28 37 28 22 0 29 -5 29 -19z m190 2 c0 -13 -8 -18 -30 -18 -21 -1
-30 4 -30 15 0 10 10 17 30 18 23 2 30 -2 30 -15z m167 -15 c-3 -7 -5 -2 -5
12 0 14 2 19 5 13 2 -7 2 -19 0 -25z m53 18 c0 -8 -9 -16 -20 -19 -14 -4 -20
0 -20 12 0 10 8 17 20 18 11 1 20 -4 20 -11z m357 -7 c-2 -27 -53 -27 -53 0 0
13 8 18 27 19 21 0 27 -4 26 -19z m198 2 c0 -17 -32 -24 -41 -9 -4 6 -10 5
-15 -3 -6 -10 -8 -7 -6 9 1 19 6 22 32 20 18 -2 30 -9 30 -17z m-5655 -158 c0
-8 -9 0 -50 45 l-45 47 48 -45 c26 -24 47 -45 47 -47z m2067 35 c-3 -7 -5 -2
-5 12 0 14 2 19 5 13 2 -7 2 -19 0 -25z m-949 -116 c-3 -46 -4 -47 -37 -49
-43 -2 -74 13 -67 33 3 9 1 12 -4 9 -12 -8 -13 35 -1 53 4 8 19 19 32 26 20
11 28 10 52 -7 25 -17 28 -24 25 -65z m-1001 30 c4 -16 2 -27 -5 -30 -6 -2 -9
-9 -6 -16 3 -8 -2 -16 -12 -20 -13 -5 -14 -4 -6 7 16 19 5 27 -35 27 -23 0
-33 5 -33 15 0 10 11 15 35 15 25 0 35 -4 35 -16 0 -8 4 -13 9 -10 5 4 8 13 7
22 -2 12 -14 17 -48 18 -26 0 -45 -1 -43 -3 3 -2 0 -11 -5 -21 -6 -12 -5 -23
5 -36 8 -11 14 -14 15 -6 0 13 40 17 40 3 0 -5 -12 -11 -26 -14 -18 -3 -29 1
-40 18 -19 29 -2 82 29 87 38 6 77 -12 84 -40z m1992 23 c34 -33 0 -105 -50
-105 -32 0 -61 37 -57 73 5 51 67 70 107 32z m-359 -27 c0 -7 -4 -19 -9 -26
-6 -10 -10 -7 -13 12 -4 18 -1 26 8 26 8 0 14 -6 14 -12z m30 -3 c0 -8 0 -18
1 -22 0 -4 -3 -9 -8 -10 -5 -2 -10 8 -11 22 -1 14 3 25 8 25 6 0 10 -7 10 -15z
m2090 -12 c0 -26 -17 -31 -26 -8 -6 14 -8 13 -19 -2 -12 -16 -13 -15 -12 9 2
22 7 26 30 26 21 -1 27 -6 27 -25z m974 15 c-6 -10 -4 -10 7 0 20 18 29 15 29
-13 0 -14 -5 -25 -11 -25 -5 0 -7 5 -4 10 3 6 2 10 -4 10 -5 0 -11 -6 -14 -12
-3 -10 -7 -10 -17 -1 -14 13 -7 43 10 43 6 0 8 -6 4 -12z m211 3 c-3 -5 -1
-12 5 -16 5 -3 10 1 10 10 0 24 24 13 28 -13 3 -17 -2 -21 -27 -20 -26 1 -31
5 -31 25 0 12 5 23 11 23 5 0 8 -4 4 -9z m225 -22 c0 -10 -6 -19 -14 -19 -9 0
-12 8 -8 25 5 28 22 24 22 -6z m30 6 c0 -14 -4 -25 -9 -25 -5 0 -8 11 -8 25 0
14 3 25 8 25 5 0 9 -11 9 -25z m-4970 -2 c0 -8 -12 -13 -35 -13 -33 0 -43 8
-29 23 12 11 64 4 64 -10z m930 5 c0 -9 4 -8 10 2 8 13 10 12 10 -2 0 -13 -8
-18 -30 -18 -20 0 -30 5 -30 15 0 8 9 15 20 15 11 0 20 -6 20 -12z m310 -3 c0
-16 -55 -22 -64 -6 -8 13 5 21 36 21 18 0 28 -5 28 -15z m1358 -2 c2 -9 -8
-13 -32 -13 -26 0 -36 4 -36 16 0 19 61 16 68 -3z m592 2 c0 -10 -11 -15 -35
-15 -33 0 -43 8 -28 23 13 14 63 7 63 -8z m1160 0 c0 -16 -55 -22 -64 -6 -8
13 5 21 36 21 18 0 28 -5 28 -15z m918 -3 c2 -8 -9 -12 -30 -12 -25 0 -35 5
-35 15 0 19 58 16 65 -3z m-4423 -132 c10 -11 16 -20 13 -20 -3 0 -13 9 -23
20 -10 11 -16 20 -13 20 3 0 13 -9 23 -20z m-902 -88 c4 8 6 7 6 -4 1 -12 -6
-18 -19 -18 -14 0 -20 7 -20 23 1 21 1 21 14 4 11 -14 15 -15 19 -5z m30 -7
c-7 -21 -13 -19 -13 6 0 11 4 18 10 14 5 -3 7 -12 3 -20z m1267 3 c0 -14 -8
-18 -34 -18 -28 0 -33 3 -29 18 6 25 63 24 63 0z m1331 -2 c0 -6 4 -2 9 9 8
19 9 19 9 -2 1 -19 -4 -23 -29 -23 -23 0 -30 5 -30 19 0 14 5 18 20 14 11 -3
20 -10 21 -17z m611 4 c5 -12 7 -11 7 3 1 21 21 13 21 -9 0 -9 -11 -14 -34
-14 -29 0 -33 3 -29 20 6 22 25 22 35 0z m218 1 c0 -11 -4 -22 -9 -25 -5 -3
-8 5 -7 19 1 29 16 34 16 6z m37 -1 c1 -11 -4 -20 -10 -20 -7 0 -13 9 -14 20
-1 11 4 20 10 20 7 0 13 -9 14 -20z m961 -1 c2 -12 -6 -16 -31 -16 -27 0 -33
4 -30 17 6 22 57 20 61 -1z m322 1 c0 -11 -4 -20 -8 -20 -4 0 -8 9 -8 20 0 11
4 20 8 20 4 0 8 -9 8 -20z m40 0 c0 -11 -7 -20 -15 -20 -15 0 -21 21 -8 33 12
13 23 7 23 -13z m319 0 c1 23 41 23 41 1 0 -13 -8 -18 -30 -19 -25 -1 -30 3
-29 21 0 21 1 21 9 2 6 -14 9 -15 9 -5z m-5979 -5 c0 -10 -9 -14 -32 -12 -45
4 -49 27 -4 27 25 0 36 -4 36 -15z m660 5 c0 -5 -3 -10 -7 -11 -5 0 -20 -3
-35 -5 -21 -3 -28 -1 -28 11 0 11 10 15 35 15 19 0 35 -4 35 -10z m1198 -1
c-6 -17 -68 -20 -68 -3 0 9 12 14 36 14 22 0 34 -4 32 -11z m797 1 c3 -5 0
-10 -7 -10 -7 0 -23 -3 -35 -6 -17 -5 -23 -2 -23 10 0 18 54 23 65 6z m638 -5
c-2 -5 -16 -11 -33 -13 -22 -2 -30 1 -30 13 0 12 8 16 33 13 17 -2 31 -7 30
-13z m-2490 -180 c118 -31 227 -107 269 -188 41 -82 30 -216 -28 -314 -37 -63
-117 -137 -189 -174 l-64 -34 63 -21 c114 -38 225 -136 274 -242 23 -50 27
-70 27 -157 0 -94 -2 -105 -34 -170 -70 -142 -215 -245 -376 -267 -277 -39
-545 130 -545 344 0 72 18 110 64 132 48 22 97 20 137 -7 46 -31 61 -62 56
-120 -5 -63 -44 -104 -106 -115 l-43 -7 40 -42 c108 -112 315 -154 428 -88 99
58 138 155 138 340 0 138 -16 206 -66 281 -51 75 -105 98 -245 103 -111 3
-113 4 -113 27 0 25 9 28 128 38 116 10 188 70 232 193 21 57 25 86 25 178 0
99 -3 115 -25 155 -48 86 -130 119 -248 101 -95 -14 -160 -43 -206 -90 l-37
-38 40 -7 c22 -3 53 -17 68 -30 24 -21 28 -31 28 -80 0 -49 -4 -59 -33 -88
-28 -29 -39 -33 -83 -33 -46 0 -54 4 -86 39 -35 37 -35 40 -30 102 6 76 37
136 99 188 52 45 129 83 188 95 72 14 191 12 253 -4z m4277 -692 l5 -702 23
-23 c20 -21 34 -23 142 -27 l120 -3 0 -37 0 -36 -375 0 -375 0 0 36 0 37 120
3 c108 4 122 6 142 27 l23 23 3 620 2 621 -22 -7 c-94 -30 -163 -44 -220 -44
l-68 -1 0 34 0 34 68 7 c139 14 252 54 322 114 22 20 44 30 60 28 l25 -2 5
-702z m470 646 c0 -10 -4 -19 -10 -19 -5 0 -10 12 -10 26 0 14 4 23 10 19 6
-3 10 -15 10 -26z m34 22 c3 -4 -1 -16 -8 -26 -13 -17 -13 -17 -13 8 0 26 10
36 21 18z m326 -18 c0 -12 -5 -23 -11 -23 -5 0 -7 5 -3 11 5 8 1 8 -14 0 -27
-15 -27 -15 -30 12 -1 20 3 24 28 24 25 0 30 -4 30 -24z m-4042 -2 c-5 -23
-62 -22 -66 1 -3 14 4 17 33 16 27 -1 35 -5 33 -17z m242 2 c0 -15 -2 -16 -10
-3 -6 10 -10 11 -10 3 0 -7 -9 -13 -20 -13 -32 0 -23 26 10 28 23 2 30 -2 30
-15z m540 -1 c0 -15 -6 -18 -30 -14 -17 2 -30 10 -30 18 0 9 11 14 30 14 22 0
30 -5 30 -18z m845 1 c0 -7 -3 -13 -7 -13 -5 0 -19 0 -33 0 -15 0 -25 6 -25
14 0 10 10 14 33 13 18 -1 32 -7 32 -14z m615 5 c0 6 9 12 20 12 32 0 23 -27
-10 -32 -25 -4 -30 -1 -30 16 0 17 2 18 10 6 6 -10 10 -11 10 -2z m1150 -3 c0
6 9 11 20 12 25 2 27 -23 3 -29 -26 -7 -43 1 -43 20 0 15 2 15 10 2 5 -8 10
-10 10 -5z m-1750 -415 l0 -310 305 0 305 0 0 -70 0 -70 -305 0 -305 0 0 -310
0 -310 -70 0 -70 0 0 310 0 310 -305 0 -305 0 0 70 0 70 305 0 305 0 0 310 0
310 70 0 70 0 0 -310z m604 194 c6 -17 0 -34 -12 -34 -4 0 -9 11 -10 25 -2 28
12 34 22 9z m34 -6 c-4 -30 -23 -33 -23 -3 0 14 6 25 13 25 8 0 12 -9 10 -22z
m1110 -3 c1 -14 -2 -25 -6 -25 -4 0 -9 11 -10 25 -1 14 2 25 6 25 4 0 9 -11
10 -25z m33 12 c-1 -4 -1 -14 -1 -22 0 -8 -4 -15 -9 -15 -5 0 -8 11 -7 25 0
14 5 24 9 22 5 -1 8 -6 8 -10z m378 -4 c1 9 8 17 17 17 26 0 13 -43 -14 -45
-27 -2 -36 9 -27 33 6 15 8 15 15 -3 7 -17 9 -17 9 -2z m-5461 -5 c-7 -19 -45
-22 -45 -3 0 9 9 15 25 15 14 0 22 -5 20 -12z m532 -3 c0 -5 5 -3 10 5 8 13
10 13 10 -2 0 -12 -8 -16 -28 -16 -16 1 -29 7 -29 14 0 7 9 12 19 11 10 -1 18
-6 18 -12z m1280 0 c0 -10 -10 -14 -33 -13 -19 1 -34 6 -34 13 0 7 15 12 34
13 23 1 33 -3 33 -13z m630 0 c0 -10 -10 -15 -30 -15 -20 0 -30 5 -30 15 0 10
10 15 30 15 20 0 30 -5 30 -15z m1061 3 c0 -10 2 -10 6 0 7 17 43 15 43 -3 0
-10 -10 -15 -33 -15 -23 0 -34 5 -34 15 0 18 17 20 18 3z m-1098 -221 c22 14
37 11 37 -5 0 -12 -9 -18 -30 -18 -25 -1 -30 2 -29 20 0 11 3 15 6 8 2 -6 10
-9 16 -5z m1484 -19 c-3 -7 -5 -2 -5 12 0 14 2 19 5 13 2 -7 2 -19 0 -25z m53
12 c0 -13 -7 -20 -20 -20 -13 0 -20 7 -20 20 0 13 7 20 20 20 13 0 20 -7 20
-20z m1040 -1 c0 -11 -4 -19 -8 -19 -5 0 -17 8 -26 19 -16 18 -16 19 9 19 18
0 25 -6 25 -19z m400 1 c0 -11 -4 -20 -9 -20 -6 0 -9 9 -8 20 1 11 5 20 9 20
4 0 8 -9 8 -20z m30 -14 c-14 -14 -24 0 -16 21 6 15 8 15 16 3 6 -9 5 -19 0
-24z m-4850 14 c0 -5 -16 -10 -35 -10 -19 0 -35 5 -35 10 0 6 16 10 35 10 19
0 35 -4 35 -10z m4385 -10 c3 -5 -1 -10 -10 -10 -9 0 -13 5 -10 10 3 6 8 10
10 10 2 0 7 -4 10 -10z m-3385 -62 c0 -32 -3 -38 -22 -38 -27 0 -58 -27 -58
-52 0 -16 130 -196 185 -256 10 -11 26 4 87 80 41 52 80 104 87 115 25 49 8
99 -41 116 -12 4 -18 17 -18 39 l0 33 210 0 210 0 0 -36 0 -36 -57 -7 c-79 -9
-153 -45 -208 -103 -67 -70 -210 -253 -210 -269 0 -19 313 -420 344 -441 15
-10 54 -18 98 -21 l73 -5 0 -36 0 -36 -235 -1 -235 -1 0 37 c0 33 3 38 29 43
42 9 57 41 35 75 -34 54 -199 271 -207 271 -11 1 -178 -211 -193 -247 -19 -44
-8 -82 27 -96 25 -9 29 -16 29 -46 l0 -36 -210 0 -211 1 3 35 c3 35 4 35 61
42 72 9 131 35 182 79 38 34 265 312 265 326 0 20 -292 387 -326 409 -13 9
-56 19 -96 23 -67 5 -73 8 -76 29 -7 47 -7 47 242 47 l236 1 0 -38z m200 -138
c0 -5 -5 -10 -11 -10 -5 0 -7 5 -4 10 3 6 8 10 11 10 2 0 4 -4 4 -10z m667 -2
c11 15 12 14 13 -8 0 -21 -5 -25 -30 -27 -23 -2 -30 2 -30 16 0 25 13 35 24
18 9 -14 11 -13 23 1z m1598 -13 c0 -16 -7 -20 -30 -20 -20 0 -30 5 -31 15 -1
24 5 29 34 27 20 -2 27 -8 27 -22z m497 0 c3 -14 1 -25 -3 -25 -5 0 -9 11 -9
25 0 14 2 25 4 25 2 0 6 -11 8 -25z m38 10 c0 -8 0 -18 1 -22 0 -4 -3 -9 -8
-10 -4 -2 -8 8 -8 22 0 14 3 25 8 25 4 0 7 -7 7 -15z m-3480 -5 c0 13 1 13 10
0 6 -10 10 -11 10 -2 0 6 5 12 10 12 6 0 10 -7 10 -15 0 -10 -10 -15 -30 -15
-22 0 -30 5 -30 18 0 14 2 15 10 2 9 -13 10 -13 10 0z m1330 -230 c0 -11 -7
-20 -15 -20 -17 0 -18 2 -9 24 9 23 24 20 24 -4z m30 -5 c0 -14 -4 -25 -9 -25
-5 0 -8 11 -7 25 1 33 16 33 16 0z m1741 16 c11 19 34 -4 26 -25 -7 -17 -27
-22 -27 -7 0 5 -9 7 -20 4 -22 -6 -26 7 -8 25 9 9 14 10 17 1 2 -8 6 -7 12 2z
m-1774 -241 c-1 -11 -6 -20 -12 -20 -6 0 -11 9 -11 20 0 11 6 20 13 20 6 0 11
-9 10 -20z m33 0 c0 -11 -4 -20 -10 -20 -5 0 -10 9 -10 20 0 11 5 20 10 20 6
0 10 -9 10 -20z m1766 8 c4 -6 2 -14 -4 -20 -7 -7 -19 -4 -37 10 l-26 21 31
-1 c17 -1 33 -5 36 -10z m354 -8 c0 -11 -6 -20 -13 -20 -7 0 -13 9 -13 20 0
11 6 20 13 20 7 0 13 -9 13 -20z m-395 -10 c3 -5 -1 -10 -10 -10 -9 0 -13 5
-10 10 3 6 8 10 10 10 2 0 7 -4 10 -10z m-1760 -200 c-9 -14 8 -13 23 2 9 9
12 6 12 -13 0 -20 -5 -25 -24 -24 -13 0 -28 3 -31 7 -10 10 2 38 15 38 6 0 8
-4 5 -10z m1757 -15 c3 -15 1 -25 -7 -25 -9 0 -12 28 -6 48 3 9 9 -2 13 -23z
m41 12 c3 -8 1 -20 -4 -28 -11 -19 -34 3 -26 25 8 20 23 21 30 3z m-1175 -239
c-2 -13 -7 -23 -12 -23 -5 0 -10 10 -11 23 -1 13 4 22 12 22 9 0 13 -8 11 -22z
m32 -3 c0 -14 -4 -25 -10 -25 -5 0 -9 11 -8 25 1 14 6 25 10 25 4 0 8 -11 8
-25z m486 3 c-1 -31 -23 -34 -23 -3 0 14 5 25 12 25 7 0 12 -10 11 -22z m-426
-228 c0 -11 -4 -20 -9 -20 -6 0 -9 9 -8 20 1 11 5 20 9 20 4 0 8 -9 8 -20z
m29 3 c-10 -11 -10 -14 -1 -9 6 4 12 2 12 -3 0 -6 -7 -11 -15 -11 -8 0 -15 9
-15 20 0 12 7 20 16 20 14 0 15 -2 3 -17z m-9 -229 c0 -16 -5 -24 -12 -21 -20
6 -18 47 3 47 5 0 9 -12 9 -26z m0 -224 c0 -19 -11 -26 -23 -14 -8 8 3 34 14
34 5 0 9 -9 9 -20z m0 -231 c0 -11 -7 -19 -17 -19 -13 0 -14 3 -6 11 6 6 9 18
6 27 -4 10 -2 13 5 8 7 -4 12 -16 12 -27z m0 -230 c0 -10 -4 -19 -10 -19 -5 0
-10 12 -10 26 0 14 4 23 10 19 6 -3 10 -15 10 -26z"/>
<path d="M691 3264 c0 -11 3 -14 6 -6 3 7 2 16 -1 19 -3 4 -6 -2 -5 -13z"/>
<path d="M4228 3923 c7 -3 16 -2 19 1 4 3 -2 6 -13 5 -11 0 -14 -3 -6 -6z"/>
<path d="M4060 3302 c0 -4 -12 -9 -27 -10 -41 -3 -41 -12 0 -12 26 0 37 4 37
15 0 8 -2 15 -5 15 -3 0 -5 -4 -5 -8z"/>
<path d="M3980 3270 c0 -5 5 -10 11 -10 5 0 7 5 4 10 -3 6 -8 10 -11 10 -2 0
-4 -4 -4 -10z"/>
<path d="M4070 3262 c0 -7 -12 -13 -27 -13 -26 -2 -26 -2 -4 -6 24 -5 50 11
38 24 -4 3 -7 1 -7 -5z"/>
<path d="M6755 3490 c-3 -5 -2 -10 4 -10 5 0 13 5 16 10 3 6 2 10 -4 10 -5 0
-13 -4 -16 -10z"/>
<path d="M2393 3283 c24 -3 37 -9 37 -19 0 -9 -12 -14 -37 -15 -24 -1 -29 -3
-15 -6 12 -2 22 -9 22 -14 0 -5 8 -9 18 -9 14 0 15 2 2 10 -13 8 -12 10 3 10
11 0 17 8 17 25 0 23 -3 25 -42 23 l-43 -1 38 -4z"/>
<path d="M3378 3283 c12 -2 30 -2 40 0 9 3 -1 5 -23 4 -22 0 -30 -2 -17 -4z"/>
<path d="M3430 3262 c0 -7 -17 -13 -37 -14 l-38 -1 34 -4 c33 -4 61 10 48 24
-4 3 -7 1 -7 -5z"/>
<path d="M7128 3963 c7 -3 16 -2 19 1 4 3 -2 6 -13 5 -11 0 -14 -3 -6 -6z"/>
<path d="M733 2793 c9 -2 23 -2 30 0 6 3 -1 5 -18 5 -16 0 -22 -2 -12 -5z"/>
</g>
</svg>
